<?xml version="1.0" standalone="no"?>
<!DOCTYPE svg PUBLIC "-//W3C//DTD SVG 1.1//EN" "http://www.w3.org/Graphics/SVG/1.1/DTD/svg11.dtd" >
<svg xmlns="http://www.w3.org/2000/svg" xmlns:xlink="http://www.w3.org/1999/xlink" version="1.1">
<metadata>
Created by FontForge 20150318 at Wed May  6 07:43:39 2015
 By uniteet7
Copyright (c) 2014 by Rene' Bieder. All rights reserved.
</metadata>
<defs>
<font id="GalanoGrotesque-Medium" horiz-adv-x="610" >
  <font-face 
    font-family="GalanoGrotesque-Medium"
    font-weight="400"
    font-stretch="normal"
    units-per-em="1000"
    panose-1="0 0 6 0 0 0 0 0 0 0"
    ascent="795"
    descent="-205"
    x-height="496"
    cap-height="670"
    bbox="-178 -207 1196 937"
    underline-thickness="50"
    underline-position="-50"
    unicode-range="U+0020-FB02"
  />
<missing-glyph horiz-adv-x="780" 
d="M391 684c96 0 177.833 -33.333 245.5 -100s101.5 -150.334 101.5 -251.001c0 -99.333 -33.833 -182.166 -101.5 -248.499s-149.5 -99.5 -245.5 -99.5c-96.667 0 -179 33.167 -247 99.5s-102 149.166 -102 248.499c0 100.667 34 184.334 102 251.001s150.333 100 247 100z
M391 638c-83.333 0 -154 -28.833 -212 -86.5s-87 -130.167 -87 -217.5c0 -86.667 29 -158.834 87 -216.501s128.667 -86.5 212 -86.5c82 0 152 28.833 210 86.5s87 129.834 87 216.501c0 87.333 -29 159.833 -87 217.5s-128 86.5 -210 86.5zM523 400
c0 -29.333 -10.1689 -53.668 -30.502 -73.001s-47.166 -30.666 -80.499 -33.999v-37h-56v84h35c21.333 0 38.833 5.5 52.5 16.5s20.5 25.5 20.5 43.5c0 19.333 -6.66699 35 -20 47s-30.666 18 -51.999 18c-22.667 0 -41.167 -6.83301 -55.5 -20.5s-22.5 -31.834 -24.5 -54.5
l-58 10c1.33301 33.333 15 61.5 41 84.5s58.333 34.5 97 34.5c39.333 0 71 -11 95 -33s36 -50.667 36 -86zM382.998 212.998c10.667 0 19.667 -3.5 27 -10.5s11 -15.5 11 -25.5c0 -10.667 -3.66699 -19.667 -11 -27s-16.333 -11 -27 -11s-19.5 3.66699 -26.5 11
s-10.5 16.333 -10.5 27c0 10 3.66699 18.5 11 25.5s16 10.5 26 10.5z" />
    <glyph glyph-name="fi" unicode="fi" horiz-adv-x="632" 
d="M546 496v-495.999h-104v410h-237v-410h-104v410h-81v86h81v59c0 55.333 16.833 99.166 50.5 131.499s78.5 48.5 134.5 48.5c33.333 0 63.333 -7 90 -21l-24 -84c-20 8 -39.667 12 -59 12c-27.333 0 -48.833 -7.66699 -64.5 -23c-15.667 -15.335 -23.5 -36.668 -23.5 -64
v-59h341zM494 581.001c-19.333 0 -35.335 6 -48.002 18s-19 27.333 -19 46c0 18 6.33301 33.333 19 46s28.667 19 48 19c18.6689 0 34.3359 -6.33301 47.001 -19c12.667 -12.667 19 -28 19 -46c0 -18.667 -6.16699 -34 -18.5 -46c-12.335 -12 -28.168 -18 -47.499 -18z" />
    <glyph glyph-name="fl" unicode="fl" horiz-adv-x="624" 
d="M205 496l165.001 0.000976562v-86h-165v-410h-104v410h-81v86h81v59c0 55.333 16.667 99.166 50 131.499s77.666 48.5 132.999 48.5c29.334 0 57.667 -6 85 -18l-25 -85c-17.333 6.66699 -35 10 -53 10c-26 0 -46.833 -7.66699 -62.5 -23
c-15.667 -15.335 -23.5 -36.668 -23.5 -64v-59zM546.001 720.001v-720h-105v720h105z" />
    <glyph glyph-name=".notdef" horiz-adv-x="780" 
d="M391 684c96 0 177.833 -33.333 245.5 -100s101.5 -150.334 101.5 -251.001c0 -99.333 -33.833 -182.166 -101.5 -248.499s-149.5 -99.5 -245.5 -99.5c-96.667 0 -179 33.167 -247 99.5s-102 149.166 -102 248.499c0 100.667 34 184.334 102 251.001s150.333 100 247 100z
M391 638c-83.333 0 -154 -28.833 -212 -86.5s-87 -130.167 -87 -217.5c0 -86.667 29 -158.834 87 -216.501s128.667 -86.5 212 -86.5c82 0 152 28.833 210 86.5s87 129.834 87 216.501c0 87.333 -29 159.833 -87 217.5s-128 86.5 -210 86.5zM523 400
c0 -29.333 -10.1689 -53.668 -30.502 -73.001s-47.166 -30.666 -80.499 -33.999v-37h-56v84h35c21.333 0 38.833 5.5 52.5 16.5s20.5 25.5 20.5 43.5c0 19.333 -6.66699 35 -20 47s-30.666 18 -51.999 18c-22.667 0 -41.167 -6.83301 -55.5 -20.5s-22.5 -31.834 -24.5 -54.5
l-58 10c1.33301 33.333 15 61.5 41 84.5s58.333 34.5 97 34.5c39.333 0 71 -11 95 -33s36 -50.667 36 -86zM382.998 212.998c10.667 0 19.667 -3.5 27 -10.5s11 -15.5 11 -25.5c0 -10.667 -3.66699 -19.667 -11 -27s-16.333 -11 -27 -11s-19.5 3.66699 -26.5 11
s-10.5 16.333 -10.5 27c0 10 3.66699 18.5 11 25.5s16 10.5 26 10.5z" />
    <glyph glyph-name="space" unicode=" " horiz-adv-x="247" 
 />
    <glyph glyph-name="exclam" unicode="!" horiz-adv-x="279" 
d="M197 670v-31l-4 -430h-106l-4 430v31h114zM139 123c18.667 0 34.334 -6.16699 47.001 -18.5s19 -27.166 19 -44.499c0 -18 -6.33301 -33.167 -19 -45.5s-28.334 -18.5 -47.001 -18.5s-34.167 6.16699 -46.5 18.5s-18.5 27.5 -18.5 45.5
c0 17.333 6.16699 32.166 18.5 44.499s27.833 18.5 46.5 18.5z" />
    <glyph glyph-name="quotedbl" unicode="&#x22;" horiz-adv-x="381" 
d="M53 382v288h105v-288h-105zM223 382v288h105v-288h-105z" />
    <glyph glyph-name="numbersign" unicode="#" horiz-adv-x="686" 
d="M533 406l-39 -157h107l-24 -87h-105l-40 -162h-93l41 162h-158l-40 -162h-93l40 162h-106l24 87h104l39 157h-106l23 87h105l44 177h93l-44 -177h158l44 177h92l-44 -177h107l-25 -87h-104zM441 406h-158l-39 -157h157z" />
    <glyph glyph-name="dollar" unicode="$" horiz-adv-x="595" 
d="M543 202c0 -53.333 -18.168 -97.1699 -54.501 -131.503s-84.166 -54.166 -143.499 -59.499v-111h-89v115c-56.667 8.66699 -104.5 30.334 -143.5 65.001s-60.5 78.334 -64.5 131.001l106 21c4.66699 -66.667 40 -108.667 106 -126v193l-36 8
c-46 8.66699 -84.167 26.334 -114.5 53.001s-45.5 64.334 -45.5 113.001c0 51.333 17.5 93.5 52.5 126.5s81.5 52.5 139.5 58.5v112h89v-114c54.667 -8.66699 99 -29.834 133 -63.501s53 -75.834 57 -126.501l-104 -19c-0.667969 30.667 -9.33496 56.167 -26 76.5
c-16.667 20.333 -37.667 34.5 -63 42.5v-185l40 -8c107.333 -24 161 -81 161 -171zM259.999 398.996v170.999c-27.333 -5.33398 -48.833 -16.167 -64.5 -32.499c-15.667 -16.334 -23.5 -35.834 -23.5 -58.5c0 -40 25.667 -66 77 -78zM341.999 280.995v-179
c30.667 4.66699 55 15.667 73 33s27 38.333 27 63c0 42 -28.667 68.667 -86 80z" />
    <glyph glyph-name="percent" unicode="%" horiz-adv-x="840" 
d="M211 684c46 0 85.167 -14.833 117.5 -44.5s48.5 -68.5 48.5 -116.5c0 -46.667 -16.167 -85 -48.5 -115s-71.5 -45 -117.5 -45s-85.167 15 -117.5 45s-48.5 68.333 -48.5 115c0 48 16.167 86.833 48.5 116.5s71.5 44.5 117.5 44.5zM132 0l496 670h71l-496 -670h-71z
M211 612c-23.333 0 -43.665 -8.16699 -60.998 -24.5s-26 -37.5 -26 -63.5c0 -26.667 8.66699 -48.167 26 -64.5s37.666 -24.5 60.999 -24.5s43.666 8.16699 60.999 24.5s26 37.833 26 64.5c0 26 -8.66699 47.167 -26 63.5c-17.334 16.333 -37.667 24.5 -61 24.5z
M629.001 307c46 0 85.167 -14.833 117.5 -44.5s48.5 -68.167 48.5 -115.5s-16.167 -86 -48.5 -116s-71.5 -45 -117.5 -45s-85.167 15 -117.5 45s-48.5 68.667 -48.5 116s16.167 85.833 48.5 115.5s71.5 44.5 117.5 44.5zM629.001 236
c-23.3359 0 -43.667 -8.16699 -60.998 -24.5c-17.333 -16.333 -26 -37.833 -26 -64.5c0 -26 8.66699 -47.167 26 -63.5s37.666 -24.5 60.999 -24.5s43.666 8.16699 60.999 24.5s26 37.5 26 63.5c0 26.667 -8.66699 48.167 -26 64.5c-17.3359 16.333 -37.6689 24.5 -61 24.5z
" />
    <glyph glyph-name="ampersand" unicode="&#x26;" horiz-adv-x="706" 
d="M622 -24l-101 86.999c-55.333 -51.333 -124.333 -77 -207 -77c-77.333 0 -139.5 18.833 -186.5 56.5s-70.5 87.5 -70.5 149.5c0 76 40.333 134.333 121 175c-34.667 42.667 -52 88.334 -52 137.001c0 53.333 19.167 96.666 57.5 129.999s86.833 50 145.5 50
c58 0 104.833 -16.5 140.5 -49.5s57.167 -77.833 64.5 -134.5l-98 -18c-6.66699 76 -42.334 114 -107 114c-30 0 -54.667 -8.33301 -74 -25s-29 -39.667 -29 -69c0 -26 8.5 -50.667 25.5 -74s47.5 -53.333 91.5 -90l158 -136c10.667 28.667 16 60.334 16 95.001v48h93v-48
c0 -58.667 -11.333 -111.667 -34 -159l107 -92zM314 73.999c52 0 97 17 135 51l-188 162l-21 18c-54 -27.333 -81 -65 -81 -113c0 -35.333 14.167 -63.833 42.5 -85.5s65.833 -32.5 112.5 -32.5z" />
    <glyph glyph-name="quotesingle" unicode="'" horiz-adv-x="211" 
d="M53 382v288h105v-288h-105z" />
    <glyph glyph-name="parenleft" unicode="(" horiz-adv-x="359" 
d="M239 753l73 -65.001c-56 -56.667 -95.333 -112.834 -118 -168.501s-34 -117.167 -34 -184.5s11.333 -128.666 34 -183.999s62 -111.666 118 -168.999l-73 -64c-127.333 115.333 -191 254.333 -191 417s63.667 302 191 418z" />
    <glyph glyph-name="parenright" unicode=")" horiz-adv-x="359" 
d="M48 688l73 65.002c127.333 -116 191 -255.333 191 -418s-63.667 -301.667 -191 -417l-73 64c56 57.333 95.333 113.666 118 168.999s34 116.666 34 183.999s-11.333 128.833 -34 184.5s-62 111.834 -118 168.5z" />
    <glyph glyph-name="asterisk" unicode="*" horiz-adv-x="437" 
d="M284 539l114 -66l-32 -56l-111 64v-123h-73v123l-111 -64l-32 56l114 66l-114 66l32 57l111 -64v122h73v-122l111 64l32 -57z" />
    <glyph glyph-name="plus" unicode="+" horiz-adv-x="580" 
d="M515 259h-179v-182h-92v182h-179v92h179v182h92v-182h179v-92z" />
    <glyph glyph-name="comma" unicode="," horiz-adv-x="231" 
d="M92 -132h-79l63 266h121v-3z" />
    <glyph glyph-name="hyphen" unicode="-" horiz-adv-x="446" 
d="M386 210h-326v90h326v-90z" />
    <glyph glyph-name="period" unicode="." horiz-adv-x="221" 
d="M111 123c18.667 0 34.167 -6.16699 46.5 -18.5s18.5 -27.166 18.5 -44.499c0 -18 -6.16699 -33.167 -18.5 -45.5s-27.833 -18.5 -46.5 -18.5s-34.334 6.16699 -47.001 18.5s-19 27.5 -19 45.5c0 17.333 6.33301 32.166 19 44.499s28.334 18.5 47.001 18.5z" />
    <glyph glyph-name="slash" unicode="/" horiz-adv-x="393" 
d="M384 741l-288 -813h-87l288 813h87z" />
    <glyph glyph-name="zero" unicode="0" horiz-adv-x="666" 
d="M333 684c84.667 0 153 -32.166 205 -96.499c52 -64.334 78 -148.501 78 -252.501s-26 -188.167 -78 -252.5s-120.333 -96.5 -205 -96.5s-153 32.167 -205 96.5s-78 148.5 -78 252.5s26 188.167 78 252.5s120.333 96.5 205 96.5zM333 85.001c52.667 0 94.833 23 126.5 69
s47.5 106.333 47.5 181s-15.833 135 -47.5 181s-73.834 69 -126.5 69c-52.667 0 -94.834 -23 -126.501 -69s-47.5 -106.333 -47.5 -181s15.833 -135 47.5 -181s73.834 -69 126.501 -69z" />
    <glyph glyph-name="one" unicode="1" horiz-adv-x="363" 
d="M281 670v-670h-104v543l-172 -92v97l210 122h66z" />
    <glyph glyph-name="two" unicode="2" horiz-adv-x="519" 
d="M485 97l-0.000976562 -97.002h-453v69l232 224c20.667 19.333 35.334 33.333 44.001 42s19.667 21.334 33 38.001s22.5 33 27.5 49s7.5 33.667 7.5 53c0 34.667 -11.333 62.667 -34 84s-52 32 -88 32c-39.333 0 -70.5 -12 -93.5 -36s-35.833 -59 -38.5 -105l-98 20
c2.66699 65.333 25 117.333 67 156s96.667 58 164 58c66.667 0 120.667 -19.167 162 -57.5c41.333 -38.334 62 -88.167 62 -149.499c0 -45.333 -11.5 -86 -34.5 -122s-61.833 -80 -116.5 -132l-132 -126h289z" />
    <glyph glyph-name="three" unicode="3" horiz-adv-x="578" 
d="M429 340c30.667 -11.333 54.665 -29.5 71.998 -54.5s26 -55.167 26 -90.5c0 -62.667 -21.5 -113.167 -64.5 -151.5s-99.167 -57.5 -168.5 -57.5s-126.333 19.667 -171 59s-69.667 91.333 -75 156l101 20c4.66699 -44 19.334 -78.5 44 -103.5
c24.667 -25 58.334 -37.5 101.001 -37.5c40 0 72.5 10.5 97.5 31.5s37.5 48.5 37.5 82.5c0 31.333 -11 56.333 -33 75s-52.667 28 -92 28h-72v86h66c36.667 0 65.667 9 87 27s32 42 32 72c0 32.668 -11.333 58.835 -34 78.501c-22.667 19.667 -52.667 29.5 -90 29.5
c-39.333 0 -71.333 -11.833 -96 -35.5s-38.334 -58.167 -41.001 -103.5l-99 20c5.33301 63.333 29.333 114.666 72 153.999s97.334 59 164.001 59s120.5 -18.667 161.5 -56s61.5 -86 61.5 -146c0 -33.333 -7.66699 -62.5 -23 -87.5s-36.666 -43.167 -63.999 -54.5z" />
    <glyph glyph-name="four" unicode="4" horiz-adv-x="618" 
d="M590 148h-94v-148h-105v148h-363v100l328 422h140v-434h94v-88zM391 236v326l-245 -326h245z" />
    <glyph glyph-name="five" unicode="5" horiz-adv-x="567" 
d="M180 419l119.999 0.00195312c68 0 122.5 -18.5 163.5 -55.5s61.5 -87.833 61.5 -152.5c0 -66.667 -22.167 -120.834 -66.5 -162.501s-102.833 -62.5 -175.5 -62.5c-70 0 -128.333 20.5 -175 61.5s-70 97.5 -70 169.5l104 20c0 -50 13.333 -88.167 40 -114.5
s61.334 -39.5 104.001 -39.5c40.667 0 73.5 11.5 98.5 34.5s37.5 53.5 37.5 91.5c0 35.333 -11.833 63.166 -35.5 83.499s-55.167 30.5 -94.5 30.5h-217l13 347h408v-97h-309z" />
    <glyph glyph-name="six" unicode="6" 
d="M329 434c70.667 0 126.832 -20.5 168.499 -61.5s62.5 -94.167 62.5 -159.5c0 -66 -22.333 -120.333 -67 -163s-102.334 -64 -173 -64c-83.333 0 -149.166 29.5 -197.499 88.5s-72.5 141.167 -72.5 246.5c0 130.667 30.333 226.667 91 288
c48.667 50 109.334 75 182.001 75c54.667 0 101.667 -13.333 141 -40s65.666 -64.334 78.999 -113.001l-103 -20c-16 52.667 -56.333 79 -121 79c-42.667 0 -79 -16 -109 -48c-42 -45.333 -61.667 -109.666 -59 -192.999c19.333 26 45 46.667 77 62s65.667 23 101 23z
M316.998 82c38 0 70.166 12.5 96.499 37.5s39.5 56.5 39.5 94.5s-13.167 69.333 -39.5 94s-58.5 37 -96.5 37s-70 -12.667 -96 -38s-39 -57 -39 -95c0 -37.333 13.333 -68.333 40 -93s58.334 -37 95.001 -37z" />
    <glyph glyph-name="seven" unicode="7" horiz-adv-x="499" 
d="M480 670v-76l-246 -594h-118l247 573h-344v97h461z" />
    <glyph glyph-name="eight" unicode="8" horiz-adv-x="572" 
d="M402 341c43.333 -13.333 76.501 -34.667 99.501 -64s34.5 -62 34.5 -98c0 -57.333 -23 -103.833 -69 -139.5s-106 -53.5 -180 -53.5c-74.667 0 -135.167 17.833 -181.5 53.5s-69.5 82.167 -69.5 139.5c0 36 11.667 68.667 35 98c23.333 29.334 56.666 50.667 99.999 64
c-37.333 14 -65.833 35.167 -85.5 63.5c-19.667 28.334 -29.5 61.167 -29.5 98.5c0 54 21.167 97.667 63.5 131s98.166 50 167.499 50c68.667 0 124 -16.667 166 -50s63 -77 63 -131c0 -36.667 -9.66699 -69.334 -29 -98c-19.333 -28.667 -47.666 -50 -84.999 -64z
M286.001 596.999c-36 0 -65.501 -9.16699 -88.501 -27.5s-34.5 -43.5 -34.5 -75.5c0 -31.333 11.333 -56 34 -74s52 -27 88 -27c36.667 0 66.834 9.33301 90.501 28s35.5 43.667 35.5 75c0 30.667 -12 55.167 -36 73.5s-53.667 27.5 -89 27.5zM285 76.999
c38 0 69.833 9.66699 95.5 29s38.5 46 38.5 80c0 32.667 -12.5 58.667 -37.5 78s-56.833 29 -95.5 29s-70.167 -9.66699 -94.5 -29s-36.5 -46 -36.5 -80c0 -33.333 12.167 -59.5 36.5 -78.5s55.5 -28.5 93.5 -28.5z" />
    <glyph glyph-name="nine" unicode="9" 
d="M291 684c83.333 0 148.999 -29.501 196.999 -88.501s72 -141.167 72 -246.5c0 -130 -30 -226 -90 -288c-48.667 -50 -109.334 -75 -182 -75c-55.333 0 -102.5 13.333 -141.5 40s-65.5 64.334 -79.5 113.001l103 20c16.667 -52 57.334 -78 122.001 -78
c42.667 0 78.667 15.667 108 47c42 46 61.667 110.667 59 194c-18.667 -26 -43.834 -46.667 -75.5 -62c-31.667 -15.333 -65.5 -23 -101.5 -23c-70.667 0 -127 20.5 -169 61.5s-63 93.833 -63 158.5c0 66 22.333 120.333 67 163s102.667 64 174 64zM292.999 324.999
c38.667 0 70.832 12.666 96.499 37.999s38.5 57 38.5 95s-13.167 69.167 -39.5 93.5s-58.166 36.5 -95.499 36.5c-38 0 -70.167 -12.667 -96.5 -38s-39.5 -56.666 -39.5 -93.999s13.167 -68.5 39.5 -93.5s58.5 -37.5 96.5 -37.5z" />
    <glyph glyph-name="colon" unicode=":" horiz-adv-x="221" 
d="M111 473c18.667 0 34.167 -6.16699 46.5 -18.5s18.5 -27.166 18.5 -44.499c0 -18 -6.16699 -33 -18.5 -45s-27.833 -18 -46.5 -18s-34.334 6 -47.001 18s-19 27 -19 45c0 17.334 6.33301 32.167 19 44.499c12.667 12.333 28.334 18.5 47.001 18.5zM111 123
c18.667 0 34.167 -6.16699 46.5 -18.5s18.5 -27.166 18.5 -44.499c0 -18 -6.16699 -33.167 -18.5 -45.5s-27.833 -18.5 -46.5 -18.5s-34.334 6.16699 -47.001 18.5s-19 27.5 -19 45.5c0 17.333 6.33301 32.166 19 44.499s28.334 18.5 47.001 18.5z" />
    <glyph glyph-name="semicolon" unicode=";" horiz-adv-x="251" 
d="M140 473c18.667 0 34.334 -6.16699 47.001 -18.5s19 -27.166 19 -44.499c0 -18 -6.33301 -33 -19 -45s-28.334 -18 -47.001 -18s-34.167 6 -46.5 18s-18.5 27 -18.5 45c0 17.334 6.16699 32.167 18.5 44.499c12.333 12.333 27.833 18.5 46.5 18.5zM92 -132h-79l63 266
h121v-3z" />
    <glyph glyph-name="less" unicode="&#x3c;" horiz-adv-x="443" 
d="M405 118l-373 150v108l373 152v-111l-250 -94l250 -96v-109z" />
    <glyph glyph-name="equal" unicode="=" horiz-adv-x="580" 
d="M515 371h-450v91h450v-91zM515 178h-450v91h450v-91z" />
    <glyph glyph-name="greater" unicode="&#x3e;" horiz-adv-x="443" 
d="M290 323l-250 94v111l373 -152v-108l-373 -150v109z" />
    <glyph glyph-name="question" unicode="?" horiz-adv-x="528" 
d="M272 684c68 0 122.834 -19.6689 164.501 -59.002c41.667 -39.334 62.5 -90.667 62.5 -153.999c0 -52 -17.667 -95.333 -53 -130s-82 -55 -140 -61v-66h-96v146h60c37.333 0 68 10.333 92 31s36 47.334 36 80.001c0 35.333 -11.667 64.166 -35 86.499
s-53.666 33.5 -90.999 33.5c-38.667 0 -70.5 -12.333 -95.5 -37s-39.833 -57.667 -44.5 -99l-99 19c3.33301 58.668 27.166 108.335 71.499 149.001c44.333 40.667 100.166 61 167.499 61zM257.001 122.998c18.667 0 34.168 -6.16699 46.501 -18.5
s18.5 -27.166 18.5 -44.499c0 -18 -6.16699 -33.167 -18.5 -45.5s-27.833 -18.5 -46.5 -18.5s-34.334 6.16699 -47.001 18.5s-19 27.5 -19 45.5c0 17.333 6.33301 32.166 19 44.499s28.334 18.5 47 18.5z" />
    <glyph glyph-name="at" unicode="@" horiz-adv-x="951" 
d="M663 473l0.00195312 -288.998c0 -18 6.16699 -32.333 18.5 -43s27.833 -16 46.5 -16c32 0 56.167 17.667 72.5 53s24.5 76 24.5 122c0 94 -33.167 171.167 -99.5 231.5c-66.334 60.333 -148.167 90.5 -245.5 90.5c-101.333 0 -185.666 -32.833 -252.999 -98.5
s-101 -148.167 -101 -247.5c0 -98.667 33.333 -180.834 100 -246.501s147.667 -98.5 243 -98.5c91.333 0 172 25.333 242 76l35 -55c-34.667 -26.667 -76.834 -47.5 -126.501 -62.5s-99.167 -22.5 -148.5 -22.5c-115.333 0 -213 38.667 -293 116s-120 174.666 -120 291.999
s40.167 214.833 120.5 292.5s180.833 116.5 301.5 116.5c115.333 0 213.166 -36 293.499 -108s120.5 -162.333 120.5 -271c0 -40 -5.33301 -77.5 -16 -112.5s-29.834 -65.333 -57.501 -91s-61.834 -38.5 -102.501 -38.5c-60.667 0 -99.667 23 -117 69
c-33.333 -44 -82 -66 -146 -66c-57.333 0 -105.166 19 -143.499 57s-57.5 87.667 -57.5 149c0 62.667 19.333 113.167 58 151.5s86.334 57.5 143.001 57.5c57.333 0 103.666 -20.333 138.999 -61v53h69zM465.002 136.002c35.333 0 65.666 12.5 90.999 37.5
s38 58.167 38 99.5c0 40.667 -12.667 73.5 -38 98.5s-55.666 37.5 -90.999 37.5c-36 0 -66.667 -12.333 -92 -37s-38 -57.667 -38 -99s12.833 -74.5 38.5 -99.5s56.167 -37.5 91.5 -37.5z" />
    <glyph glyph-name="A" unicode="A" horiz-adv-x="700" 
d="M695 0h-116l-66 156h-326l-66 -156h-116l295 670h100zM471 254l-121 285l-121 -285h242z" />
    <glyph glyph-name="B" unicode="B" horiz-adv-x="664" 
d="M491 345l-0.000976562 -4c34.668 -4 64.335 -20 89.001 -48c24.667 -28 37 -64.333 37 -109c0 -56 -18.167 -100.667 -54.5 -134c-36.334 -33.333 -88.834 -50 -157.5 -50h-326v670h319c60.667 0 109 -16.5 145 -49.5s54 -76.833 54 -131.5
c0 -39.333 -10.833 -72 -32.5 -98s-46.167 -41.333 -73.5 -46zM185.999 578v-198h200c32 0 57.833 9.5 77.5 28.5s29.5 43.833 29.5 74.5c0 28 -9.83301 50.833 -29.5 68.5s-45.167 26.5 -76.5 26.5h-201zM185.999 92l208 -0.000976562c35.333 0 63 9.33301 83 28
s30 43.334 30 74.001c0 30 -10.167 54.167 -30.5 72.5s-46.833 27.5 -79.5 27.5h-211v-202z" />
    <glyph glyph-name="C" unicode="C" horiz-adv-x="770" 
d="M397 87c54 0 100.669 14.333 140.002 43s66.333 70.667 81 126l104 -22c-18 -77.333 -56.667 -138 -116 -182c-59.334 -44 -129.001 -66 -209.001 -66c-97.333 0 -179.833 33.667 -247.5 101s-101.5 150 -101.5 248c0 97.334 33.833 179.834 101.5 247.5
c67.667 67.667 150.167 101.5 247.5 101.5c79.333 0 148.666 -21.667 207.999 -65c59.333 -43.334 98.333 -101.667 117 -175l-104 -30c-14.667 55.333 -41.667 97.333 -81 126s-86 43 -140 43c-68 0 -125.167 -23.833 -171.5 -71.5s-69.5 -106.5 -69.5 -176.5
s23.167 -128.833 69.5 -176.5s103.5 -71.5 171.5 -71.5z" />
    <glyph glyph-name="D" unicode="D" horiz-adv-x="730" 
d="M79 670h234c112.667 0 202.5 -31.167 269.5 -93.5c67 -62.334 100.5 -142.834 100.5 -241.5c0 -98.667 -33.5 -179.167 -100.5 -241.5s-156.833 -93.5 -269.5 -93.5h-234v670zM186 97h127c80 0 143.667 22 191 66s71 101.333 71 172s-23.667 128 -71 172s-111 66 -191 66
h-127v-476z" />
    <glyph glyph-name="E" unicode="E" horiz-adv-x="636" 
d="M578 97v-97h-499v670h498v-97h-391v-189h361v-96h-361v-191h392z" />
    <glyph glyph-name="F" unicode="F" horiz-adv-x="593" 
d="M186 573v-199h346v-97h-346v-277h-107v670h490v-97h-383z" />
    <glyph glyph-name="G" unicode="G" horiz-adv-x="786" 
d="M367 380l368.999 -0.000976562c1.33301 -24 2 -39.333 2 -46c0 -99.333 -31.667 -182.166 -95 -248.499s-144.333 -99.5 -243 -99.5s-182 33.667 -250 101s-102 150 -102 248c0 97.334 33.667 179.834 101 247.5c67.333 67.667 150 101.5 248 101.5
c73.333 0 139 -17.333 197 -52s98.667 -83.334 122 -146.001l-97 -34c-42.667 87.333 -116.667 131 -222 131c-67.333 0 -124.166 -23.833 -170.499 -71.5s-69.5 -106.5 -69.5 -176.5c0 -70.667 23.667 -129.667 71 -177c47.334 -47.333 105.667 -71 175 -71
c60.667 0 111.667 17.833 153 53.5s67 82.834 77 141.501h-266v98z" />
    <glyph glyph-name="H" unicode="H" horiz-adv-x="734" 
d="M655 670v-670h-107v288h-362v-288h-107v670h107v-284h362v284h107z" />
    <glyph glyph-name="I" unicode="I" horiz-adv-x="265" 
d="M186 0h-107v670h107v-670z" />
    <glyph glyph-name="J" unicode="J" horiz-adv-x="596" 
d="M524 670v-430c0 -74.667 -23.5 -135.667 -70.5 -183s-108.167 -71 -183.5 -71c-68.667 0 -125.167 19.833 -169.5 59.5s-71.5 92.5 -81.5 158.5l102 21c6 -42.667 21.833 -77 47.5 -103s59.5 -39 101.5 -39c43.333 0 78.5 14.667 105.5 44s40.5 67 40.5 113v430h108z" />
    <glyph glyph-name="K" unicode="K" horiz-adv-x="676" 
d="M663 0h-145l-295 282h-37v-282h-107v670h107v-290h29l293 290h133l-335 -336z" />
    <glyph glyph-name="L" unicode="L" horiz-adv-x="589" 
d="M552 97v-97h-473v670h107v-573h366z" />
    <glyph glyph-name="M" unicode="M" horiz-adv-x="892" 
d="M813 670v-670h-104v428l-230 -428h-66l-230 428v-428h-104v670h94l273 -507l274 507h93z" />
    <glyph glyph-name="N" unicode="N" horiz-adv-x="761" 
d="M682 670v-670h-91l-405 481v-481h-107v670h91l404 -489v489h108z" />
    <glyph glyph-name="O" unicode="O" horiz-adv-x="794" 
d="M397 684c98 0 180.833 -33.999 248.5 -101.999s101.5 -150.667 101.5 -248s-33.833 -179.666 -101.5 -246.999s-150.5 -101 -248.5 -101s-180.667 33.667 -248 101s-101 149.666 -101 246.999c0 98 33.667 180.833 101 248.499c67.333 67.667 150 101.5 248 101.5z
M397 87.001c68 0 125.334 23.666 172 70.999c46.667 47.333 70 106 70 176c0 70.667 -23.333 129.834 -70 177.501s-104 71.5 -172 71.5s-125.167 -23.833 -171.5 -71.5s-69.5 -106.834 -69.5 -177.5c0 -70 23.167 -128.667 69.5 -176s103.5 -71 171.5 -71z" />
    <glyph glyph-name="P" unicode="P" horiz-adv-x="658" 
d="M79 670l302 0.000976562c73.334 0 131.834 -19.833 175.5 -59.5c43.667 -39.667 65.5 -91.834 65.5 -156.501c0 -65.333 -21.833 -118 -65.5 -158s-102.167 -60 -175.5 -60h-195v-236h-107v670zM186 334.001l195 -0.000976562c41.333 0 74 10.833 98 32.5
s36 50.834 36 87.501c0 35.333 -12 64 -36 86s-56.667 33 -98 33h-195v-239z" />
    <glyph glyph-name="Q" unicode="Q" horiz-adv-x="794" 
d="M666 -162l-145 170.003c-40 -14.667 -81.333 -22 -124 -22c-98 0 -180.667 33.667 -248 101s-101 149.666 -101 246.999c0 98 33.667 180.833 101 248.499c67.333 67.667 150 101.5 248 101.5s180.833 -34 248.5 -102s101.5 -150.667 101.5 -248
c0 -53.333 -11.167 -103.333 -33.5 -150c-22.335 -46.667 -53.168 -86.334 -92.5 -119.001l128 -152zM156 334.003c0 -70 23.168 -128.668 69.501 -176.001s103.5 -71 171.5 -71s125.333 23.667 171.999 71c46.667 47.333 70 106 70 176
c0 70.667 -23.333 129.834 -70 177.501s-104 71.5 -172 71.5s-125.167 -23.833 -171.5 -71.5s-69.5 -106.834 -69.5 -177.5z" />
    <glyph glyph-name="R" unicode="R" horiz-adv-x="672" 
d="M655 0l-132.999 -0.00195312l-239 267h-97v-267h-107v670h315c68.667 0 124.167 -18.5 166.5 -55.5s63.5 -85.833 63.5 -146.5c0 -57.333 -19.167 -104.166 -57.5 -140.499c-38.334 -36.333 -89.501 -56.166 -153.501 -59.499zM186.001 363.998l207.999 0.000976562
c36.667 0 66.334 9.5 89.001 28.5s34 44.167 34 75.5s-11.333 56.666 -34 75.999s-52.334 29 -89 29h-208v-209z" />
    <glyph glyph-name="S" unicode="S" horiz-adv-x="634" 
d="M313 684c67.334 0 124.167 -16.998 170.5 -50.998s75.5 -80 87.5 -138l-107 -22c-6 35.333 -23 63.833 -51 85.5s-62 32.5 -102 32.5c-39.333 0 -71 -9.5 -95 -28.5s-36 -43.5 -36 -73.5c0 -23.333 6.83301 -41.666 20.5 -54.999s35.167 -23 64.5 -29l145 -31
c114.667 -25.333 172 -86.333 172 -183c0 -62.667 -23.5 -112.5 -70.5 -149.5s-109.167 -55.5 -186.5 -55.5c-74 0 -136.667 17.5 -188 52.5s-81 83.833 -89 146.5l114 24c8 -42 27.333 -73.833 58 -95.5s69 -32.5 115 -32.5c44 0 78.5 9.5 103.5 28.5
s37.5 44.167 37.5 75.5c0 25.333 -7.16699 44.666 -21.5 57.999c-14.333 13.334 -38.5 23.667 -72.5 30.999l-146 30c-112.667 26 -169 86.667 -169 182c0 59.333 22.5 107.166 67.5 143.499s104.5 54.5 178.5 54.5z" />
    <glyph glyph-name="T" unicode="T" horiz-adv-x="625" 
d="M602 573h-236v-573h-108v573h-235v97h579v-97z" />
    <glyph glyph-name="U" unicode="U" horiz-adv-x="716" 
d="M644 670v-373.999c0 -92.667 -26 -167.5 -78 -224.5s-120.333 -85.5 -205 -85.5c-86.667 0 -156.5 28.5 -209.5 85.5s-79.5 131.833 -79.5 224.5v374h107v-374c0 -62.667 16.667 -112.834 50 -150.501s77.333 -56.5 132 -56.5c52.667 0 95.167 19 127.5 57
s48.5 88 48.5 150v374h107z" />
    <glyph glyph-name="V" unicode="V" horiz-adv-x="712" 
d="M699 670l-291 -670h-103l-291 670h118l224 -525l224 525h119z" />
    <glyph glyph-name="W" unicode="W" horiz-adv-x="958" 
d="M944 670l-201 -670h-114l-150 498l-151 -498h-114l-200 670h112l147 -505l154 505h103l154 -505l147 505h113z" />
    <glyph glyph-name="X" unicode="X" horiz-adv-x="647" 
d="M502 0l-178 266l-179 -266h-131l228 336l-226 334h131l177 -263l176 263h131l-227 -334l229 -336h-131z" />
    <glyph glyph-name="Y" unicode="Y" horiz-adv-x="681" 
d="M392 224v-224h-107v222l-271 448h119l206 -336l205 336h123z" />
    <glyph glyph-name="Z" unicode="Z" horiz-adv-x="625" 
d="M579 92v-92h-526v69l384 509h-373v92h510v-80l-369 -498h374z" />
    <glyph glyph-name="bracketleft" unicode="[" horiz-adv-x="398" 
d="M180 651v-643h171v-90h-272v823h272v-90h-171z" />
    <glyph glyph-name="backslash" unicode="\" horiz-adv-x="393" 
d="M384 -72h-87l-288 813h87z" />
    <glyph glyph-name="bracketright" unicode="]" horiz-adv-x="398" 
d="M319 741v-823h-271v90h171v643h-171v90h271z" />
    <glyph glyph-name="asciicircum" unicode="^" horiz-adv-x="419" 
d="M115 444h-92l150 226h74l150 -226h-93l-94 140z" />
    <glyph glyph-name="underscore" unicode="_" horiz-adv-x="523" 
d="M503 -143h-483v87h483v-87z" />
    <glyph glyph-name="grave" unicode="`" horiz-adv-x="600" 
d="M279 709l73 -142h-90l-105 142h122z" />
    <glyph glyph-name="a" unicode="a" horiz-adv-x="643" 
d="M564 496l-0.00195312 -496h-104v57c-45.333 -47.333 -105.333 -71 -180 -71c-67.333 0 -125.166 24.5 -173.499 73.5s-72.5 111.833 -72.5 188.5c0 76 24.333 138.667 73 188s106.334 74 173.001 74c74.667 0 134.667 -23.667 180 -71v57h104zM296.998 78
c43.333 0 81.333 15.833 114 47.5s49 72.5 49 122.5s-16.333 90.833 -49 122.5s-70.667 47.5 -114 47.5c-46.667 0 -85.334 -15.5 -116.001 -46.5s-46 -72.167 -46 -123.5s15.333 -92.5 46 -123.5s69.334 -46.5 116.001 -46.5z" />
    <glyph glyph-name="b" unicode="b" horiz-adv-x="645" 
d="M363 510c66.667 0 124.332 -24.667 172.999 -74s73 -112 73 -188c0 -76.667 -24.167 -139.5 -72.5 -188.5s-106.166 -73.5 -173.499 -73.5c-74.667 0 -134.667 23.667 -180 71v-57h-104v720h104v-281c45.333 47.333 105.333 71 180 71zM345.998 78
c46.667 0 85.333 15.5 116 46.5s46 72.167 46 123.5s-15.333 92.5 -46 123.5s-69.334 46.5 -116 46.5c-43.333 0 -81.333 -15.833 -114 -47.5s-49 -72.5 -49 -122.5s16.333 -90.833 49 -122.5s70.667 -47.5 114 -47.5z" />
    <glyph glyph-name="c" unicode="c" horiz-adv-x="577" 
d="M298 82c74 0 122.665 34.667 145.998 104l96 -25c-13.334 -52.667 -42.501 -95 -87.5 -127c-45 -32 -96.5 -48 -154.5 -48c-72.667 0 -134.5 24.5 -185.5 73.5s-76.5 111.833 -76.5 188.5c0 76 25.5 138.667 76.5 188s112.833 74 185.5 74
c56.667 0 107.334 -15.833 152.001 -47.5s74.667 -73.834 90 -126.5l-100 -29c-9.33301 35.333 -26.666 62 -51.999 80s-55.333 27 -90 27c-46 0 -84.167 -15.5 -114.5 -46.5s-45.5 -70.833 -45.5 -119.5c0 -50 15 -90.167 45 -120.5s68.333 -45.5 115 -45.5z" />
    <glyph glyph-name="d" unicode="d" horiz-adv-x="645" 
d="M567 720v-720h-105v56c-46.667 -46.667 -106.667 -70 -180 -70c-66.667 0 -124.334 24.667 -173.001 74s-73 112 -73 188s24.333 138.667 73 188s106.334 74 173.001 74c74 0 134 -23.667 180 -71v281h105zM299 78c43.333 0 81.333 15.667 114 47s49 72.333 49 123
c0 50 -16.333 90.833 -49 122.5s-70.667 47.5 -114 47.5c-46 0 -84.333 -15.667 -115 -47s-46 -72.333 -46 -123c0 -51.333 15.333 -92.5 46 -123.5s69 -46.5 115 -46.5z" />
    <glyph glyph-name="e" unicode="e" horiz-adv-x="577" 
d="M541 259l-0.00292969 -36.001h-402c4.66699 -44.667 21.334 -80.334 50.001 -107.001s62 -40 100 -40c68.667 0 117.334 28.667 146.001 86l93 -20c-20 -51.333 -50.833 -90.166 -92.5 -116.499s-90.5 -39.5 -146.5 -39.5c-69.333 0 -128.833 24.333 -178.5 73
s-74.5 111.334 -74.5 188.001c0 77.333 24.833 140.5 74.5 189.5s110.5 73.5 182.5 73.5c67.333 0 124.833 -23.5 172.5 -70.5c47.668 -47 72.835 -107.167 75.501 -180.5zM292.997 417.999c-34.667 0 -66.6689 -10.667 -96.002 -32s-47.666 -51 -54.999 -89h292
c-8 39.333 -24.667 69.333 -50 90s-55.666 31 -90.999 31z" />
    <glyph glyph-name="f" unicode="f" horiz-adv-x="363" 
d="M370 410l-164.999 0.000976562v-410h-104v410h-81v86h81v59c0 55.333 16.667 99.166 50 131.499s77.666 48.5 132.999 48.5c29.334 0 57.667 -6 85 -18l-25 -85c-17.333 6.66699 -35 10 -53 10c-26 0 -46.833 -7.66699 -62.5 -23
c-15.667 -15.335 -23.5 -36.668 -23.5 -64v-59h165v-86z" />
    <glyph glyph-name="g" unicode="g" horiz-adv-x="630" 
d="M551 496l0.00292969 -452.001c0 -73.333 -23.167 -130.666 -69.5 -171.999s-108.833 -62 -187.5 -62c-118.667 0 -199.334 39.667 -242.001 119l85 63c19.333 -30.667 40.833 -53 64.5 -67s54.5 -21 92.5 -21c47.334 0 85.167 13.833 113.5 41.5s42.5 65.5 42.5 113.5v32
c-39.333 -41.333 -96.333 -62 -171 -62c-64.667 0 -121.334 23.333 -170.001 70s-73 103.667 -73 171s24.167 124 72.5 170s105.166 69 170.499 69c74.667 0 131.667 -20.667 171 -62v49h101zM296.003 118.999c42 0 78.167 14.167 108.5 42.5s45.5 64.5 45.5 108.5
c0 44.667 -15.167 81 -45.5 109s-66.5 42 -108.5 42c-45.333 0 -83.166 -13.833 -113.499 -41.5s-45.5 -64.167 -45.5 -109.5c0 -44.667 15.167 -81 45.5 -109s68.166 -42 113.499 -42z" />
    <glyph glyph-name="h" unicode="h" horiz-adv-x="621" 
d="M355 510c59.333 0 107.333 -19.501 144 -58.501s55 -89.5 55 -151.5v-300h-105v279c0 40.667 -10.833 73.334 -32.5 98.001s-50.167 37 -85.5 37c-46 0 -82.167 -15.667 -108.5 -47s-39.5 -77.333 -39.5 -138v-229h-104v720h104v-285c42 50 99.333 75 172 75z" />
    <glyph glyph-name="i" unicode="i" horiz-adv-x="277" 
d="M139 710c18.667 0 34.334 -6.33301 47 -19c12.667 -12.667 19 -28 19 -46c0 -18.667 -6.16699 -34 -18.5 -46c-12.334 -12 -28.167 -18 -47.5 -18s-35.333 6 -48 18s-19 27.333 -19 46c0 18 6.33301 33.333 19 46s28.667 19 48 19zM191 0h-104v496h104v-496z" />
    <glyph glyph-name="j" unicode="j" horiz-adv-x="291" 
d="M152 710c18.667 0 34.498 -6.33301 47.498 -19s19.5 -28 19.5 -46c0 -18.667 -6.33301 -34 -19 -46s-28.667 -18 -48 -18s-35.166 6 -47.499 18s-18.5 27.333 -18.5 46c0 18 6.33301 33.333 19 46s28.334 19 47.001 19zM-21.002 -162l20.001 91
c18 -7.33301 33.667 -11 47 -11c16.667 0 30.167 4.66699 40.5 14s15.5 21.333 15.5 36v528h104v-542c0 -40 -12.333 -72.333 -37 -97s-57.334 -37 -98.001 -37c-31.333 0 -62 6 -92 18z" />
    <glyph glyph-name="k" unicode="k" horiz-adv-x="586" 
d="M583 0h-141l-229 206h-30v-206h-104v720h104v-411h31l207 187h133l-260 -240z" />
    <glyph glyph-name="l" unicode="l" horiz-adv-x="262" 
d="M183 0h-104v720h104v-720z" />
    <glyph glyph-name="m" unicode="m" horiz-adv-x="948" 
d="M692 510c52.667 0 97.168 -17.998 133.501 -53.998s54.5 -82.667 54.5 -140v-316h-103v295c0 36 -10.5 64.833 -31.5 86.5s-47.833 32.5 -80.5 32.5c-41.333 0 -74 -14.333 -98 -43s-36 -70.334 -36 -125.001v-246h-104v295c0 36 -10.5 64.833 -31.5 86.5
s-47.833 32.5 -80.5 32.5c-40.667 0 -72.834 -14.333 -96.501 -43s-35.5 -70.334 -35.5 -125.001v-246h-104v496h104v-56c38 46.667 91 70 159 70c36 0 68.5 -8 97.5 -24s51.5 -38.333 67.5 -67c43.333 60.667 105 91 185 91z" />
    <glyph glyph-name="n" unicode="n" horiz-adv-x="620" 
d="M355 510c59.333 0 107.333 -19.501 144 -58.501s55 -89.5 55 -151.5v-300h-105v279c0 40.667 -10.833 73.334 -32.5 98.001s-50.167 37 -85.5 37c-46 0 -82.167 -15.667 -108.5 -47s-39.5 -77.333 -39.5 -138v-229h-104v496h104v-61c42 50 99.333 75 172 75z" />
    <glyph glyph-name="o" unicode="o" horiz-adv-x="605" 
d="M303 507c74.667 0 137.5 -24.167 188.5 -72.5s76.5 -110.5 76.5 -186.5s-25.667 -138.333 -77 -187s-114 -73 -188 -73c-74.667 0 -137.834 24.333 -189.501 73s-77.5 111 -77.5 187s25.833 138.167 77.5 186.5s114.834 72.5 189.501 72.5zM303 78
c44 0 82.333 15.833 115 47.5s49 72.5 49 122.5s-16.333 90.833 -49 122.5s-71 47.5 -115 47.5c-45.333 0 -84.166 -15.833 -116.499 -47.5s-48.5 -72.5 -48.5 -122.5s16.167 -90.833 48.5 -122.5s71.166 -47.5 116.499 -47.5z" />
    <glyph glyph-name="p" unicode="p" horiz-adv-x="645" 
d="M363 510c66.667 0 124.332 -24.667 172.999 -74s73 -112 73 -188c0 -76.667 -24.167 -139.5 -72.5 -188.5s-106.166 -73.5 -173.499 -73.5c-74.667 0 -134.667 23.667 -180 71v-227h-104v666h104v-57c45.333 47.333 105.333 71 180 71zM345.998 78
c46.667 0 85.333 15.5 116 46.5s46 72.167 46 123.5s-15.333 92.5 -46 123.5s-69.334 46.5 -116 46.5c-43.333 0 -81.333 -15.833 -114 -47.5s-49 -72.5 -49 -122.5s16.333 -90.833 49 -122.5s70.667 -47.5 114 -47.5z" />
    <glyph glyph-name="q" unicode="q" horiz-adv-x="645" 
d="M567 496v-666h-105v226c-46.667 -46.667 -106.667 -70 -180 -70c-66.667 0 -124.334 24.667 -173.001 74s-73 112 -73 188s24.333 138.667 73 188s106.334 74 173.001 74c74 0 134 -23.667 180 -71v57h105zM299 78c43.333 0 81.333 15.667 114 47s49 72.333 49 123
c0 50 -16.333 90.833 -49 122.5s-70.667 47.5 -114 47.5c-46 0 -84.333 -15.667 -115 -47s-46 -72.333 -46 -123c0 -51.333 15.333 -92.5 46 -123.5s69 -46.5 115 -46.5z" />
    <glyph glyph-name="r" unicode="r" horiz-adv-x="420" 
d="M372 502c14.667 0 26.333 -1.33301 35 -4l-7 -100c-5.33301 0.666992 -15 1 -29 1c-61.333 0 -108 -19.833 -140 -59.5s-48 -94.5 -48 -164.5v-175h-104v496h104v-106c45.333 74.667 108.333 112 189 112z" />
    <glyph glyph-name="s" unicode="s" horiz-adv-x="504" 
d="M37 133l104.001 21.999c3.33301 -28 16.166 -49 38.499 -63s50.833 -21 85.5 -21c30 0 53.833 6 71.5 18s26.5 28 26.5 48c0 29.333 -22.333 49 -67 59l-108 22c-90 20 -135 65 -135 135c0 46.667 17.833 84.5 53.5 113.5s83.167 43.5 142.5 43.5
c56 0 102.5 -13.167 139.5 -39.5s60.167 -60.833 69.5 -103.5l-99 -21c-4 24.667 -16 44.334 -36 59.001s-45.667 22 -77 22c-28.667 0 -50.5 -6.16699 -65.5 -18.5s-22.5 -27.833 -22.5 -46.5c0 -28 20 -46.667 60 -56l118 -26c40.667 -8.66699 72.334 -24.5 95.001 -47.5
s34 -51.833 34 -86.5c0 -50.667 -19 -90 -57 -118s-88.667 -42 -152 -42c-58.667 0 -108.334 12.5 -149.001 37.5s-64 61.5 -70 109.5z" />
    <glyph glyph-name="t" unicode="t" horiz-adv-x="414" 
d="M377 111l32 -87c-42.667 -25.333 -83.667 -38 -123 -38c-55.333 0 -99 15.5 -131 46.5s-48 76.5 -48 136.5v241h-107v86h107v154h104v-154h170v-86h-170v-234c0 -30 7.33301 -52.833 22 -68.5s34.667 -23.5 60 -23.5c28.667 0 56.667 9 84 27z" />
    <glyph glyph-name="u" unicode="u" horiz-adv-x="620" 
d="M541 496v-496h-104v61c-42 -50 -99 -75 -171 -75c-60 0 -108.167 19.5 -144.5 58.5s-54.5 89.833 -54.5 152.5v299h104v-278c0 -40.667 10.833 -73.5 32.5 -98.5s50.5 -37.5 86.5 -37.5c46 0 82 15.667 108 47s39 77.333 39 138v229h104z" />
    <glyph glyph-name="v" unicode="v" horiz-adv-x="565" 
d="M552 497l-214 -497h-111l-213 497h113l156 -373l156 373h113z" />
    <glyph glyph-name="w" unicode="w" horiz-adv-x="778" 
d="M764 496l-166 -498h-95l-114 334l-114 -334h-95l-166 498h104l113 -345l117 345h82l117 -345l113 345h104z" />
    <glyph glyph-name="x" unicode="x" horiz-adv-x="584" 
d="M369 243l178 -243h-125l-130 179l-130 -179h-124l178 243l-178 254h124l130 -188l130 188h125z" />
    <glyph glyph-name="y" unicode="y" horiz-adv-x="573" 
d="M560 497l-297 -667h-116l81 182l-214 485h116l155 -358l159 358h116z" />
    <glyph glyph-name="z" unicode="z" horiz-adv-x="515" 
d="M475 86v-86h-435v69l295 341h-287v86h415v-70l-295 -340h307z" />
    <glyph glyph-name="braceleft" unicode="{" horiz-adv-x="427" 
d="M238 603v-165.001c0 -53.333 -22.333 -89.666 -67 -108.999c44.667 -18.667 67 -55 67 -109v-165c0 -14.667 4.33301 -26.5 13 -35.5s20 -13.5 34 -13.5h94v-88h-106c-41.333 0 -74.333 11.5 -99 34.5s-37 53.833 -37 92.5v163c0 39.333 -26 64 -78 74l-26 8v78l26 8
c52 11.333 78 36 78 74v163c0 38.667 12.5 69.667 37.5 93s57.833 35 98.5 35h106v-88h-94c-14 0 -25.333 -4.66699 -34 -14s-13 -21.333 -13 -36z" />
    <glyph glyph-name="bar" unicode="|" horiz-adv-x="258" 
d="M180 -72h-101v813h101v-813z" />
    <glyph glyph-name="braceright" unicode="}" horiz-adv-x="427" 
d="M394 368v-78l-26 -8c-52 -10 -78 -34.667 -78 -74v-163c0 -38.667 -12.333 -69.5 -37 -92.5s-57.667 -34.5 -99 -34.5h-106v88h94c14 0 25.333 4.5 34 13.5s13 20.833 13 35.5v165c0 54 22.333 90.333 67 109c-44.667 19.334 -67 55.667 -67 109v165
c0 14.667 -4.33301 26.667 -13 36s-20 14 -34 14h-94v88h106c40.667 0 73.5 -11.667 98.5 -35s37.5 -54.333 37.5 -93v-163c0 -38 26 -62.667 78 -74z" />
    <glyph glyph-name="asciitilde" unicode="~" horiz-adv-x="488" 
d="M129 234h-81.999c0 48.667 12 84 36 106s51.667 33 83 33c27.333 0 54.833 -8.66699 82.5 -26s48.5 -26 62.5 -26s25 4.83301 33 14.5s11.333 22.5 10 38.5h88c0 -50 -12.667 -86.333 -38 -109s-54 -34 -86 -34c-28 0 -55.5 8.66699 -82.5 26s-46.833 26 -59.5 26
c-15.333 0 -27.333 -4.5 -36 -13.5s-12.334 -20.833 -11.001 -35.5z" />
    <glyph glyph-name="exclamdown" unicode="&#xa1;" horiz-adv-x="279" 
d="M139 381c-18.667 0 -34.167 6.33301 -46.5 19s-18.5 27.667 -18.5 45c0 18 6.16699 33 18.5 45s27.833 18 46.5 18s34.334 -6 47.001 -18s19 -27 19 -45c0 -17.333 -6.33301 -32.333 -19 -45s-28.334 -19 -47.001 -19zM83 -135l4 431h106l4 -431v-31h-114v31z" />
    <glyph glyph-name="cent" unicode="&#xa2;" horiz-adv-x="577" 
d="M332 411v-325.999c55.334 10.667 92.667 44.334 112 101.001l96 -25c-12 -46.667 -36.5 -85.334 -73.5 -116.001s-80.5 -49.334 -130.5 -56.001v-119h-88v120c-61.333 11.333 -112 40.333 -152 87s-60 103.667 -60 171c0 66.667 20.167 123.5 60.5 170.5
s90.833 75.833 151.5 86.5v125h88v-123c48.667 -6.66699 91.5 -25.167 128.5 -55.5s62.167 -68.833 75.5 -115.5l-100 -29c-15.333 58 -51.333 92.667 -108 104zM138 248.001c0 -40.667 10.333 -75 31 -103s48 -47 82 -57v320c-34 -9.33301 -61.333 -28.5 -82 -57.5
s-31 -63.167 -31 -102.5z" />
    <glyph glyph-name="sterling" unicode="&#xa3;" horiz-adv-x="640" 
d="M598 97v-97h-550v66l85 21v168h-85v97h85v102c0 68.667 21.167 124.167 63.5 166.5s98.5 63.5 168.5 63.5c68.667 0 123.5 -20.833 164.5 -62.5s63.5 -97.167 67.5 -166.5l-101 -20c-3.33301 47.333 -16.5 83.5 -39.5 108.5s-53.5 37.5 -91.5 37.5
c-37.333 0 -67.5 -11.667 -90.5 -35c-23 -23.334 -34.5 -54.001 -34.5 -92v-102h202v-97h-202v-158h358z" />
    <glyph glyph-name="yen" unicode="&#xa5;" horiz-adv-x="678" 
d="M434 326h143v-80h-186v-63h186v-80h-186v-103h-107v103h-182v80h182v63h-182v80h139l-216 344h119l193 -316l193 316h123z" />
    <glyph glyph-name="section" unicode="&#xa7;" horiz-adv-x="535" 
d="M500 240c0 -62 -27.666 -106.67 -82.999 -134.003c20.667 -25.333 31 -55.666 31 -90.999c0 -49.333 -17.667 -87.833 -53 -115.5s-81 -41.5 -137 -41.5c-64.667 0 -115.334 16.333 -152.001 49s-54.667 76 -54 130l90 17c4 -76.667 41 -115 111 -115
c27.334 0 49.667 7.16699 67 21.5s26 33.166 26 56.499c0 30.667 -20 55.334 -60 74.001l-138 60c-42.667 17.333 -73.5 37.833 -92.5 61.5s-28.5 53.5 -28.5 89.5c0 60 28 104.333 84 133c-21.333 25.334 -32 55.667 -32 91c0 50 17.5 88.833 52.5 116.5
s80.5 41.5 136.5 41.5c61.333 0 109.833 -16.167 145.5 -48.5s54.167 -74.5 55.5 -126.5l-93 -17c-0.667969 36 -10.335 63.333 -29 82c-18.667 18.667 -43.334 28 -74 28c-27.334 0 -49.667 -7.16699 -67 -21.5c-17.333 -14.335 -26 -33.168 -26 -56.499
c0 -31.333 20.333 -55.666 61 -72.999l138 -60c42.667 -17.333 73.5 -37.833 92.5 -61.5s28.5 -53.5 28.5 -89.5zM331.001 164.997l15 -6.99902c38.667 19.333 58 44.666 58 75.999c0 16 -5 30.167 -15 42.5s-27.667 24.5 -53 36.5l-141 64l-17 8
c-37.333 -17.333 -56 -43 -56 -77c0 -16.667 5 -31 15 -43s28 -24.333 54 -37z" />
    <glyph glyph-name="dieresis" unicode="&#xa8;" horiz-adv-x="600" 
d="M197 699c18.667 0 34.334 -6.5 47 -19.5c12.667 -13 19 -28.167 19 -45.5c0 -18.667 -6.16699 -34 -18.5 -46c-12.334 -12 -28.167 -18 -47.5 -18c-19.334 0 -35.167 6 -47.5 18s-18.5 27.333 -18.5 46c0 17.333 6.33301 32.5 19 45.5s28.334 19.5 47 19.5zM404 699
c18.667 0 34.3301 -6.5 46.9971 -19.5s19 -28.167 19 -45.5c0 -18.667 -6.16699 -34 -18.5 -46s-28.166 -18 -47.499 -18s-35.166 6 -47.499 18s-18.5 27.333 -18.5 46c0 17.333 6.33301 32.5 19 45.5s28.334 19.5 47.001 19.5z" />
    <glyph glyph-name="copyright" unicode="&#xa9;" horiz-adv-x="766" 
d="M381 684c96.667 0 178.834 -33.333 246.501 -100s101.5 -150.334 101.5 -251.001c0 -99.333 -33.833 -182 -101.5 -248s-149.834 -99 -246.501 -99c-97.333 0 -180 33 -248 99s-102 148.667 -102 248c0 100.667 34 184.334 102 251.001s150.667 100 248 100zM381 637
c-82.667 0 -152.999 -28.834 -210.999 -86.501s-87 -129.834 -87 -216.5c0 -86 29 -157.5 87 -214.5s128.333 -85.5 211 -85.5c82 0 151.833 28.5 209.499 85.5c57.667 57 86.5 128.5 86.5 214.5c0 86.667 -28.833 158.834 -86.5 216.501s-127.5 86.5 -209.5 86.5z
M386.001 521.999c48.667 0 89.333 -12.833 122 -38.5s52 -57.834 58 -96.5l-70 -15c-6.66699 25.333 -20 45.333 -40 60s-43.333 22 -70 22c-34 0 -61.833 -11.167 -83.5 -33.5s-32.5 -51.166 -32.5 -86.499c0 -34.667 11 -63.334 33 -86c22 -22.667 49.667 -34 83 -34
c27.334 0 51.167 7.66699 71.5 23s32.833 36.666 37.5 63.999l70 -12c-5.33301 -42 -24.333 -76.333 -57 -103s-73.334 -40 -122 -40c-52.667 0 -97.667 17.5 -135 52.5s-56 80.167 -56 135.5s18.667 100.5 56 135.5s82.333 52.5 135 52.5z" />
    <glyph glyph-name="ordfeminine" unicode="&#xaa;" horiz-adv-x="388" 
d="M202 673c44 0 79.334 -10.832 106.001 -32.499s40 -53.5 40 -95.5v-204h-77v29c-26 -24.667 -61 -37 -105 -37c-36 0 -64.833 9.33301 -86.5 28s-32.5 43.667 -32.5 75c0 30 12.5 54.167 37.5 72.5s58.5 27.5 100.5 27.5h86v13c0 18.6689 -5.66699 33.8359 -17 45.5
c-11.333 11.667 -27 17.5 -47 17.5c-38 0 -61.667 -18.667 -71 -56l-70 15c7.33301 33.333 23.166 58.666 47.499 75.999s53.833 26 88.5 26zM182.001 390.001c26 0 47.335 7 64.002 21s25 32 25 54v19h-79c-20.667 0 -37.167 -4.16699 -49.5 -12.5
c-12.334 -8.33301 -18.501 -19.833 -18.501 -34.5s5.33301 -26.167 15.999 -34.5c10.667 -8.33301 24.667 -12.5 42 -12.5z" />
    <glyph glyph-name="guillemotleft" unicode="&#xab;" horiz-adv-x="443" 
d="M25 262l117 178h104l-117 -178l117 -178h-104zM198 262l117 178h103l-117 -178l117 -178h-103z" />
    <glyph glyph-name="registered" unicode="&#xae;" horiz-adv-x="500" 
d="M250 684c56 0 103.333 -19 142 -57s58 -86 58 -144c0 -57.333 -19.333 -105 -58 -143s-86 -57 -142 -57s-103.333 19 -142 57s-58 85.667 -58 143c0 58 19.333 106 58 144s86 57 142 57zM250 316c46 0 85.167 16 117.5 48s48.5 71.667 48.5 119
c0 48 -16.167 88 -48.5 120s-71.5 48 -117.5 48c-45.333 0 -84.166 -16 -116.499 -48s-48.5 -72 -48.5 -120c0 -47.333 16.167 -87 48.5 -119s71.166 -48 116.499 -48zM337 521c0 -32 -17.001 -52 -51.001 -60l61 -66h-42l-58 63h-35v-63h-34v187h84
c22.667 0 40.834 -5.5 54.501 -16.5s20.5 -25.833 20.5 -44.5zM211.999 488h50c12 0 21.667 3 29 9s11 13.667 11 23s-3.66699 16.833 -11 22.5s-17 8.5 -29 8.5h-50v-63z" />
    <glyph glyph-name="macron" unicode="&#xaf;" horiz-adv-x="600" 
d="M451 578h-301v85h301v-85z" />
    <glyph glyph-name="degree" unicode="&#xb0;" horiz-adv-x="412" 
d="M207 684c40 0 73.833 -13 101.5 -39s41.5 -59.667 41.5 -101s-14 -75 -42 -101s-61.667 -39 -101 -39c-40 0 -74.167 13 -102.5 39s-42.5 59.667 -42.5 101s14.167 75 42.5 101s62.5 39 102.5 39zM207 471c19.333 0 36 6.66699 50 20s21 31 21 53
s-7.16699 39.833 -21.5 53.5s-30.833 20.5 -49.5 20.5c-19.333 0 -36.333 -6.83301 -51 -20.5s-22 -31.5 -22 -53.5s7.33301 -39.667 22 -53s31.667 -20 51 -20z" />
    <glyph glyph-name="plusminus" unicode="&#xb1;" horiz-adv-x="580" 
d="M515 420v-91h-179v-157h-92v157h-179v91h179v172h92v-172h179zM65 91h450v-91h-450v91z" />
    <glyph glyph-name="acute" unicode="&#xb4;" horiz-adv-x="600" 
d="M325 567h-89l73 142h122z" />
    <glyph glyph-name="paragraph" unicode="&#xb6;" horiz-adv-x="578" 
d="M360 0h-81v299h-50c-60.667 0 -110.667 17.167 -150 51.5c-39.333 34.334 -59 80.167 -59 137.5c0 58.667 17.5 103.667 52.5 135s82.5 47 142.5 47h145v-670zM500 0h-81v670h81v-670z" />
    <glyph glyph-name="periodcentered" unicode="&#xb7;" horiz-adv-x="221" 
d="M111 324c18.667 0 34.167 -6.16797 46.5 -18.501s18.5 -27.166 18.5 -44.499c0 -18 -6.16699 -33 -18.5 -45s-27.833 -18 -46.5 -18s-34.334 6 -47.001 18s-19 27 -19 45c0 17.334 6.33301 32.167 19 44.5s28.334 18.5 47.001 18.5z" />
    <glyph glyph-name="cedilla" unicode="&#xb8;" horiz-adv-x="600" 
d="M294 0h78l-65 -165h-111z" />
    <glyph glyph-name="ordmasculine" unicode="&#xba;" horiz-adv-x="432" 
d="M215 673c49.333 0 91 -15.833 125 -47.5s51 -72.5 51 -122.5s-17 -90.833 -51 -122.5s-75.667 -47.5 -125 -47.5c-48 0 -89 15.833 -123 47.5s-51 72.5 -51 122.5s17 90.833 51 122.5s75 47.5 123 47.5zM215 403c27.333 0 50.666 9.5 69.999 28.5s29 42.833 29 71.5
s-9.66699 52.5 -29 71.5s-42.666 28.5 -69.999 28.5c-26 0 -48.5 -9.5 -67.5 -28.5s-28.5 -42.833 -28.5 -71.5s9.5 -52.5 28.5 -71.5s41.5 -28.5 67.5 -28.5z" />
    <glyph glyph-name="guillemotright" unicode="&#xbb;" horiz-adv-x="443" 
d="M25 84l117 178l-117 178h104l117 -178l-117 -178h-104zM198 84l117 178l-117 178h103l117 -178l-117 -178h-103z" />
    <glyph glyph-name="onequarter" unicode="&#xbc;" horiz-adv-x="720" 
d="M100 568l-78 -49v82l105 69h50v-375h-77v273zM639 670l-496 -670h-71l496 670h71zM694 76h-54v-77h-72v77h-198v70l181 228h89v-235h54v-63zM568 139v155l-124 -155h124z" />
    <glyph glyph-name="onehalf" unicode="&#xbd;" horiz-adv-x="809" 
d="M100 568l-78 -49v82l105 69h50v-375h-77v273zM631 670l-496 -670h-71l496 670h71zM616 67l157.002 -0.000976562v-67h-279v51l142 120c23.333 20 39.5 36 48.5 48s13.5 26 13.5 42c0 17.334 -5.83301 31.167 -17.5 41.5s-26.834 15.5 -45.501 15.5
c-21.333 0 -38 -7 -50 -21s-18.667 -33 -20 -57l-66 15c0 38 12.333 68.833 37 92.5s57.667 35.5 99 35.5s74.666 -10.833 99.999 -32.5s38 -51.167 38 -88.5c0 -26 -7.33301 -49.167 -22 -69.5s-37 -43.166 -67 -68.499z" />
    <glyph glyph-name="threequarters" unicode="&#xbe;" horiz-adv-x="807" 
d="M312 410c0 -34 -13.166 -62.167 -39.499 -84.5s-60.166 -33.5 -101.499 -33.5c-40.667 0 -74.5 11.167 -101.5 33.5s-41.167 52.5 -42.5 90.5l65 16c1.33301 -24 9.16602 -42.667 23.499 -56s33.166 -20 56.499 -20c20.667 0 37.167 5.16699 49.5 15.5
s18.5 23.833 18.5 40.5c0 16 -6.16699 28.5 -18.5 37.5s-28.5 13.5 -48.5 13.5h-38v55h33c19.333 0 35.333 4.33301 48 13s19 20.334 19 35c0 15.333 -6 27.833 -18 37.5s-27.667 14.5 -47 14.5c-22 0 -39.333 -6.16699 -52 -18.5s-19.334 -29.833 -20 -52.5l-67 16
c2.66699 36 16.5 64.5 41.5 85.5s57.167 31.5 96.5 31.5c40 0 72.667 -10.667 98 -32s38 -48 38 -80c0 -34.667 -17 -59.667 -51 -75c38.667 -17.333 58 -45 58 -83zM721.001 670l-496 -670h-71l496 670h71zM780.001 76h-54v-77h-72v77h-198v70l181 228h89v-235h54v-63z
M654.001 139v155l-124 -155h124z" />
    <glyph glyph-name="questiondown" unicode="&#xbf;" horiz-adv-x="528" 
d="M271 381c-18.667 0 -34.168 6.33301 -46.501 19s-18.5 27.667 -18.5 45c0 18 6.16699 33 18.5 45s27.833 18 46.5 18s34.334 -6 47.001 -18s19 -27 19 -45c0 -17.333 -6.33301 -32.333 -19 -45s-28.334 -19 -47 -19zM395.999 50l99.999 -19.999
c-3.33301 -58.667 -27.333 -108.167 -72 -148.5s-100.667 -60.5 -168 -60.5c-68 0 -122.833 19.667 -164.5 59s-62.5 90.666 -62.5 153.999c0 52 17.667 95.167 53 129.5s82 54.833 140 61.5v66h96v-147h-59c-37.333 0 -68.166 -10.167 -92.499 -30.5
s-36.5 -46.833 -36.5 -79.5c0 -36 11.667 -65.167 35 -87.5s53.666 -33.5 90.999 -33.5c39.333 0 71.333 12.333 96 37s39.334 58 44.001 100z" />
    <glyph glyph-name="Agrave" unicode="&#xc0;" horiz-adv-x="700" 
d="M305 741l-106 142h122l73 -142h-89zM695 0h-116l-66 156h-326l-66 -156h-116l295 670h100zM471 254l-121 285l-121 -285h242z" />
    <glyph glyph-name="Aacute" unicode="&#xc1;" horiz-adv-x="700" 
d="M399 741h-89l73 142h122zM695 0h-116l-66 156h-326l-66 -156h-116l295 670h100zM471 254l-121 285l-121 -285h242z" />
    <glyph glyph-name="Acircumflex" unicode="&#xc2;" horiz-adv-x="700" 
d="M290 733h-104l115 145h99l116 -145h-105l-60 77zM695 0h-116l-66 156h-326l-66 -156h-116l295 670h100zM471 254l-121 285l-121 -285h242z" />
    <glyph glyph-name="Atilde" unicode="&#xc3;" horiz-adv-x="700" 
d="M298 803c-10 0 -17.998 -3.66699 -23.998 -11s-9 -17 -9 -29h-71c0 40.667 9.66699 70.167 29 88.5s42 27.5 68 27.5c22.667 0 45.5 -7.16699 68.5 -21.5s41.167 -21.5 54.5 -21.5c10 0 17.833 4 23.5 12s8.5 18.333 8.5 31h70c0 -42 -9.33301 -72.167 -28 -90.5
c-18.668 -18.333 -41.335 -27.5 -68.001 -27.5c-23.333 0 -46.333 7 -69 21s-40.334 21 -53.001 21zM695.002 0h-116l-66 156h-326l-66 -156h-116l295 670h100zM471.002 254l-121 285l-121 -285h242z" />
    <glyph glyph-name="Adieresis" unicode="&#xc4;" horiz-adv-x="700" 
d="M247 744c-19.334 0 -35.1689 6 -47.502 18s-18.5 27.333 -18.5 46c0 17.333 6.33301 32.5 19 45.5s28.334 19.5 47 19.5c18.667 0 34.334 -6.5 47.001 -19.5s19 -28.167 19 -45.5c0 -18.667 -6.16699 -34 -18.5 -46s-28.166 -18 -47.499 -18zM453.998 744
c-19.333 0 -35.1699 6 -47.5029 18s-18.5 27.333 -18.5 46c0 17.333 6.33301 32.5 19 45.5s28.334 19.5 47.001 19.5s34.334 -6.5 47.001 -19.5s19 -28.167 19 -45.5c0 -18.667 -6.16699 -34 -18.5 -46s-28.166 -18 -47.499 -18zM694.994 0h-116l-66 156h-326l-66 -156h-116
l295 670h100zM470.994 254l-121 285l-121 -285h242z" />
    <glyph glyph-name="Aring" unicode="&#xc5;" horiz-adv-x="700" 
d="M350 722c-30.667 0 -56.8359 10.5 -78.502 31.5c-21.667 21 -32.5 46.167 -32.5 75.5c0 30 10.833 55.5 32.5 76.5s47.834 31.5 78.501 31.5c31.334 0 57.667 -10.5 79 -31.5s32 -46.5 32 -76.5s-10.667 -55.333 -32 -76s-47.666 -31 -78.999 -31zM349.998 876
c-14 0 -25.667 -4.5 -35 -13.5s-14 -20.167 -14 -33.5c0 -12.667 4.66699 -23.667 14 -33s21 -14 35 -14s25.667 4.66699 35 14s14 20.333 14 33c0 13.333 -4.66699 24.5 -14 33.5s-21 13.5 -35 13.5zM694.998 0h-116l-66 156h-326l-66 -156h-116l295 670h100zM470.998 254
l-121 285l-121 -285h242z" />
    <glyph glyph-name="AE" unicode="&#xc6;" horiz-adv-x="1041" 
d="M998 97v-97h-499v139h-276l-94 -139h-124l465 670h527v-97h-391v-189h361v-96h-361v-191h392zM499 236v313l-211 -313h211z" />
    <glyph glyph-name="Ccedilla" unicode="&#xc7;" horiz-adv-x="770" 
d="M397 87c54 0 100.668 14.3311 140.001 42.998s66.333 70.667 81 126l104 -22c-17.335 -72.667 -52.668 -130.667 -106 -174c-53.333 -43.333 -117 -67.666 -191 -72.999l-60 -152h-111l92 155c-85.333 12 -156.333 50.333 -213 115s-85 141.334 -85 230.001
c0 97.334 33.833 179.834 101.5 247.5c67.667 67.667 150.167 101.5 247.5 101.5c79.333 0 148.666 -21.667 207.999 -65c59.333 -43.334 98.333 -101.667 117 -175l-104 -30c-14.667 55.333 -41.667 97.333 -81 126s-86 43 -140 43c-68 0 -125.167 -23.833 -171.5 -71.5
s-69.5 -106.5 -69.5 -176.5s23.167 -128.833 69.5 -176.5s103.5 -71.5 171.5 -71.5z" />
    <glyph glyph-name="Egrave" unicode="&#xc8;" horiz-adv-x="636" 
d="M294 741l-106 142h122l73 -142h-89zM578 97v-97h-499v670h498v-97h-391v-189h361v-96h-361v-191h392z" />
    <glyph glyph-name="Eacute" unicode="&#xc9;" horiz-adv-x="636" 
d="M389 741h-89l73 142h122zM578 97v-97h-499v670h498v-97h-391v-189h361v-96h-361v-191h392z" />
    <glyph glyph-name="Ecircumflex" unicode="&#xca;" horiz-adv-x="636" 
d="M280 733h-104l115 145h99l116 -145h-105l-60 77zM578 97v-97h-499v670h498v-97h-391v-189h361v-96h-361v-191h392z" />
    <glyph glyph-name="Edieresis" unicode="&#xcb;" horiz-adv-x="636" 
d="M237 744c-19.334 0 -35.1689 6 -47.502 18s-18.5 27.333 -18.5 46c0 17.333 6.33301 32.5 19 45.5s28.334 19.5 47 19.5c18.667 0 34.334 -6.5 47.001 -19.5s19 -28.167 19 -45.5c0 -18.667 -6.16699 -34 -18.5 -46s-28.166 -18 -47.499 -18zM443.998 744
c-19.333 0 -35.1699 6 -47.5029 18s-18.5 27.333 -18.5 46c0 17.333 6.33301 32.5 19 45.5s28.334 19.5 47.001 19.5s34.334 -6.5 47.001 -19.5s19 -28.167 19 -45.5c0 -18.667 -6.16699 -34 -18.5 -46s-28.166 -18 -47.499 -18zM577.994 97v-97h-499v670h498v-97h-391v-189
h361v-96h-361v-191h392z" />
    <glyph glyph-name="Igrave" unicode="&#xcc;" horiz-adv-x="265" 
d="M103 883l73 -142h-89l-106 142h122zM186 0h-107v670h107v-670z" />
    <glyph glyph-name="Iacute" unicode="&#xcd;" horiz-adv-x="265" 
d="M181 741h-89l73 142h122zM186 0h-107v670h107v-670z" />
    <glyph glyph-name="Icircumflex" unicode="&#xce;" horiz-adv-x="265" 
d="M298 733h-105l-60 77l-61 -77h-104l115 145h99zM79 670h107v-670h-107v670z" />
    <glyph glyph-name="Idieresis" unicode="&#xcf;" horiz-adv-x="265" 
d="M29 873c18.667 0 34.3301 -6.5 46.9971 -19.5s19 -28.167 19 -45.5c0 -18.667 -6.16699 -34 -18.5 -46s-28.166 -18 -47.499 -18s-35.166 6 -47.499 18s-18.5 27.333 -18.5 46c0 17.333 6.33301 32.5 19 45.5s28.334 19.5 47.001 19.5zM235.996 873
c18.667 0 34.332 -6.5 46.999 -19.5s19 -28.167 19 -45.5c0 -18.667 -6.16699 -34 -18.5 -46s-28.166 -18 -47.499 -18c-19.334 0 -35.167 6 -47.5 18s-18.5 27.333 -18.5 46c0 17.333 6.33301 32.5 19 45.5s28.334 19.5 47 19.5zM185.994 0h-107v670h107v-670z" />
    <glyph glyph-name="Eth" unicode="&#xd0;" horiz-adv-x="739" 
d="M98 670h234c112.667 0 202.5 -31.167 269.5 -93.5c67 -62.334 100.5 -142.834 100.5 -241.5c0 -98.667 -33.5 -179.167 -100.5 -241.5s-156.833 -93.5 -269.5 -93.5h-234v288h-68v98h68v284zM205 97h127c80 0 143.5 22 190.5 66s70.5 101.333 70.5 172
s-23.5 128 -70.5 172s-110.5 66 -190.5 66h-127v-187h148v-98h-148v-191z" />
    <glyph glyph-name="Ntilde" unicode="&#xd1;" horiz-adv-x="761" 
d="M334 803c-10 0 -18 -3.66699 -24 -11s-9 -17 -9 -29h-71c0 40.667 9.66699 70.167 29 88.5s42 27.5 68 27.5c22.667 0 45.5 -7.16699 68.5 -21.5s41.167 -21.5 54.5 -21.5c10 0 17.833 4 23.5 12s8.5 18.333 8.5 31h70c0 -42 -9.33301 -72.167 -28 -90.5
s-41.334 -27.5 -68 -27.5c-23.333 0 -46.333 7 -69 21s-40.334 21 -53 21zM682 670v-670h-91l-405 481v-481h-107v670h91l404 -489v489h108z" />
    <glyph glyph-name="Ograve" unicode="&#xd2;" horiz-adv-x="794" 
d="M352 741l-106 142h122l73 -142h-89zM397 684c98 0 180.833 -33.999 248.5 -101.999s101.5 -150.667 101.5 -248s-33.833 -179.666 -101.5 -246.999s-150.5 -101 -248.5 -101s-180.667 33.667 -248 101s-101 149.666 -101 246.999c0 98 33.667 180.833 101 248.499
c67.333 67.667 150 101.5 248 101.5zM397 87.001c68 0 125.334 23.666 172 70.999c46.667 47.333 70 106 70 176c0 70.667 -23.333 129.834 -70 177.501s-104 71.5 -172 71.5s-125.167 -23.833 -171.5 -71.5s-69.5 -106.834 -69.5 -177.5c0 -70 23.167 -128.667 69.5 -176
s103.5 -71 171.5 -71z" />
    <glyph glyph-name="Oacute" unicode="&#xd3;" horiz-adv-x="794" 
d="M446 741h-89l73 142h122zM397 684c98 0 180.833 -33.999 248.5 -101.999s101.5 -150.667 101.5 -248s-33.833 -179.666 -101.5 -246.999s-150.5 -101 -248.5 -101s-180.667 33.667 -248 101s-101 149.666 -101 246.999c0 98 33.667 180.833 101 248.499
c67.333 67.667 150 101.5 248 101.5zM397 87.001c68 0 125.334 23.666 172 70.999c46.667 47.333 70 106 70 176c0 70.667 -23.333 129.834 -70 177.501s-104 71.5 -172 71.5s-125.167 -23.833 -171.5 -71.5s-69.5 -106.834 -69.5 -177.5c0 -70 23.167 -128.667 69.5 -176
s103.5 -71 171.5 -71z" />
    <glyph glyph-name="Ocircumflex" unicode="&#xd4;" horiz-adv-x="794" 
d="M337 733h-104l115 145h99l116 -145h-105l-60 77zM397 684c98 0 180.833 -33.999 248.5 -101.999s101.5 -150.667 101.5 -248s-33.833 -179.666 -101.5 -246.999s-150.5 -101 -248.5 -101s-180.667 33.667 -248 101s-101 149.666 -101 246.999
c0 98 33.667 180.833 101 248.499c67.333 67.667 150 101.5 248 101.5zM397 87.001c68 0 125.334 23.666 172 70.999c46.667 47.333 70 106 70 176c0 70.667 -23.333 129.834 -70 177.501s-104 71.5 -172 71.5s-125.167 -23.833 -171.5 -71.5s-69.5 -106.834 -69.5 -177.5
c0 -70 23.167 -128.667 69.5 -176s103.5 -71 171.5 -71z" />
    <glyph glyph-name="Otilde" unicode="&#xd5;" horiz-adv-x="794" 
d="M345 803c-10 0 -17.999 -3.66699 -23.999 -11s-9 -17 -9 -29h-71c0 40.667 9.66699 70.167 29 88.5s42 27.5 68 27.5c22.667 0 45.5 -7.16699 68.5 -21.5s41.167 -21.5 54.5 -21.5c10 0 17.833 4 23.5 12s8.5 18.333 8.5 31h70c0 -42 -9.33301 -72.167 -28 -90.5
s-41.334 -27.5 -68.001 -27.5c-23.333 0 -46.333 7 -69 21s-40.334 21 -53 21zM397.001 684c98 0 180.833 -33.999 248.5 -101.999s101.5 -150.667 101.5 -248s-33.833 -179.666 -101.5 -246.999s-150.5 -101 -248.5 -101s-180.667 33.667 -248 101
s-101 149.666 -101 246.999c0 98 33.667 180.833 101 248.499c67.333 67.667 150 101.5 248 101.5zM397.001 87.001c68 0 125.334 23.666 172 70.999c46.667 47.333 70 106 70 176c0 70.667 -23.333 129.834 -70 177.501s-104 71.5 -172 71.5s-125.167 -23.833 -171.5 -71.5
s-69.5 -106.834 -69.5 -177.5c0 -70 23.167 -128.667 69.5 -176s103.5 -71 171.5 -71z" />
    <glyph glyph-name="Odieresis" unicode="&#xd6;" horiz-adv-x="794" 
d="M294 744c-19.333 0 -35.1699 6 -47.5029 18s-18.5 27.333 -18.5 46c0 17.333 6.33301 32.5 19 45.5s28.334 19.5 47.001 19.5s34.334 -6.5 47.001 -19.5s19 -28.167 19 -45.5c0 -18.667 -6.16699 -34 -18.5 -46s-28.166 -18 -47.499 -18zM500.996 744
c-19.333 0 -35.1699 6 -47.5029 18s-18.5 27.333 -18.5 46c0 17.333 6.33301 32.5 19 45.5s28.334 19.5 47.001 19.5c18.6689 0 34.3359 -6.5 47.001 -19.5c12.667 -13 19 -28.167 19 -45.5c0 -18.667 -6.16699 -34 -18.5 -46c-12.335 -12 -28.168 -18 -47.499 -18z
M396.992 684c98 0 180.833 -33.999 248.5 -101.999s101.5 -150.667 101.5 -248s-33.833 -179.666 -101.5 -246.999s-150.5 -101 -248.5 -101s-180.667 33.667 -248 101s-101 149.666 -101 246.999c0 98 33.667 180.833 101 248.499c67.333 67.667 150 101.5 248 101.5z
M396.992 87.001c68 0 125.334 23.666 172 70.999c46.667 47.333 70 106 70 176c0 70.667 -23.333 129.834 -70 177.501s-104 71.5 -172 71.5s-125.167 -23.833 -171.5 -71.5s-69.5 -106.834 -69.5 -177.5c0 -70 23.167 -128.667 69.5 -176s103.5 -71 171.5 -71z" />
    <glyph glyph-name="multiply" unicode="&#xd7;" horiz-adv-x="518" 
d="M325 305l138 -137l-66 -67l-138 138l-138 -138l-66 67l138 137l-138 138l66 66l138 -138l138 138l66 -66z" />
    <glyph glyph-name="Oslash" unicode="&#xd8;" horiz-adv-x="794" 
d="M736 605l-59 -58.999c46.667 -62.667 70 -133.334 70 -212.001c0 -97.333 -33.833 -179.666 -101.5 -246.999s-150.5 -101 -248.5 -101c-79.333 0 -149.333 23 -210 69l-67 -67l-62 63l65 65c-50 64 -75 136.667 -75 218c0 98 33.667 180.833 101 248.499
c67.333 67.667 150 101.5 248 101.5c82 0 155 -25 219 -75l58 58zM156 334.001c0 -52 14 -99.667 42 -143l344 344c-42.667 32 -91 48 -145 48c-68 0 -125.167 -23.833 -171.5 -71.5s-69.5 -106.834 -69.5 -177.5zM397 87.001c68 0 125.333 23.667 171.999 71
c46.667 47.333 70 106 70 176c0 50.667 -12.667 96 -38 136l-341 -341c40.667 -28 86.334 -42 137.001 -42z" />
    <glyph glyph-name="Ugrave" unicode="&#xd9;" horiz-adv-x="716" 
d="M312 741l-106 142h122l73 -142h-89zM644 670v-373.999c0 -92.667 -26 -167.5 -78 -224.5s-120.333 -85.5 -205 -85.5c-86.667 0 -156.5 28.5 -209.5 85.5s-79.5 131.833 -79.5 224.5v374h107v-374c0 -62.667 16.667 -112.834 50 -150.501s77.333 -56.5 132 -56.5
c52.667 0 95.167 19 127.5 57s48.5 88 48.5 150v374h107z" />
    <glyph glyph-name="Uacute" unicode="&#xda;" horiz-adv-x="716" 
d="M407 741h-89l73 142h122zM644 670v-373.999c0 -92.667 -26 -167.5 -78 -224.5s-120.333 -85.5 -205 -85.5c-86.667 0 -156.5 28.5 -209.5 85.5s-79.5 131.833 -79.5 224.5v374h107v-374c0 -62.667 16.667 -112.834 50 -150.501s77.333 -56.5 132 -56.5
c52.667 0 95.167 19 127.5 57s48.5 88 48.5 150v374h107z" />
    <glyph glyph-name="Ucircumflex" unicode="&#xdb;" horiz-adv-x="716" 
d="M298 733h-104l115 145h99l116 -145h-105l-60 77zM644 670v-373.999c0 -92.667 -26 -167.5 -78 -224.5s-120.333 -85.5 -205 -85.5c-86.667 0 -156.5 28.5 -209.5 85.5s-79.5 131.833 -79.5 224.5v374h107v-374c0 -62.667 16.667 -112.834 50 -150.501
s77.333 -56.5 132 -56.5c52.667 0 95.167 19 127.5 57s48.5 88 48.5 150v374h107z" />
    <glyph glyph-name="Udieresis" unicode="&#xdc;" horiz-adv-x="716" 
d="M255 744c-19.334 0 -35.1689 6 -47.502 18s-18.5 27.333 -18.5 46c0 17.333 6.33301 32.5 19 45.5s28.334 19.5 47 19.5c18.667 0 34.334 -6.5 47.001 -19.5s19 -28.167 19 -45.5c0 -18.667 -6.16699 -34 -18.5 -46s-28.166 -18 -47.499 -18zM461.998 744
c-19.333 0 -35.1699 6 -47.5029 18s-18.5 27.333 -18.5 46c0 17.333 6.33301 32.5 19 45.5s28.334 19.5 47.001 19.5s34.334 -6.5 47.001 -19.5s19 -28.167 19 -45.5c0 -18.667 -6.16699 -34 -18.5 -46s-28.166 -18 -47.499 -18zM643.994 670v-373.999
c0 -92.667 -26 -167.5 -78 -224.5s-120.333 -85.5 -205 -85.5c-86.667 0 -156.5 28.5 -209.5 85.5s-79.5 131.833 -79.5 224.5v374h107v-374c0 -62.667 16.667 -112.834 50 -150.501s77.333 -56.5 132 -56.5c52.667 0 95.167 19 127.5 57s48.5 88 48.5 150v374h107z" />
    <glyph glyph-name="Yacute" unicode="&#xdd;" horiz-adv-x="681" 
d="M389 741h-89l73 142h122zM392 224v-224h-107v222l-271 448h119l206 -336l205 336h123z" />
    <glyph glyph-name="Thorn" unicode="&#xde;" horiz-adv-x="639" 
d="M186 555h178.999c70.667 0 127.834 -20.333 171.501 -61s65.5 -93.667 65.5 -159s-21.833 -118.333 -65.5 -159s-100.834 -61 -171.5 -61h-179v-115h-107v670h107v-115zM185.999 213l173.999 -0.000976562c40.667 0 73.334 11.333 98.001 34s37 52 37 88
c0 36.667 -12.333 66.334 -37 89.001s-57.334 34 -98 34h-174v-245z" />
    <glyph glyph-name="germandbls" unicode="&#xdf;" horiz-adv-x="657" 
d="M483 385c42.668 -12 75.834 -33.667 99.5 -65c23.667 -31.333 35.5 -70.666 35.5 -117.999c0 -60 -20 -109.833 -60 -149.5s-93 -59.5 -159 -59.5c-50 0 -99.667 7.33301 -149 22l14 86c46.667 -13.333 89 -20 127 -20c41.334 0 74.667 11.833 100 35.5
s38 52.167 38 85.5c0 41.333 -15.833 73.5 -47.5 96.5s-75.5 34.5 -131.5 34.5h-43v86h28c41.333 0 74.5 9.83301 99.5 29.5s37.5 45.5 37.5 77.5c0 36 -12.167 65 -36.5 87s-56.833 33 -97.5 33c-46.667 0 -84.167 -14.833 -112.5 -44.5s-42.5 -69.834 -42.5 -120.501v-481
h-104v474c0 78.667 23.833 142.167 71.5 190.5s110.167 72.5 187.5 72.5c69.333 0 125.5 -18.833 168.5 -56.5s64.5 -85.5 64.5 -143.5c0 -35.333 -7.66699 -66.333 -23 -93s-37 -46.334 -65 -59z" />
    <glyph glyph-name="agrave" unicode="&#xe0;" horiz-adv-x="643" 
d="M265 567l-106 142h122l73 -142h-89zM564 496l-0.00195312 -496h-104v57c-45.333 -47.333 -105.333 -71 -180 -71c-67.333 0 -125.166 24.5 -173.499 73.5s-72.5 111.833 -72.5 188.5c0 76 24.333 138.667 73 188s106.334 74 173.001 74c74.667 0 134.667 -23.667 180 -71
v57h104zM296.998 78c43.333 0 81.333 15.833 114 47.5s49 72.5 49 122.5s-16.333 90.833 -49 122.5s-70.667 47.5 -114 47.5c-46.667 0 -85.334 -15.5 -116.001 -46.5s-46 -72.167 -46 -123.5s15.333 -92.5 46 -123.5s69.334 -46.5 116.001 -46.5z" />
    <glyph glyph-name="aacute" unicode="&#xe1;" horiz-adv-x="643" 
d="M359 567h-89l73 142h122zM564 496l-0.00195312 -496h-104v57c-45.333 -47.333 -105.333 -71 -180 -71c-67.333 0 -125.166 24.5 -173.499 73.5s-72.5 111.833 -72.5 188.5c0 76 24.333 138.667 73 188s106.334 74 173.001 74c74.667 0 134.667 -23.667 180 -71v57h104z
M296.998 78c43.333 0 81.333 15.833 114 47.5s49 72.5 49 122.5s-16.333 90.833 -49 122.5s-70.667 47.5 -114 47.5c-46.667 0 -85.334 -15.5 -116.001 -46.5s-46 -72.167 -46 -123.5s15.333 -92.5 46 -123.5s69.334 -46.5 116.001 -46.5z" />
    <glyph glyph-name="acircumflex" unicode="&#xe2;" horiz-adv-x="643" 
d="M250 559h-104l115 145h99l116 -145h-105l-60 77zM564 496l-0.00195312 -496h-104v57c-45.333 -47.333 -105.333 -71 -180 -71c-67.333 0 -125.166 24.5 -173.499 73.5s-72.5 111.833 -72.5 188.5c0 76 24.333 138.667 73 188s106.334 74 173.001 74
c74.667 0 134.667 -23.667 180 -71v57h104zM296.998 78c43.333 0 81.333 15.833 114 47.5s49 72.5 49 122.5s-16.333 90.833 -49 122.5s-70.667 47.5 -114 47.5c-46.667 0 -85.334 -15.5 -116.001 -46.5s-46 -72.167 -46 -123.5s15.333 -92.5 46 -123.5
s69.334 -46.5 116.001 -46.5z" />
    <glyph glyph-name="atilde" unicode="&#xe3;" horiz-adv-x="643" 
d="M258 629c-10 0 -18 -3.66699 -24 -11s-9 -17 -9 -29h-71c0 40.667 9.66699 70.167 29 88.5s42 27.5 68 27.5c22.667 0 45.5 -7.16699 68.5 -21.5s41.167 -21.5 54.5 -21.5c10 0 17.833 4 23.5 12s8.5 18.333 8.5 31h70c0 -42 -9.33301 -72.167 -28 -90.5
s-41.334 -27.5 -68 -27.5c-23.333 0 -46.333 7 -69 21s-40.334 21 -53 21zM564 496l-0.00195312 -496h-104v57c-45.333 -47.333 -105.333 -71 -180 -71c-67.333 0 -125.166 24.5 -173.499 73.5s-72.5 111.833 -72.5 188.5c0 76 24.333 138.667 73 188s106.334 74 173.001 74
c74.667 0 134.667 -23.667 180 -71v57h104zM296.998 78c43.333 0 81.333 15.833 114 47.5s49 72.5 49 122.5s-16.333 90.833 -49 122.5s-70.667 47.5 -114 47.5c-46.667 0 -85.334 -15.5 -116.001 -46.5s-46 -72.167 -46 -123.5s15.333 -92.5 46 -123.5
s69.334 -46.5 116.001 -46.5z" />
    <glyph glyph-name="adieresis" unicode="&#xe4;" horiz-adv-x="643" 
d="M207 570c-19.334 0 -35.167 6 -47.5 18s-18.5 27.333 -18.5 46c0 17.333 6.33301 32.5 19 45.5s28.334 19.5 47 19.5c18.667 0 34.334 -6.5 47 -19.5c12.667 -13 19 -28.167 19 -45.5c0 -18.667 -6.16699 -34 -18.5 -46c-12.334 -12 -28.167 -18 -47.5 -18zM414 570
c-19.333 0 -35.1699 6 -47.5029 18s-18.5 27.333 -18.5 46c0 17.333 6.33301 32.5 19 45.5s28.334 19.5 47.001 19.5s34.334 -6.5 47.001 -19.5s19 -28.167 19 -45.5c0 -18.667 -6.16699 -34 -18.5 -46s-28.166 -18 -47.499 -18zM563.996 496l-0.00195312 -496h-104v57
c-45.333 -47.333 -105.333 -71 -180 -71c-67.333 0 -125.166 24.5 -173.499 73.5s-72.5 111.833 -72.5 188.5c0 76 24.333 138.667 73 188s106.334 74 173.001 74c74.667 0 134.667 -23.667 180 -71v57h104zM296.994 78c43.333 0 81.333 15.833 114 47.5s49 72.5 49 122.5
s-16.333 90.833 -49 122.5s-70.667 47.5 -114 47.5c-46.667 0 -85.334 -15.5 -116.001 -46.5s-46 -72.167 -46 -123.5s15.333 -92.5 46 -123.5s69.334 -46.5 116.001 -46.5z" />
    <glyph glyph-name="aring" unicode="&#xe5;" horiz-adv-x="643" 
d="M310 547c-30.667 0 -56.834 10.5 -78.501 31.5s-32.5 46.167 -32.5 75.5c0 30 10.833 55.5 32.5 76.5s47.834 31.5 78.501 31.5c31.333 0 57.666 -10.5 78.999 -31.5s32 -46.5 32 -76.5s-10.667 -55.333 -32 -76s-47.666 -31 -78.999 -31zM310 701
c-14 0 -25.667 -4.5 -35 -13.5s-14 -20.167 -14 -33.5c0 -12.667 4.66699 -23.667 14 -33s21 -14 35 -14s25.667 4.66699 35 14s14 20.333 14 33c0 13.333 -4.66699 24.5 -14 33.5s-21 13.5 -35 13.5zM564 496l-0.00195312 -496h-104v57
c-45.333 -47.333 -105.333 -71 -180 -71c-67.333 0 -125.166 24.5 -173.499 73.5s-72.5 111.833 -72.5 188.5c0 76 24.333 138.667 73 188s106.334 74 173.001 74c74.667 0 134.667 -23.667 180 -71v57h104zM296.998 78c43.333 0 81.333 15.833 114 47.5s49 72.5 49 122.5
s-16.333 90.833 -49 122.5s-70.667 47.5 -114 47.5c-46.667 0 -85.334 -15.5 -116.001 -46.5s-46 -72.167 -46 -123.5s15.333 -92.5 46 -123.5s69.334 -46.5 116.001 -46.5z" />
    <glyph glyph-name="ae" unicode="&#xe6;" horiz-adv-x="914" 
d="M878 213l-391.997 0.000976562c7.33398 -43.333 24.167 -77 50.499 -101c26.333 -24 59.833 -36 100.5 -36c26 0 51.667 6.83301 77 20.5s44.666 35.167 57.999 64.5l93 -20c-12.667 -46 -40.667 -83.333 -84 -112s-92 -43 -146 -43c-87.333 0 -154.333 33.333 -201 100
c-20.667 -30 -49.5 -54.167 -86.5 -72.5s-77.833 -27.5 -122.5 -27.5c-60.667 0 -107.334 14.667 -140.001 44s-49 66.333 -49 111c0 45.333 17.5 81.166 52.5 107.499s83.167 39.5 144.5 39.5h157v30c0 31.333 -10.333 56.5 -31 75.5s-48 28.5 -82 28.5
c-32.667 0 -59.334 -7.83301 -80.001 -23.5s-33 -37.5 -37 -65.5l-95 21c5.33301 46 27.333 83.5 66 112.5s88 43.5 148 43.5c78 0 136 -26.333 174 -79c46.667 52.667 106.334 79 179.001 79c69.333 0 127.5 -24.333 174.5 -73s70.833 -111.334 71.5 -188v-36z
M486.003 288.001h286.999c-6.66699 42.667 -22.5 75.5 -47.5 98.5s-54.833 34.5 -89.5 34.5c-38 0 -71.167 -11.667 -99.5 -35s-45.166 -56 -50.499 -98zM390.002 213.001l-157.001 -0.000976562c-30.667 0 -54.5 -6.16699 -71.5 -18.5
c-17 -12.334 -25.5 -29.167 -25.5 -50.5c0 -22 9 -39.833 27 -53.5s42.667 -20.5 74 -20.5c40.667 0 76.334 12.833 107.001 38.5s46 56.834 46 93.501v11z" />
    <glyph glyph-name="ccedilla" unicode="&#xe7;" horiz-adv-x="577" 
d="M298 82c74 0 122.665 34.667 145.998 104l96 -25c-12 -46.667 -36.667 -85.5 -74 -116.5s-81 -49.833 -131 -56.5l-60 -153h-111l92 154c-63.333 10 -115.833 38.5 -157.5 85.5s-62.5 104.833 -62.5 173.5c0 76 25.5 138.667 76.5 188s112.833 74 185.5 74
c56.667 0 107.334 -15.833 152.001 -47.5s74.667 -73.834 90 -126.5l-100 -29c-9.33301 35.333 -26.666 62 -51.999 80s-55.333 27 -90 27c-46 0 -84.167 -15.5 -114.5 -46.5s-45.5 -70.833 -45.5 -119.5c0 -50 15 -90.167 45 -120.5s68.333 -45.5 115 -45.5z" />
    <glyph glyph-name="egrave" unicode="&#xe8;" horiz-adv-x="577" 
d="M248 567l-106 142h122l73 -142h-89zM541 259l-0.00292969 -36.001h-402c4.66699 -44.667 21.334 -80.334 50.001 -107.001s62 -40 100 -40c68.667 0 117.334 28.667 146.001 86l93 -20c-20 -51.333 -50.833 -90.166 -92.5 -116.499s-90.5 -39.5 -146.5 -39.5
c-69.333 0 -128.833 24.333 -178.5 73s-74.5 111.334 -74.5 188.001c0 77.333 24.833 140.5 74.5 189.5s110.5 73.5 182.5 73.5c67.333 0 124.833 -23.5 172.5 -70.5c47.668 -47 72.835 -107.167 75.501 -180.5zM292.997 417.999c-34.667 0 -66.6689 -10.667 -96.002 -32
s-47.666 -51 -54.999 -89h292c-8 39.333 -24.667 69.333 -50 90s-55.666 31 -90.999 31z" />
    <glyph glyph-name="eacute" unicode="&#xe9;" horiz-adv-x="577" 
d="M343 567h-89l73 142h122zM541 259l-0.00292969 -36.001h-402c4.66699 -44.667 21.334 -80.334 50.001 -107.001s62 -40 100 -40c68.667 0 117.334 28.667 146.001 86l93 -20c-20 -51.333 -50.833 -90.166 -92.5 -116.499s-90.5 -39.5 -146.5 -39.5
c-69.333 0 -128.833 24.333 -178.5 73s-74.5 111.334 -74.5 188.001c0 77.333 24.833 140.5 74.5 189.5s110.5 73.5 182.5 73.5c67.333 0 124.833 -23.5 172.5 -70.5c47.668 -47 72.835 -107.167 75.501 -180.5zM292.997 417.999c-34.667 0 -66.6689 -10.667 -96.002 -32
s-47.666 -51 -54.999 -89h292c-8 39.333 -24.667 69.333 -50 90s-55.666 31 -90.999 31z" />
    <glyph glyph-name="ecircumflex" unicode="&#xea;" horiz-adv-x="577" 
d="M234 559h-104l115 145h99l116 -145h-105l-60 77zM541 259l-0.00292969 -36.001h-402c4.66699 -44.667 21.334 -80.334 50.001 -107.001s62 -40 100 -40c68.667 0 117.334 28.667 146.001 86l93 -20c-20 -51.333 -50.833 -90.166 -92.5 -116.499s-90.5 -39.5 -146.5 -39.5
c-69.333 0 -128.833 24.333 -178.5 73s-74.5 111.334 -74.5 188.001c0 77.333 24.833 140.5 74.5 189.5s110.5 73.5 182.5 73.5c67.333 0 124.833 -23.5 172.5 -70.5c47.668 -47 72.835 -107.167 75.501 -180.5zM292.997 417.999c-34.667 0 -66.6689 -10.667 -96.002 -32
s-47.666 -51 -54.999 -89h292c-8 39.333 -24.667 69.333 -50 90s-55.666 31 -90.999 31z" />
    <glyph glyph-name="edieresis" unicode="&#xeb;" horiz-adv-x="577" 
d="M191 570c-19.334 0 -35.165 6 -47.498 18c-12.334 12 -18.501 27.333 -18.501 46c0 17.333 6.33301 32.5 18.999 45.5c12.667 13 28.334 19.5 47 19.5c18.667 0 34.334 -6.5 47 -19.5c12.667 -13 19 -28.167 19 -45.5c0 -18.667 -6.16699 -34 -18.5 -46
c-12.334 -12 -28.167 -18 -47.5 -18zM398.002 570c-19.333 0 -35.1699 6 -47.5029 18s-18.5 27.333 -18.5 46c0 17.333 6.33301 32.5 19 45.5s28.334 19.5 47.001 19.5s34.334 -6.5 47.001 -19.5s19 -28.167 19 -45.5c0 -18.667 -6.16699 -34 -18.5 -46
s-28.166 -18 -47.499 -18zM540.998 259l-0.00292969 -36.001h-402c4.66699 -44.667 21.334 -80.334 50.001 -107.001s62 -40 100 -40c68.667 0 117.334 28.667 146.001 86l93 -20c-20 -51.333 -50.833 -90.166 -92.5 -116.499s-90.5 -39.5 -146.5 -39.5
c-69.333 0 -128.833 24.333 -178.5 73s-74.5 111.334 -74.5 188.001c0 77.333 24.833 140.5 74.5 189.5s110.5 73.5 182.5 73.5c67.333 0 124.833 -23.5 172.5 -70.5c47.668 -47 72.835 -107.167 75.501 -180.5zM292.995 417.999c-34.667 0 -66.6689 -10.667 -96.002 -32
s-47.666 -51 -54.999 -89h292c-8 39.333 -24.667 69.333 -50 90s-55.666 31 -90.999 31z" />
    <glyph glyph-name="igrave" unicode="&#xec;" horiz-adv-x="287" 
d="M114 709l73 -142h-89l-106 142h122zM196 0h-104v496h104v-496z" />
    <glyph glyph-name="iacute" unicode="&#xed;" horiz-adv-x="287" 
d="M193 567h-89l73 142h122zM196 0h-104v496h104v-496z" />
    <glyph glyph-name="icircumflex" unicode="&#xee;" horiz-adv-x="287" 
d="M310 559h-105l-60 77l-61 -77h-104l115 145h99zM92 496h104v-496h-104v496z" />
    <glyph glyph-name="idieresis" unicode="&#xef;" horiz-adv-x="287" 
d="M41 699c18.667 0 34.3301 -6.5 46.9971 -19.5s19 -28.167 19 -45.5c0 -18.667 -6.16699 -34 -18.5 -46s-28.166 -18 -47.499 -18s-35.166 6 -47.499 18s-18.5 27.333 -18.5 46c0 17.333 6.33301 32.5 19 45.5s28.334 19.5 47.001 19.5zM247.996 699
c18.667 0 34.332 -6.5 46.999 -19.5s19 -28.167 19 -45.5c0 -18.667 -6.16699 -34 -18.5 -46s-28.166 -18 -47.499 -18c-19.334 0 -35.167 6 -47.5 18s-18.5 27.333 -18.5 46c0 17.333 6.33301 32.5 19 45.5s28.334 19.5 47 19.5zM195.994 0h-104v496h104v-496z" />
    <glyph glyph-name="eth" unicode="&#xf0;" horiz-adv-x="606" 
d="M461 647l-69.999 -29c52.667 -51.333 95.5 -109 128.5 -173s49.5 -128.667 49.5 -194c0 -82.667 -26.167 -147.5 -78.5 -194.5s-113.833 -70.5 -184.5 -70.5c-74.667 0 -138.334 24.5 -191.001 73.5s-79 111.833 -79 188.5s23.833 139.5 71.5 188.5
s107.5 73.5 179.5 73.5c34 0 65.333 -8 94 -24c-25.333 36 -53.333 67 -84 93l-135 -57l-30 72l91 39c-39.333 24 -85.333 46 -138 66v21h166c26 -14 50 -29 72 -45l108 46zM305.001 78c50 0 89.333 17.667 118 53s43 75.333 43 120c0 47.333 -16 87 -48 119s-70 48 -114 48
c-47.333 0 -86.833 -15.833 -118.5 -47.5s-47.5 -72.5 -47.5 -122.5c0 -49.333 16.333 -90 49 -122s72 -48 118 -48z" />
    <glyph glyph-name="ntilde" unicode="&#xf1;" horiz-adv-x="620" 
d="M264 629c-10 0 -18 -3.66699 -24 -11s-9 -17 -9 -29h-71c0 40.667 9.66699 70.167 29 88.5s42 27.5 68 27.5c22.667 0 45.5 -7.16699 68.5 -21.5s41.167 -21.5 54.5 -21.5c10 0 17.833 4 23.5 12s8.5 18.333 8.5 31h70c0 -42 -9.33301 -72.167 -28 -90.5
s-41.334 -27.5 -68 -27.5c-23.333 0 -46.333 7 -69 21s-40.334 21 -53 21zM355 510c59.333 0 107.333 -19.501 144 -58.501s55 -89.5 55 -151.5v-300h-105v279c0 40.667 -10.833 73.334 -32.5 98.001s-50.167 37 -85.5 37c-46 0 -82.167 -15.667 -108.5 -47
s-39.5 -77.333 -39.5 -138v-229h-104v496h104v-61c42 50 99.333 75 172 75z" />
    <glyph glyph-name="ograve" unicode="&#xf2;" horiz-adv-x="605" 
d="M257 570l-106 142h122l73 -142h-89zM303 507c74.667 0 137.5 -24.167 188.5 -72.5s76.5 -110.5 76.5 -186.5s-25.667 -138.333 -77 -187s-114 -73 -188 -73c-74.667 0 -137.834 24.333 -189.501 73s-77.5 111 -77.5 187s25.833 138.167 77.5 186.5
s114.834 72.5 189.501 72.5zM303 78c44 0 82.333 15.833 115 47.5s49 72.5 49 122.5s-16.333 90.833 -49 122.5s-71 47.5 -115 47.5c-45.333 0 -84.166 -15.833 -116.499 -47.5s-48.5 -72.5 -48.5 -122.5s16.167 -90.833 48.5 -122.5s71.166 -47.5 116.499 -47.5z" />
    <glyph glyph-name="oacute" unicode="&#xf3;" horiz-adv-x="605" 
d="M352 570h-89l73 142h122zM303 507c74.667 0 137.5 -24.167 188.5 -72.5s76.5 -110.5 76.5 -186.5s-25.667 -138.333 -77 -187s-114 -73 -188 -73c-74.667 0 -137.834 24.333 -189.501 73s-77.5 111 -77.5 187s25.833 138.167 77.5 186.5s114.834 72.5 189.501 72.5z
M303 78c44 0 82.333 15.833 115 47.5s49 72.5 49 122.5s-16.333 90.833 -49 122.5s-71 47.5 -115 47.5c-45.333 0 -84.166 -15.833 -116.499 -47.5s-48.5 -72.5 -48.5 -122.5s16.167 -90.833 48.5 -122.5s71.166 -47.5 116.499 -47.5z" />
    <glyph glyph-name="ocircumflex" unicode="&#xf4;" horiz-adv-x="605" 
d="M243 562h-104l115 145h99l116 -145h-105l-60 77zM303 507c74.667 0 137.5 -24.167 188.5 -72.5s76.5 -110.5 76.5 -186.5s-25.667 -138.333 -77 -187s-114 -73 -188 -73c-74.667 0 -137.834 24.333 -189.501 73s-77.5 111 -77.5 187s25.833 138.167 77.5 186.5
s114.834 72.5 189.501 72.5zM303 78c44 0 82.333 15.833 115 47.5s49 72.5 49 122.5s-16.333 90.833 -49 122.5s-71 47.5 -115 47.5c-45.333 0 -84.166 -15.833 -116.499 -47.5s-48.5 -72.5 -48.5 -122.5s16.167 -90.833 48.5 -122.5s71.166 -47.5 116.499 -47.5z" />
    <glyph glyph-name="otilde" unicode="&#xf5;" horiz-adv-x="605" 
d="M251 631c-10 0 -18 -3.66699 -24 -11s-9 -17 -9 -29h-71c0 40.667 9.66699 70.167 29 88.5s42 27.5 68 27.5c22.667 0 45.5 -7.16699 68.5 -21.5s41.167 -21.5 54.5 -21.5c10 0 17.833 4 23.5 12s8.5 18.333 8.5 31h70c0 -42 -9.33301 -72.167 -28 -90.5
s-41.334 -27.5 -68 -27.5c-23.333 0 -46.333 7 -69 21s-40.334 21 -53 21zM303 507c74.667 0 137.5 -24.167 188.5 -72.5s76.5 -110.5 76.5 -186.5s-25.667 -138.333 -77 -187s-114 -73 -188 -73c-74.667 0 -137.834 24.333 -189.501 73s-77.5 111 -77.5 187
s25.833 138.167 77.5 186.5s114.834 72.5 189.501 72.5zM303 78c44 0 82.333 15.833 115 47.5s49 72.5 49 122.5s-16.333 90.833 -49 122.5s-71 47.5 -115 47.5c-45.333 0 -84.166 -15.833 -116.499 -47.5s-48.5 -72.5 -48.5 -122.5s16.167 -90.833 48.5 -122.5
s71.166 -47.5 116.499 -47.5z" />
    <glyph glyph-name="odieresis" unicode="&#xf6;" horiz-adv-x="605" 
d="M200 573c-19.334 0 -35.167 6 -47.5 18s-18.5 27.333 -18.5 46c0 17.333 6.33301 32.5 19 45.5s28.334 19.5 47 19.5c18.667 0 34.334 -6.5 47 -19.5c12.667 -13 19 -28.167 19 -45.5c0 -18.667 -6.16699 -34 -18.5 -46c-12.334 -12 -28.167 -18 -47.5 -18zM407 573
c-19.333 0 -35.1699 6 -47.5029 18s-18.5 27.333 -18.5 46c0 17.333 6.33301 32.5 19 45.5s28.334 19.5 47.001 19.5s34.334 -6.5 47.001 -19.5s19 -28.167 19 -45.5c0 -18.667 -6.16699 -34 -18.5 -46s-28.166 -18 -47.499 -18zM302.996 507
c74.667 0 137.5 -24.167 188.5 -72.5s76.5 -110.5 76.5 -186.5s-25.667 -138.333 -77 -187s-114 -73 -188 -73c-74.667 0 -137.834 24.333 -189.501 73s-77.5 111 -77.5 187s25.833 138.167 77.5 186.5s114.834 72.5 189.501 72.5zM302.996 78c44 0 82.333 15.833 115 47.5
s49 72.5 49 122.5s-16.333 90.833 -49 122.5s-71 47.5 -115 47.5c-45.333 0 -84.166 -15.833 -116.499 -47.5s-48.5 -72.5 -48.5 -122.5s16.167 -90.833 48.5 -122.5s71.166 -47.5 116.499 -47.5z" />
    <glyph glyph-name="divide" unicode="&#xf7;" horiz-adv-x="580" 
d="M286 546c18.667 0 34.333 -6.33398 47 -19.001s19 -27.667 19 -45s-6.33301 -32.166 -19 -44.499s-28.334 -18.5 -47 -18.5c-18.667 0 -34.167 6 -46.5 18s-18.5 27 -18.5 45c0 17.334 6.16699 32.334 18.5 45c12.333 12.667 27.833 19 46.5 19zM514.999 258.999h-450v92
h450v-92zM285.999 191.999c18.667 0 34.333 -6.33301 47 -19s19 -27.667 19 -45c0 -18 -6.33301 -33 -19 -45s-28.334 -18 -47 -18c-18.667 0 -34.167 6 -46.5 18s-18.5 27 -18.5 45c0 17.333 6.16699 32.333 18.5 45s27.833 19 46.5 19z" />
    <glyph glyph-name="oslash" unicode="&#xf8;" horiz-adv-x="603" 
d="M565 459l-50.002 -50c35.333 -46 53 -99.667 53 -161c0 -76 -25.667 -138.333 -77 -187s-114 -73 -188 -73c-59.333 0 -112.666 16.333 -159.999 49l-52 -52l-52 52l51 51c-36 44.667 -54 98 -54 160c0 76 25.833 138.167 77.5 186.5s114.834 72.5 189.501 72.5
c60 0 112.667 -16 158 -48l52 52zM137.998 248c0 -34 7.66602 -63.667 22.999 -89l232 232c-28.667 18 -58.667 27 -90 27c-45.333 0 -84.166 -15.833 -116.499 -47.5s-48.5 -72.5 -48.5 -122.5zM302.997 78c44 0 82.332 15.833 114.999 47.5s49 72.5 49 122.5
c0 32 -8 62 -24 90l-232 -233c28.667 -18 59.334 -27 92.001 -27z" />
    <glyph glyph-name="ugrave" unicode="&#xf9;" horiz-adv-x="620" 
d="M260 567l-106 142h122l73 -142h-89zM541 496v-496h-104v61c-42 -50 -99 -75 -171 -75c-60 0 -108.167 19.5 -144.5 58.5s-54.5 89.833 -54.5 152.5v299h104v-278c0 -40.667 10.833 -73.5 32.5 -98.5s50.5 -37.5 86.5 -37.5c46 0 82 15.667 108 47s39 77.333 39 138v229
h104z" />
    <glyph glyph-name="uacute" unicode="&#xfa;" horiz-adv-x="620" 
d="M355 567h-89l73 142h122zM541 496v-496h-104v61c-42 -50 -99 -75 -171 -75c-60 0 -108.167 19.5 -144.5 58.5s-54.5 89.833 -54.5 152.5v299h104v-278c0 -40.667 10.833 -73.5 32.5 -98.5s50.5 -37.5 86.5 -37.5c46 0 82 15.667 108 47s39 77.333 39 138v229h104z" />
    <glyph glyph-name="ucircumflex" unicode="&#xfb;" horiz-adv-x="620" 
d="M246 559h-104l115 145h99l116 -145h-105l-60 77zM541 496v-496h-104v61c-42 -50 -99 -75 -171 -75c-60 0 -108.167 19.5 -144.5 58.5s-54.5 89.833 -54.5 152.5v299h104v-278c0 -40.667 10.833 -73.5 32.5 -98.5s50.5 -37.5 86.5 -37.5c46 0 82 15.667 108 47
s39 77.333 39 138v229h104z" />
    <glyph glyph-name="udieresis" unicode="&#xfc;" horiz-adv-x="620" 
d="M203 570c-19.334 0 -35.167 6 -47.5 18s-18.5 27.333 -18.5 46c0 17.333 6.33301 32.5 19 45.5s28.334 19.5 47 19.5c18.667 0 34.334 -6.5 47 -19.5c12.667 -13 19 -28.167 19 -45.5c0 -18.667 -6.16699 -34 -18.5 -46c-12.334 -12 -28.167 -18 -47.5 -18zM410 570
c-19.333 0 -35.1699 6 -47.5029 18s-18.5 27.333 -18.5 46c0 17.333 6.33301 32.5 19 45.5s28.334 19.5 47.001 19.5s34.334 -6.5 47.001 -19.5s19 -28.167 19 -45.5c0 -18.667 -6.16699 -34 -18.5 -46s-28.166 -18 -47.499 -18zM540.996 496v-496h-104v61
c-42 -50 -99 -75 -171 -75c-60 0 -108.167 19.5 -144.5 58.5s-54.5 89.833 -54.5 152.5v299h104v-278c0 -40.667 10.833 -73.5 32.5 -98.5s50.5 -37.5 86.5 -37.5c46 0 82 15.667 108 47s39 77.333 39 138v229h104z" />
    <glyph glyph-name="yacute" unicode="&#xfd;" horiz-adv-x="573" 
d="M330 569h-89l73 142h122zM560 497l-297 -667h-116l81 182l-214 485h116l155 -358l159 358h116z" />
    <glyph glyph-name="thorn" unicode="&#xfe;" horiz-adv-x="645" 
d="M363 510c66.667 0 124.332 -24.667 172.999 -74s73 -112 73 -188c0 -76.667 -24.167 -139.5 -72.5 -188.5s-106.166 -73.5 -173.499 -73.5c-74.667 0 -134.667 23.667 -180 71v-227h-104v890h104v-281c45.333 47.333 105.333 71 180 71zM345.998 78
c46.667 0 85.333 15.5 116 46.5s46 72.167 46 123.5s-15.333 92.5 -46 123.5s-69.334 46.5 -116 46.5c-43.333 0 -81.333 -15.833 -114 -47.5s-49 -72.5 -49 -122.5s16.333 -90.833 49 -122.5s70.667 -47.5 114 -47.5z" />
    <glyph glyph-name="ydieresis" unicode="&#xff;" horiz-adv-x="573" 
d="M178 572c-19.333 0 -35.168 6 -47.501 18s-18.5 27.333 -18.5 46c0 17.333 6.33301 32.5 19 45.5s28.334 19.5 47.001 19.5s34.334 -6.5 47 -19.5c12.667 -13 19 -28.167 19 -45.5c0 -18.667 -6.16699 -34 -18.5 -46c-12.334 -12 -28.167 -18 -47.5 -18zM384.998 572
c-19.333 0 -35.1699 6 -47.5029 18s-18.5 27.333 -18.5 46c0 17.333 6.33301 32.5 19 45.5s28.334 19.5 47.001 19.5s34.334 -6.5 47.001 -19.5s19 -28.167 19 -45.5c0 -18.667 -6.16699 -34 -18.5 -46s-28.166 -18 -47.499 -18zM559.994 497l-297 -667h-116l81 182
l-214 485h116l155 -358l159 358h116z" />
    <glyph glyph-name="Amacron" unicode="&#x100;" horiz-adv-x="700" 
d="M501 752h-301v85h301v-85zM695 0h-116l-66 156h-326l-66 -156h-116l295 670h100zM471 254l-121 285l-121 -285h242z" />
    <glyph glyph-name="amacron" unicode="&#x101;" horiz-adv-x="643" 
d="M461 578h-301v85h301v-85zM564 496l-0.00195312 -496h-104v57c-45.333 -47.333 -105.333 -71 -180 -71c-67.333 0 -125.166 24.5 -173.499 73.5s-72.5 111.833 -72.5 188.5c0 76 24.333 138.667 73 188s106.334 74 173.001 74c74.667 0 134.667 -23.667 180 -71v57h104z
M296.998 78c43.333 0 81.333 15.833 114 47.5s49 72.5 49 122.5s-16.333 90.833 -49 122.5s-70.667 47.5 -114 47.5c-46.667 0 -85.334 -15.5 -116.001 -46.5s-46 -72.167 -46 -123.5s15.333 -92.5 46 -123.5s69.334 -46.5 116.001 -46.5z" />
    <glyph glyph-name="Abreve" unicode="&#x102;" horiz-adv-x="700" 
d="M350 726c-47.333 0 -85.168 12.833 -113.501 38.5s-42.5 60.167 -42.5 103.5h87c0 -20.667 6.66699 -37.5 20 -50.5c13.334 -13 29.667 -19.5 49 -19.5c20 0 36.667 6.5 50 19.5s20 29.833 20 50.5h86c0 -43.333 -14.167 -77.833 -42.5 -103.5
s-66.166 -38.5 -113.499 -38.5zM694.998 0h-116l-66 156h-326l-66 -156h-116l295 670h100zM470.998 254l-121 285l-121 -285h242z" />
    <glyph glyph-name="abreve" unicode="&#x103;" horiz-adv-x="643" 
d="M310 552c-47.333 0 -85.168 12.833 -113.501 38.5s-42.5 60.167 -42.5 103.5h87c0 -20.667 6.66699 -37.5 20 -50.5c13.334 -13 29.667 -19.5 49 -19.5c20 0 36.667 6.5 50 19.5s20 29.833 20 50.5h86c0 -43.333 -14.167 -77.833 -42.5 -103.5
s-66.166 -38.5 -113.499 -38.5zM563.998 496l-0.00195312 -496h-104v57c-45.333 -47.333 -105.333 -71 -180 -71c-67.333 0 -125.166 24.5 -173.499 73.5s-72.5 111.833 -72.5 188.5c0 76 24.333 138.667 73 188s106.334 74 173.001 74c74.667 0 134.667 -23.667 180 -71v57
h104zM296.996 78c43.333 0 81.333 15.833 114 47.5s49 72.5 49 122.5s-16.333 90.833 -49 122.5s-70.667 47.5 -114 47.5c-46.667 0 -85.334 -15.5 -116.001 -46.5s-46 -72.167 -46 -123.5s15.333 -92.5 46 -123.5s69.334 -46.5 116.001 -46.5z" />
    <glyph glyph-name="Aogonek" unicode="&#x104;" horiz-adv-x="700" 
d="M711 -122l6 -65.001c-28 -12 -53.667 -18 -77 -18c-25.333 0 -46.5 7.16699 -63.5 21.5s-25.5 35.833 -25.5 64.5c0 20.667 5.33301 40 16 58s29 38.333 55 61h-43l-66 156h-326l-66 -156h-116l295 670h100l295 -670c-20.667 -22.667 -34 -37.5 -40 -44.5
s-11.833 -15.667 -17.5 -26s-8.5 -20.166 -8.5 -29.499c0 -22 11.333 -33 34 -33c8.66699 0 24.667 3.66699 48 11zM471 253.999l-121 285l-121 -285h242z" />
    <glyph glyph-name="aogonek" unicode="&#x105;" horiz-adv-x="643" 
d="M580 -122l5.99805 -65.001c-28 -12 -53.667 -18 -77 -18c-25.333 0 -46.5 7.16699 -63.5 21.5s-25.5 35.833 -25.5 64.5c0 20.667 5.33301 40 16 58s29 38.333 55 61h-31v57c-45.333 -47.333 -105.333 -71 -180 -71c-67.333 0 -125.166 24.5 -173.499 73.5
s-72.5 111.833 -72.5 188.5c0 76 24.333 138.667 73 188s106.334 74 173.001 74c74.667 0 134.667 -23.667 180 -71v57h104v-496c-20.667 -22.667 -34 -37.5 -40 -44.5s-11.833 -15.667 -17.5 -26s-8.5 -20.166 -8.5 -29.499c0 -22 11.333 -33 34 -33
c8.66699 0 24.667 3.66699 48 11zM296.998 77.999c43.333 0 81.333 15.833 114 47.5s49 72.5 49 122.5s-16.333 90.833 -49 122.5s-70.667 47.5 -114 47.5c-46.667 0 -85.334 -15.5 -116.001 -46.5s-46 -72.167 -46 -123.5s15.333 -92.5 46 -123.5
s69.334 -46.5 116.001 -46.5z" />
    <glyph glyph-name="Cacute" unicode="&#x106;" horiz-adv-x="770" 
d="M445 741h-89l73 142h122zM397 87c54 0 100.669 14.333 140.002 43s66.333 70.667 81 126l104 -22c-18 -77.333 -56.667 -138 -116 -182c-59.334 -44 -129.001 -66 -209.001 -66c-97.333 0 -179.833 33.667 -247.5 101s-101.5 150 -101.5 248
c0 97.334 33.833 179.834 101.5 247.5c67.667 67.667 150.167 101.5 247.5 101.5c79.333 0 148.666 -21.667 207.999 -65c59.333 -43.334 98.333 -101.667 117 -175l-104 -30c-14.667 55.333 -41.667 97.333 -81 126s-86 43 -140 43c-68 0 -125.167 -23.833 -171.5 -71.5
s-69.5 -106.5 -69.5 -176.5s23.167 -128.833 69.5 -176.5s103.5 -71.5 171.5 -71.5z" />
    <glyph glyph-name="cacute" unicode="&#x107;" horiz-adv-x="577" 
d="M348 567h-89l73 142h122zM298 82c74 0 122.665 34.667 145.998 104l96 -25c-13.334 -52.667 -42.501 -95 -87.5 -127c-45 -32 -96.5 -48 -154.5 -48c-72.667 0 -134.5 24.5 -185.5 73.5s-76.5 111.833 -76.5 188.5c0 76 25.5 138.667 76.5 188s112.833 74 185.5 74
c56.667 0 107.334 -15.833 152.001 -47.5s74.667 -73.834 90 -126.5l-100 -29c-9.33301 35.333 -26.666 62 -51.999 80s-55.333 27 -90 27c-46 0 -84.167 -15.5 -114.5 -46.5s-45.5 -70.833 -45.5 -119.5c0 -50 15 -90.167 45 -120.5s68.333 -45.5 115 -45.5z" />
    <glyph glyph-name="Cdotaccent" unicode="&#x10a;" horiz-adv-x="770" 
d="M395 752c-18.667 0 -34 6.00098 -46 18.001s-18 27 -18 45c0 17.333 6.16699 32.166 18.5 44.499s27.5 18.5 45.5 18.5s33.333 -6.16699 46 -18.5c12.667 -12.3369 19 -27.1699 19 -44.5c0 -18 -6.16699 -33 -18.5 -45s-27.833 -18 -46.5 -18zM397 87.001
c54 0 100.669 14.333 140.002 43s66.333 70.667 81 126l104 -22c-18 -77.333 -56.667 -138 -116 -182c-59.334 -44 -129.001 -66 -209.001 -66c-97.333 0 -179.833 33.667 -247.5 101s-101.5 150 -101.5 248c0 97.334 33.833 179.834 101.5 247.5
c67.667 67.667 150.167 101.5 247.5 101.5c79.333 0 148.666 -21.667 207.999 -65c59.333 -43.334 98.333 -101.667 117 -175l-104 -30c-14.667 55.333 -41.667 97.333 -81 126s-86 43 -140 43c-68 0 -125.167 -23.833 -171.5 -71.5s-69.5 -106.5 -69.5 -176.5
s23.167 -128.833 69.5 -176.5s103.5 -71.5 171.5 -71.5z" />
    <glyph glyph-name="cdotaccent" unicode="&#x10b;" horiz-adv-x="577" 
d="M298 578c-18.667 0 -34 6.00098 -46 18.001s-18 27 -18 45c0 17.333 6.16699 32.166 18.5 44.499s27.5 18.5 45.5 18.5s33.333 -6.16699 46 -18.5c12.667 -12.3359 19 -27.1689 19 -44.5c0 -18 -6.16699 -33 -18.5 -45s-27.833 -18 -46.5 -18zM298 82.001
c74 0 122.665 34.667 145.998 104l96 -25c-13.334 -52.667 -42.501 -95 -87.5 -127c-45 -32 -96.5 -48 -154.5 -48c-72.667 0 -134.5 24.5 -185.5 73.5s-76.5 111.833 -76.5 188.5c0 76 25.5 138.667 76.5 188s112.833 74 185.5 74c56.667 0 107.334 -15.833 152.001 -47.5
s74.667 -73.834 90 -126.5l-100 -29c-9.33301 35.333 -26.666 62 -51.999 80s-55.333 27 -90 27c-46 0 -84.167 -15.5 -114.5 -46.5s-45.5 -70.833 -45.5 -119.5c0 -50 15 -90.167 45 -120.5s68.333 -45.5 115 -45.5z" />
    <glyph glyph-name="Ccaron" unicode="&#x10c;" horiz-adv-x="770" 
d="M347 733l-115 146h104l61 -78l60 78h105l-116 -146h-99zM397 87c54 0 100.669 14.333 140.002 43s66.333 70.667 81 126l104 -22c-18 -77.333 -56.667 -138 -116 -182c-59.334 -44 -129.001 -66 -209.001 -66c-97.333 0 -179.833 33.667 -247.5 101
s-101.5 150 -101.5 248c0 97.334 33.833 179.834 101.5 247.5c67.667 67.667 150.167 101.5 247.5 101.5c79.333 0 148.666 -21.667 207.999 -65c59.333 -43.334 98.333 -101.667 117 -175l-104 -30c-14.667 55.333 -41.667 97.333 -81 126s-86 43 -140 43
c-68 0 -125.167 -23.833 -171.5 -71.5s-69.5 -106.5 -69.5 -176.5s23.167 -128.833 69.5 -176.5s103.5 -71.5 171.5 -71.5z" />
    <glyph glyph-name="ccaron" unicode="&#x10d;" horiz-adv-x="577" 
d="M250 559l-115 146h104l61 -78l60 78h105l-116 -146h-99zM298 82c74 0 122.665 34.667 145.998 104l96 -25c-13.334 -52.667 -42.501 -95 -87.5 -127c-45 -32 -96.5 -48 -154.5 -48c-72.667 0 -134.5 24.5 -185.5 73.5s-76.5 111.833 -76.5 188.5
c0 76 25.5 138.667 76.5 188s112.833 74 185.5 74c56.667 0 107.334 -15.833 152.001 -47.5s74.667 -73.834 90 -126.5l-100 -29c-9.33301 35.333 -26.666 62 -51.999 80s-55.333 27 -90 27c-46 0 -84.167 -15.5 -114.5 -46.5s-45.5 -70.833 -45.5 -119.5
c0 -50 15 -90.167 45 -120.5s68.333 -45.5 115 -45.5z" />
    <glyph glyph-name="Dcaron" unicode="&#x10e;" horiz-adv-x="730" 
d="M302 733l-115 146h104l61 -78l60 78h105l-116 -146h-99zM79 670h234c112.667 0 202.5 -31.167 269.5 -93.5c67 -62.334 100.5 -142.834 100.5 -241.5c0 -98.667 -33.5 -179.167 -100.5 -241.5s-156.833 -93.5 -269.5 -93.5h-234v670zM186 97h127c80 0 143.667 22 191 66
s71 101.333 71 172s-23.667 128 -71 172s-111 66 -191 66h-127v-476z" />
    <glyph glyph-name="dcaron" unicode="&#x10f;" horiz-adv-x="645" 
d="M462 720h105v-720h-105v56c-46.667 -46.667 -106.667 -70 -180 -70c-66.667 0 -124.334 24.667 -173.001 74s-73 112 -73 188s24.333 138.667 73 188s106.334 74 173.001 74c74 0 134 -23.667 180 -71v281zM741 720l-23 -186h-82v186h105zM299 78
c43.333 0 81.333 15.667 114 47s49 72.333 49 123c0 50 -16.333 90.833 -49 122.5s-70.667 47.5 -114 47.5c-46 0 -84.333 -15.667 -115 -47s-46 -72.333 -46 -123c0 -51.333 15.333 -92.5 46 -123.5s69 -46.5 115 -46.5z" />
    <glyph glyph-name="Dcroat" unicode="&#x110;" horiz-adv-x="739" 
d="M98 670h234c112.667 0 202.5 -31.167 269.5 -93.5c67 -62.334 100.5 -142.834 100.5 -241.5c0 -98.667 -33.5 -179.167 -100.5 -241.5s-156.833 -93.5 -269.5 -93.5h-234v288h-68v98h68v284zM205 97h127c80 0 143.5 22 190.5 66s70.5 101.333 70.5 172
s-23.5 128 -70.5 172s-110.5 66 -190.5 66h-127v-187h148v-98h-148v-191z" />
    <glyph glyph-name="dcroat" unicode="&#x111;" horiz-adv-x="667" 
d="M634 563h-67v-563h-105v56c-46.667 -46.667 -106.667 -70 -180 -70c-66.667 0 -124.334 24.667 -173.001 74s-73 112 -73 188s24.333 138.667 73 188s106.334 74 173.001 74c74 0 134 -23.667 180 -71v124h-159v84h159v73h105v-73h67v-84zM299 78
c43.333 0 81.333 15.667 114 47s49 72.333 49 123c0 50 -16.333 90.833 -49 122.5s-70.667 47.5 -114 47.5c-46 0 -84.333 -15.667 -115 -47s-46 -72.333 -46 -123c0 -51.333 15.333 -92.5 46 -123.5s69 -46.5 115 -46.5z" />
    <glyph glyph-name="Emacron" unicode="&#x112;" horiz-adv-x="636" 
d="M491 752h-301v85h301v-85zM578 97v-97h-499v670h498v-97h-391v-189h361v-96h-361v-191h392z" />
    <glyph glyph-name="emacron" unicode="&#x113;" horiz-adv-x="577" 
d="M445 578h-301v85h301v-85zM541 259l-0.00292969 -36.001h-402c4.66699 -44.667 21.334 -80.334 50.001 -107.001s62 -40 100 -40c68.667 0 117.334 28.667 146.001 86l93 -20c-20 -51.333 -50.833 -90.166 -92.5 -116.499s-90.5 -39.5 -146.5 -39.5
c-69.333 0 -128.833 24.333 -178.5 73s-74.5 111.334 -74.5 188.001c0 77.333 24.833 140.5 74.5 189.5s110.5 73.5 182.5 73.5c67.333 0 124.833 -23.5 172.5 -70.5c47.668 -47 72.835 -107.167 75.501 -180.5zM292.997 417.999c-34.667 0 -66.6689 -10.667 -96.002 -32
s-47.666 -51 -54.999 -89h292c-8 39.333 -24.667 69.333 -50 90s-55.666 31 -90.999 31z" />
    <glyph glyph-name="Edotaccent" unicode="&#x116;" horiz-adv-x="636" 
d="M339 752c-18.667 0 -34 6.00098 -46 18.001s-18 27 -18 45c0 17.333 6.16699 32.166 18.5 44.499s27.5 18.5 45.5 18.5s33.333 -6.16699 46 -18.5c12.667 -12.3369 19 -27.1699 19 -44.5c0 -18 -6.16699 -33 -18.5 -45s-27.833 -18 -46.5 -18zM578 97.001v-97h-499v670
h498v-97h-391v-189h361v-96h-361v-191h392z" />
    <glyph glyph-name="edotaccent" unicode="&#x117;" horiz-adv-x="577" 
d="M293 578c-18.667 0 -34 6.00098 -46 18.001s-18 27 -18 45c0 17.333 6.16699 32.166 18.5 44.499s27.5 18.5 45.5 18.5s33.333 -6.16699 46 -18.5c12.667 -12.3359 19 -27.1689 19 -44.5c0 -18 -6.16699 -33 -18.5 -45s-27.833 -18 -46.5 -18zM541 259.001
l-0.00292969 -36.001h-402c4.66699 -44.667 21.334 -80.334 50.001 -107.001s62 -40 100 -40c68.667 0 117.334 28.667 146.001 86l93 -20c-20 -51.333 -50.833 -90.166 -92.5 -116.499s-90.5 -39.5 -146.5 -39.5c-69.333 0 -128.833 24.333 -178.5 73
s-74.5 111.334 -74.5 188.001c0 77.333 24.833 140.5 74.5 189.5s110.5 73.5 182.5 73.5c67.333 0 124.833 -23.5 172.5 -70.5c47.668 -47 72.835 -107.167 75.501 -180.5zM292.997 418c-34.667 0 -66.6689 -10.667 -96.002 -32s-47.666 -51 -54.999 -89h292
c-8 39.333 -24.667 69.333 -50 90s-55.666 31 -90.999 31z" />
    <glyph glyph-name="Eogonek" unicode="&#x118;" horiz-adv-x="636" 
d="M578 0l-26 -0.000976562c-20.667 -22.667 -34 -37.5 -40 -44.5s-11.833 -15.667 -17.5 -26s-8.5 -20.166 -8.5 -29.499c0 -22 11.333 -33 34 -33c8.66699 0 24.667 3.66699 48 11l6 -65c-28 -12 -53.667 -18 -77 -18c-25.333 0 -46.5 7.16699 -63.5 21.5
s-25.5 35.833 -25.5 64.5c0 20.667 5.33301 40 16 58s29 38.333 55 61h-400v670h498v-97h-391v-189h361v-96h-361v-191h392v-97z" />
    <glyph glyph-name="eogonek" unicode="&#x119;" horiz-adv-x="577" 
d="M541 223h-402.002c4.66699 -44.667 21.167 -80.334 49.5 -107.001s61.5 -40 99.5 -40c71.333 0 120.666 29 147.999 87l92 -20c-11.333 -23.333 -32.666 -51.333 -63.999 -84c-34 -37.333 -58.167 -67 -72.5 -89s-21.5 -43.333 -21.5 -64
c0 -11.333 3.83301 -20.333 11.5 -27s17.834 -10 30.501 -10c9.33301 0 25 3.66699 47 11l6 -58c-26 -18 -52.333 -27 -79 -27c-29.333 0 -52.833 7.66699 -70.5 23s-26.5 36 -26.5 62c0 36 13 72.333 39 109c-12 -2 -25 -3 -39 -3c-70 0 -129.667 24.5 -179 73.5
s-74 111.833 -74 188.5s24.833 139.5 74.5 188.5s109.834 73.5 180.501 73.5c70 0 129 -24.167 177 -72.5s72.333 -110.166 73 -185.499v-29zM140.998 297h291.998c-6 40 -21.833 70.333 -47.5 91s-56.5 31 -92.5 31c-35.333 0 -67.666 -10.833 -96.999 -32.5
s-47.666 -51.5 -54.999 -89.5z" />
    <glyph glyph-name="Ecaron" unicode="&#x11a;" horiz-adv-x="636" 
d="M291 733l-115 146h104l61 -78l60 78h105l-116 -146h-99zM578 97v-97h-499v670h498v-97h-391v-189h361v-96h-361v-191h392z" />
    <glyph glyph-name="ecaron" unicode="&#x11b;" horiz-adv-x="577" 
d="M245 559l-115 146h104l61 -78l60 78h105l-116 -146h-99zM541 259l-0.00292969 -36.001h-402c4.66699 -44.667 21.334 -80.334 50.001 -107.001s62 -40 100 -40c68.667 0 117.334 28.667 146.001 86l93 -20c-20 -51.333 -50.833 -90.166 -92.5 -116.499
s-90.5 -39.5 -146.5 -39.5c-69.333 0 -128.833 24.333 -178.5 73s-74.5 111.334 -74.5 188.001c0 77.333 24.833 140.5 74.5 189.5s110.5 73.5 182.5 73.5c67.333 0 124.833 -23.5 172.5 -70.5c47.668 -47 72.835 -107.167 75.501 -180.5zM292.997 417.999
c-34.667 0 -66.6689 -10.667 -96.002 -32s-47.666 -51 -54.999 -89h292c-8 39.333 -24.667 69.333 -50 90s-55.666 31 -90.999 31z" />
    <glyph glyph-name="Gbreve" unicode="&#x11e;" horiz-adv-x="786" 
d="M402 726c-47.333 0 -85.168 12.833 -113.501 38.5s-42.5 60.167 -42.5 103.5h87c0 -20.667 6.66699 -37.5 20 -50.5c13.334 -13 29.667 -19.5 49 -19.5c20 0 36.667 6.5 50 19.5s20 29.833 20 50.5h86c0 -43.333 -14.167 -77.833 -42.5 -103.5
s-66.166 -38.5 -113.499 -38.5zM366.998 380l368.999 -0.000976562c1.33301 -24 2 -39.333 2 -46c0 -99.333 -31.667 -182.166 -95 -248.499s-144.333 -99.5 -243 -99.5s-182 33.667 -250 101s-102 150 -102 248c0 97.334 33.667 179.834 101 247.5
c67.333 67.667 150 101.5 248 101.5c73.333 0 139 -17.333 197 -52s98.667 -83.334 122 -146.001l-97 -34c-42.667 87.333 -116.667 131 -222 131c-67.333 0 -124.166 -23.833 -170.499 -71.5s-69.5 -106.5 -69.5 -176.5c0 -70.667 23.667 -129.667 71 -177
c47.334 -47.333 105.667 -71 175 -71c60.667 0 111.667 17.833 153 53.5s67 82.834 77 141.501h-266v98z" />
    <glyph glyph-name="gbreve" unicode="&#x11f;" horiz-adv-x="630" 
d="M304 552c-47.333 0 -85.168 12.833 -113.501 38.5s-42.5 60.167 -42.5 103.5h87c0 -20.667 6.66699 -37.5 20 -50.5c13.334 -13 29.667 -19.5 49 -19.5c20 0 36.667 6.5 50 19.5s20 29.833 20 50.5h86c0 -43.333 -14.167 -77.833 -42.5 -103.5
s-66.166 -38.5 -113.499 -38.5zM550.998 496l0.00292969 -452.001c0 -73.333 -23.167 -130.666 -69.5 -171.999s-108.833 -62 -187.5 -62c-118.667 0 -199.334 39.667 -242.001 119l85 63c19.333 -30.667 40.833 -53 64.5 -67s54.5 -21 92.5 -21
c47.334 0 85.167 13.833 113.5 41.5s42.5 65.5 42.5 113.5v32c-39.333 -41.333 -96.333 -62 -171 -62c-64.667 0 -121.334 23.333 -170.001 70s-73 103.667 -73 171s24.167 124 72.5 170s105.166 69 170.499 69c74.667 0 131.667 -20.667 171 -62v49h101zM296.001 118.999
c42 0 78.167 14.167 108.5 42.5s45.5 64.5 45.5 108.5c0 44.667 -15.167 81 -45.5 109s-66.5 42 -108.5 42c-45.333 0 -83.166 -13.833 -113.499 -41.5s-45.5 -64.167 -45.5 -109.5c0 -44.667 15.167 -81 45.5 -109s68.166 -42 113.499 -42z" />
    <glyph glyph-name="Gdotaccent" unicode="&#x120;" horiz-adv-x="786" 
d="M402 752c-18.667 0 -34 6.00098 -46 18.001s-18 27 -18 45c0 17.333 6.16699 32.166 18.5 44.499s27.5 18.5 45.5 18.5s33.333 -6.16699 46 -18.5c12.667 -12.3369 19 -27.1699 19 -44.5c0 -18 -6.16699 -33 -18.5 -45s-27.833 -18 -46.5 -18zM367 380.001
l368.999 -0.000976562c1.33301 -24 2 -39.333 2 -46c0 -99.333 -31.667 -182.166 -95 -248.499s-144.333 -99.5 -243 -99.5s-182 33.667 -250 101s-102 150 -102 248c0 97.334 33.667 179.834 101 247.5c67.333 67.667 150 101.5 248 101.5c73.333 0 139 -17.333 197 -52
s98.667 -83.334 122 -146.001l-97 -34c-42.667 87.333 -116.667 131 -222 131c-67.333 0 -124.166 -23.833 -170.499 -71.5s-69.5 -106.5 -69.5 -176.5c0 -70.667 23.667 -129.667 71 -177c47.334 -47.333 105.667 -71 175 -71c60.667 0 111.667 17.833 153 53.5
s67 82.834 77 141.501h-266v98z" />
    <glyph glyph-name="gdotaccent" unicode="&#x121;" horiz-adv-x="630" 
d="M303 578c-18.667 0 -34 6.00098 -46 18.001s-18 27 -18 45c0 17.333 6.16699 32.166 18.5 44.499s27.5 18.5 45.5 18.5s33.333 -6.16699 46 -18.5c12.667 -12.3359 19 -27.1689 19 -44.5c0 -18 -6.16699 -33 -18.5 -45s-27.833 -18 -46.5 -18zM551 496.001
l0.00292969 -452.001c0 -73.333 -23.167 -130.666 -69.5 -171.999s-108.833 -62 -187.5 -62c-118.667 0 -199.334 39.667 -242.001 119l85 63c19.333 -30.667 40.833 -53 64.5 -67s54.5 -21 92.5 -21c47.334 0 85.167 13.833 113.5 41.5s42.5 65.5 42.5 113.5v32
c-39.333 -41.333 -96.333 -62 -171 -62c-64.667 0 -121.334 23.333 -170.001 70s-73 103.667 -73 171s24.167 124 72.5 170s105.166 69 170.499 69c74.667 0 131.667 -20.667 171 -62v49h101zM296.003 119c42 0 78.167 14.167 108.5 42.5s45.5 64.5 45.5 108.5
c0 44.667 -15.167 81 -45.5 109s-66.5 42 -108.5 42c-45.333 0 -83.166 -13.833 -113.499 -41.5s-45.5 -64.167 -45.5 -109.5c0 -44.667 15.167 -81 45.5 -109s68.166 -42 113.499 -42z" />
    <glyph glyph-name="Gcommaaccent" unicode="&#x122;" horiz-adv-x="786" 
d="M367 380l368.999 -0.000976562c1.33301 -24 2 -39.333 2 -46c0 -99.333 -31.667 -182.166 -95 -248.499s-144.333 -99.5 -243 -99.5s-182 33.667 -250 101s-102 150 -102 248c0 97.334 33.667 179.834 101 247.5c67.333 67.667 150 101.5 248 101.5
c73.333 0 139 -17.333 197 -52s98.667 -83.334 122 -146.001l-97 -34c-42.667 87.333 -116.667 131 -222 131c-67.333 0 -124.166 -23.833 -170.499 -71.5s-69.5 -106.5 -69.5 -176.5c0 -70.667 23.667 -129.667 71 -177c47.334 -47.333 105.667 -71 175 -71
c60.667 0 111.667 17.833 153 53.5s67 82.834 77 141.501h-266v98zM336.999 -45.001h113l-84 -146h-79z" />
    <glyph glyph-name="gcommaaccent" unicode="&#x123;" horiz-adv-x="635" 
d="M370 567h-113l84 146h79zM551 496l0.00292969 -452.001c0 -73.333 -23.167 -130.666 -69.5 -171.999s-108.833 -62 -187.5 -62c-118.667 0 -199.334 39.667 -242.001 119l85 63c19.333 -30.667 40.833 -53 64.5 -67s54.5 -21 92.5 -21c47.334 0 85.167 13.833 113.5 41.5
s42.5 65.5 42.5 113.5v32c-39.333 -41.333 -96.333 -62 -171 -62c-64.667 0 -121.334 23.333 -170.001 70s-73 103.667 -73 171s24.167 124 72.5 170s105.166 69 170.499 69c74.667 0 131.667 -20.667 171 -62v49h101zM296.003 118.999c42 0 78.167 14.167 108.5 42.5
s45.5 64.5 45.5 108.5c0 44.667 -15.167 81 -45.5 109s-66.5 42 -108.5 42c-45.333 0 -83.166 -13.833 -113.499 -41.5s-45.5 -64.167 -45.5 -109.5c0 -44.667 15.167 -81 45.5 -109s68.166 -42 113.499 -42z" />
    <glyph glyph-name="Hbar" unicode="&#x126;" horiz-adv-x="765" 
d="M732 455h-66v-455h-107v258h-356v-258h-107v455h-66v90h66v125h107v-125h356v125h107v-125h66v-90zM559 455h-356v-99h356v99z" />
    <glyph glyph-name="hbar" unicode="&#x127;" horiz-adv-x="632" 
d="M373 510c60 0 108.167 -19.501 144.5 -58.501s54.5 -89.5 54.5 -151.5v-300h-104v279c0 40.667 -10.833 73.334 -32.5 98.001s-50.5 37 -86.5 37c-46 0 -82 -15.667 -108 -47s-39 -77.333 -39 -138v-229h-104v570h-68v77h68v73h104v-73h159v-77h-159v-135
c41.333 50 98.333 75 171 75z" />
    <glyph glyph-name="Imacron" unicode="&#x12a;" horiz-adv-x="265" 
d="M283 752h-302v85h302v-85zM186 0h-107v670h107v-670z" />
    <glyph glyph-name="imacron" unicode="&#x12b;" horiz-adv-x="287" 
d="M295 578h-302v85h302v-85zM196 0h-104v496h104v-496z" />
    <glyph glyph-name="Iogonek" unicode="&#x12e;" horiz-adv-x="265" 
d="M202 -122l6 -65.001c-28 -12 -53.667 -18 -77 -18c-25.333 0 -46.5 7.16699 -63.5 21.5s-25.5 35.833 -25.5 64.5c0 20.667 5.33301 40 16 58s29 38.333 55 61h-34v670h107v-670c-20.667 -22.667 -34 -37.5 -40 -44.5s-11.833 -15.667 -17.5 -26
s-8.5 -20.166 -8.5 -29.499c0 -22 11.333 -33 34 -33c8.66699 0 24.667 3.66699 48 11z" />
    <glyph glyph-name="iogonek" unicode="&#x12f;" horiz-adv-x="287" 
d="M143 578c-18.667 0 -34 6.00098 -46 18.001s-18 27 -18 45c0 17.333 6.16699 32.166 18.5 44.499s27.5 18.5 45.5 18.5s33.333 -6.16699 46 -18.5c12.667 -12.3359 19 -27.1689 19 -44.5c0 -18 -6.16699 -33 -18.5 -45s-27.833 -18 -46.5 -18zM212 -121.999l6 -65.001
c-28 -12 -53.667 -18 -77 -18c-25.333 0 -46.5 7.16699 -63.5 21.5s-25.5 35.833 -25.5 64.5c0 20.667 5.33301 40 16 58s29 38.333 55 61h-31v496h104v-496c-20.667 -22.667 -34 -37.5 -40 -44.5s-11.833 -15.667 -17.5 -26s-8.5 -20.166 -8.5 -29.499
c0 -22 11.333 -33 34 -33c8.66699 0 24.667 3.66699 48 11z" />
    <glyph glyph-name="Idotaccent" unicode="&#x130;" horiz-adv-x="265" 
d="M132 878c18 0 33.333 -6.16602 46 -18.499c12.667 -12.3369 19 -27.1699 19 -44.5c0 -18 -6.16699 -33 -18.5 -45s-27.833 -18 -46.5 -18s-34 6 -46 18s-18 27 -18 45c0 17.333 6.16699 32.166 18.5 44.499s27.5 18.5 45.5 18.5zM186 0.000976562h-107v670h107v-670z" />
    <glyph glyph-name="dotlessi" unicode="&#x131;" horiz-adv-x="287" 
d="M196 0h-104v496h104v-496z" />
    <glyph glyph-name="IJ" unicode="&#x132;" horiz-adv-x="861" 
d="M79 670h107v-670h-107v670zM789 670v-430c0 -74.667 -23.5 -135.667 -70.5 -183s-108.167 -71 -183.5 -71c-68.667 0 -125.167 19.833 -169.5 59.5s-71.5 92.5 -81.5 158.5l102 21c6 -42.667 21.833 -77 47.5 -103s59.5 -39 101.5 -39c43.333 0 78.5 14.667 105.5 44
s40.5 67 40.5 113v430h108z" />
    <glyph glyph-name="ij" unicode="&#x133;" horiz-adv-x="568" 
d="M139 710c18.667 0 34.334 -6.33301 47 -19c12.667 -12.667 19 -28 19 -46c0 -18.667 -6.16699 -34 -18.5 -46c-12.334 -12 -28.167 -18 -47.5 -18s-35.333 6 -48 18s-19 27.333 -19 46c0 18 6.33301 33.333 19 46s28.667 19 48 19zM429 710
c18.667 0 34.498 -6.33301 47.498 -19s19.5 -28 19.5 -46c0 -18.667 -6.33301 -34 -19 -46s-28.667 -18 -48 -18s-35.166 6 -47.499 18s-18.5 27.333 -18.5 46c0 18 6.33301 33.333 19 46s28.334 19 47.001 19zM190.998 0h-104v496h104v-496zM255.998 -162l21 91
c16.667 -7.33301 32 -11 46 -11c16.667 0 30.167 4.66699 40.5 14s15.5 21.333 15.5 36v528h104v-542c0 -40 -12.333 -72.333 -37 -97s-57.334 -37 -98 -37c-31.333 0 -62 6 -92 18z" />
    <glyph glyph-name="Kcommaaccent" unicode="&#x136;" horiz-adv-x="676" 
d="M663 0h-145l-295 282h-37v-282h-107v670h107v-290h29l293 290h133l-335 -336zM277 -45h113l-84 -146h-79z" />
    <glyph glyph-name="kcommaaccent" unicode="&#x137;" horiz-adv-x="586" 
d="M583 0h-141l-229 206h-30v-206h-104v720h104v-411h31l207 187h133l-260 -240zM237 -45h113l-84 -146h-79z" />
    <glyph glyph-name="Lacute" unicode="&#x139;" horiz-adv-x="589" 
d="M180 741h-89l73 142h122zM552 97v-97h-473v670h107v-573h366z" />
    <glyph glyph-name="lacute" unicode="&#x13a;" horiz-adv-x="262" 
d="M180 791h-89l73 142h122zM183 0h-104v720h104v-720z" />
    <glyph glyph-name="Lcommaaccent" unicode="&#x13b;" horiz-adv-x="589" 
d="M552 97v-97h-473v670h107v-573h366zM253 -45h113l-84 -146h-79z" />
    <glyph glyph-name="lcommaaccent" unicode="&#x13c;" horiz-adv-x="262" 
d="M183 0h-104v720h104v-720zM25 -191l50 146h113l-84 -146h-79z" />
    <glyph glyph-name="Lcaron" unicode="&#x13d;" horiz-adv-x="589" 
d="M552 97v-97h-473v670h107v-573h366zM385 484h-82v186h105z" />
    <glyph glyph-name="lcaron" unicode="&#x13e;" horiz-adv-x="262" 
d="M183 0h-104v720h104v-720zM331 534h-82v186h105z" />
    <glyph glyph-name="Ldot" unicode="&#x13f;" horiz-adv-x="582" 
d="M552 97v-97h-473v670h107v-573h366zM398 285c-18.667 0 -34 5.83203 -46 17.499s-18 26.834 -18 45.501c0 16.667 6.16699 31.167 18.5 43.5s27.5 18.5 45.5 18.5s33.333 -6.16699 46 -18.5s19 -26.833 19 -43.5c0 -18.667 -6.16699 -33.834 -18.5 -45.5
c-12.333 -11.667 -27.833 -17.5 -46.5 -17.5z" />
    <glyph glyph-name="ldot" unicode="&#x140;" horiz-adv-x="367" 
d="M183 0h-104v720h104v-720zM296 408c18 0 33.167 -6.16797 45.5 -18.501s18.5 -27.166 18.5 -44.499c0 -18 -6 -33 -18 -45s-27.333 -18 -46 -18s-34 6 -46 18s-18 27 -18 45c0 17.334 6 32.167 18 44.5s27.333 18.5 46 18.5z" />
    <glyph glyph-name="Lslash" unicode="&#x141;" horiz-adv-x="599" 
d="M569 97v-97h-473v231l-66 -31v101l66 31v338h108v-286l141 67v-101l-141 -67v-186h365z" />
    <glyph glyph-name="lslash" unicode="&#x142;" horiz-adv-x="311" 
d="M281 372l-73 -44v-328h-104v266l-74 -44v101l74 44v353h104v-291l73 44v-101z" />
    <glyph glyph-name="Nacute" unicode="&#x143;" horiz-adv-x="761" 
d="M436 741h-89l73 142h122zM682 670v-670h-91l-405 481v-481h-107v670h91l404 -489v489h108z" />
    <glyph glyph-name="nacute" unicode="&#x144;" horiz-adv-x="620" 
d="M366 567h-89l73 142h122zM355 510c59.333 0 107.333 -19.501 144 -58.501s55 -89.5 55 -151.5v-300h-105v279c0 40.667 -10.833 73.334 -32.5 98.001s-50.167 37 -85.5 37c-46 0 -82.167 -15.667 -108.5 -47s-39.5 -77.333 -39.5 -138v-229h-104v496h104v-61
c42 50 99.333 75 172 75z" />
    <glyph glyph-name="Ncommaaccent" unicode="&#x145;" horiz-adv-x="761" 
d="M682 670v-670h-91l-405 481v-481h-107v670h91l404 -489v489h108zM345 -45h113l-84 -146h-79z" />
    <glyph glyph-name="ncommaaccent" unicode="&#x146;" horiz-adv-x="620" 
d="M355 510c59.333 0 107.333 -19.501 144 -58.501s55 -89.5 55 -151.5v-300h-105v279c0 40.667 -10.833 73.334 -32.5 98.001s-50.167 37 -85.5 37c-46 0 -82.167 -15.667 -108.5 -47s-39.5 -77.333 -39.5 -138v-229h-104v496h104v-61c42 50 99.333 75 172 75zM264 -45.001
h113l-84 -146h-79z" />
    <glyph glyph-name="Ncaron" unicode="&#x147;" horiz-adv-x="761" 
d="M338 733l-115 146h104l61 -78l60 78h105l-116 -146h-99zM682 670v-670h-91l-405 481v-481h-107v670h91l404 -489v489h108z" />
    <glyph glyph-name="ncaron" unicode="&#x148;" horiz-adv-x="620" 
d="M268 559l-115 146h104l61 -78l60 78h105l-116 -146h-99zM355 510c59.333 0 107.333 -19.501 144 -58.501s55 -89.5 55 -151.5v-300h-105v279c0 40.667 -10.833 73.334 -32.5 98.001s-50.167 37 -85.5 37c-46 0 -82.167 -15.667 -108.5 -47s-39.5 -77.333 -39.5 -138v-229
h-104v496h104v-61c42 50 99.333 75 172 75z" />
    <glyph glyph-name="Eng" unicode="&#x14a;" horiz-adv-x="746" 
d="M682 670v-708.999c0 -40.667 -12.5 -74.334 -37.5 -101.001s-57.5 -40 -97.5 -40c-36.667 0 -71.667 7.66699 -105 23l19 81c22 -8.66699 42.333 -13 61 -13c16.667 0 30 4.5 40 13.5s15 21.167 15 36.5v56l-391 464v-481h-107v670h91l404 -489v489h108z" />
    <glyph glyph-name="eng" unicode="&#x14b;" horiz-adv-x="621" 
d="M355 510c59.333 0 107.332 -19.499 143.999 -58.499s55 -89.5 55 -151.5v-339c0 -40.667 -12.5 -74.334 -37.5 -101.001s-57.5 -40 -97.5 -40c-37.333 0 -72.666 7.66699 -105.999 23l20 80c24.667 -8.66699 44.667 -13 60 -13c16.667 0 30.167 4.66699 40.5 14
s15.5 21.666 15.5 36.999v318c0 40.667 -10.833 73.334 -32.5 98.001s-50.167 37 -85.5 37c-46 0 -82.167 -15.667 -108.5 -47s-39.5 -77.333 -39.5 -138v-229h-104v496h104v-61c42 50 99.333 75 172 75z" />
    <glyph glyph-name="Omacron" unicode="&#x14c;" horiz-adv-x="794" 
d="M548 752h-301v85h301v-85zM397 684c98 0 180.833 -33.999 248.5 -101.999s101.5 -150.667 101.5 -248s-33.833 -179.666 -101.5 -246.999s-150.5 -101 -248.5 -101s-180.667 33.667 -248 101s-101 149.666 -101 246.999c0 98 33.667 180.833 101 248.499
c67.333 67.667 150 101.5 248 101.5zM397 87.001c68 0 125.334 23.666 172 70.999c46.667 47.333 70 106 70 176c0 70.667 -23.333 129.834 -70 177.501s-104 71.5 -172 71.5s-125.167 -23.833 -171.5 -71.5s-69.5 -106.834 -69.5 -177.5c0 -70 23.167 -128.667 69.5 -176
s103.5 -71 171.5 -71z" />
    <glyph glyph-name="omacron" unicode="&#x14d;" horiz-adv-x="605" 
d="M454 581h-301v85h301v-85zM303 507c74.667 0 137.5 -24.167 188.5 -72.5s76.5 -110.5 76.5 -186.5s-25.667 -138.333 -77 -187s-114 -73 -188 -73c-74.667 0 -137.834 24.333 -189.501 73s-77.5 111 -77.5 187s25.833 138.167 77.5 186.5s114.834 72.5 189.501 72.5z
M303 78c44 0 82.333 15.833 115 47.5s49 72.5 49 122.5s-16.333 90.833 -49 122.5s-71 47.5 -115 47.5c-45.333 0 -84.166 -15.833 -116.499 -47.5s-48.5 -72.5 -48.5 -122.5s16.167 -90.833 48.5 -122.5s71.166 -47.5 116.499 -47.5z" />
    <glyph glyph-name="Ohungarumlaut" unicode="&#x150;" horiz-adv-x="794" 
d="M356 741h-94l73 142h129zM432 741l72 142h129l-107 -142h-94zM397 684c98 0 180.833 -33.999 248.5 -101.999s101.5 -150.667 101.5 -248s-33.833 -179.666 -101.5 -246.999s-150.5 -101 -248.5 -101s-180.667 33.667 -248 101s-101 149.666 -101 246.999
c0 98 33.667 180.833 101 248.499c67.333 67.667 150 101.5 248 101.5zM397 87.001c68 0 125.334 23.666 172 70.999c46.667 47.333 70 106 70 176c0 70.667 -23.333 129.834 -70 177.501s-104 71.5 -172 71.5s-125.167 -23.833 -171.5 -71.5s-69.5 -106.834 -69.5 -177.5
c0 -70 23.167 -128.667 69.5 -176s103.5 -71 171.5 -71z" />
    <glyph glyph-name="ohungarumlaut" unicode="&#x151;" horiz-adv-x="605" 
d="M262 570h-94l73 142h129zM338 570l72 142h129l-107 -142h-94zM303 507c74.667 0 137.5 -24.167 188.5 -72.5s76.5 -110.5 76.5 -186.5s-25.667 -138.333 -77 -187s-114 -73 -188 -73c-74.667 0 -137.834 24.333 -189.501 73s-77.5 111 -77.5 187
s25.833 138.167 77.5 186.5s114.834 72.5 189.501 72.5zM303 78c44 0 82.333 15.833 115 47.5s49 72.5 49 122.5s-16.333 90.833 -49 122.5s-71 47.5 -115 47.5c-45.333 0 -84.166 -15.833 -116.499 -47.5s-48.5 -72.5 -48.5 -122.5s16.167 -90.833 48.5 -122.5
s71.166 -47.5 116.499 -47.5z" />
    <glyph glyph-name="OE" unicode="&#x152;" horiz-adv-x="1038" 
d="M981 97v-96.999h-547c-116 0 -209.333 31.167 -280 93.5s-106 142.833 -106 241.5c0 98 35.333 178.333 106 240.999c70.667 62.667 164 94 280 94h545v-97h-390v-189h361v-96h-361v-191h392zM481 97.001v476h-47c-86 0 -153.833 -21.833 -203.5 -65.5
s-74.5 -101.167 -74.5 -172.5s24.833 -128.833 74.5 -172.5s117.5 -65.5 203.5 -65.5h47z" />
    <glyph glyph-name="oe" unicode="&#x153;" horiz-adv-x="1008" 
d="M972 259v-36h-402c4.66895 -44.667 21.3359 -80.334 50 -107.001c28.667 -26.667 62 -40 100 -40c68.668 0 117.335 28.667 146 86l93 -20c-20 -51.333 -50.833 -90.166 -92.5 -116.499s-90.5 -39.5 -146.5 -39.5c-40.667 0 -79 9 -115 27s-65.667 43.333 -89 76
c-24 -32 -54.667 -56.833 -92 -74.5s-77.666 -26.5 -120.999 -26.5c-74.667 0 -137.834 24.333 -189.501 73s-77.5 111 -77.5 187s25.833 138.167 77.5 186.5s114.834 72.5 189.501 72.5c43.334 0 83.667 -8.83301 121 -26.5s68 -42.5 92 -74.5
c23.333 33.333 53.166 59 89.499 77s75.833 27 118.5 27c67.333 0 124.833 -23.5 172.5 -70.5s72.834 -107.167 75.5 -180.5zM303 78c44 0 82.333 15.833 115 47.5s49 72.5 49 122.5s-16.333 90.833 -49 122.5s-71 47.5 -115 47.5c-45.333 0 -84.166 -15.833 -116.499 -47.5
s-48.5 -72.5 -48.5 -122.5s16.167 -90.833 48.5 -122.5s71.166 -47.5 116.499 -47.5zM724 418c-34.667 0 -66.667 -10.667 -96 -32c-29.3359 -21.333 -47.6689 -51 -55 -89h292c-8 39.333 -24.667 69.333 -50 90c-25.335 20.667 -55.668 31 -91 31z" />
    <glyph glyph-name="Racute" unicode="&#x154;" horiz-adv-x="672" 
d="M380 741h-89l73 142h122zM655 0l-132.999 -0.00195312l-239 267h-97v-267h-107v670h315c68.667 0 124.167 -18.5 166.5 -55.5s63.5 -85.833 63.5 -146.5c0 -57.333 -19.167 -104.166 -57.5 -140.499c-38.334 -36.333 -89.501 -56.166 -153.501 -59.499zM186.001 363.998
l207.999 0.000976562c36.667 0 66.334 9.5 89.001 28.5s34 44.167 34 75.5s-11.333 56.666 -34 75.999s-52.334 29 -89 29h-208v-209z" />
    <glyph glyph-name="racute" unicode="&#x155;" horiz-adv-x="420" 
d="M272 567h-89l73 142h122zM372 502c14.667 0 26.333 -1.33301 35 -4l-7 -100c-5.33301 0.666992 -15 1 -29 1c-61.333 0 -108 -19.833 -140 -59.5s-48 -94.5 -48 -164.5v-175h-104v496h104v-106c45.333 74.667 108.333 112 189 112z" />
    <glyph glyph-name="Rcommaaccent" unicode="&#x156;" horiz-adv-x="672" 
d="M655 0l-132.999 -0.00195312l-239 267h-97v-267h-107v670h315c68.667 0 124.167 -18.5 166.5 -55.5s63.5 -85.833 63.5 -146.5c0 -57.333 -19.167 -104.166 -57.5 -140.499c-38.334 -36.333 -89.501 -56.166 -153.501 -59.499zM186.001 363.998l207.999 0.000976562
c36.667 0 66.334 9.5 89.001 28.5s34 44.167 34 75.5s-11.333 56.666 -34 75.999s-52.334 29 -89 29h-208v-209zM289 -45.001h113l-84 -146h-79z" />
    <glyph glyph-name="rcommaaccent" unicode="&#x157;" horiz-adv-x="420" 
d="M372 502c14.667 0 26.333 -1.33301 35 -4l-7 -100c-5.33301 0.666992 -15 1 -29 1c-61.333 0 -108 -19.833 -140 -59.5s-48 -94.5 -48 -164.5v-175h-104v496h104v-106c45.333 74.667 108.333 112 189 112zM75.999 -45h113l-84 -146h-79z" />
    <glyph glyph-name="Rcaron" unicode="&#x158;" horiz-adv-x="672" 
d="M282 733l-115 146h104l61 -78l60 78h105l-116 -146h-99zM655 0l-132.999 -0.00195312l-239 267h-97v-267h-107v670h315c68.667 0 124.167 -18.5 166.5 -55.5s63.5 -85.833 63.5 -146.5c0 -57.333 -19.167 -104.166 -57.5 -140.499
c-38.334 -36.333 -89.501 -56.166 -153.501 -59.499zM186.001 363.998l207.999 0.000976562c36.667 0 66.334 9.5 89.001 28.5s34 44.167 34 75.5s-11.333 56.666 -34 75.999s-52.334 29 -89 29h-208v-209z" />
    <glyph glyph-name="rcaron" unicode="&#x159;" horiz-adv-x="420" 
d="M174 559l-115 146h104l61 -78l60 78h105l-116 -146h-99zM372 502c14.667 0 26.333 -1.33301 35 -4l-7 -100c-5.33301 0.666992 -15 1 -29 1c-61.333 0 -108 -19.833 -140 -59.5s-48 -94.5 -48 -164.5v-175h-104v496h104v-106c45.333 74.667 108.333 112 189 112z" />
    <glyph glyph-name="Sacute" unicode="&#x15a;" horiz-adv-x="634" 
d="M374 741h-89l73 142h122zM313 684c67.334 0 124.167 -16.998 170.5 -50.998s75.5 -80 87.5 -138l-107 -22c-6 35.333 -23 63.833 -51 85.5s-62 32.5 -102 32.5c-39.333 0 -71 -9.5 -95 -28.5s-36 -43.5 -36 -73.5c0 -23.333 6.83301 -41.666 20.5 -54.999
s35.167 -23 64.5 -29l145 -31c114.667 -25.333 172 -86.333 172 -183c0 -62.667 -23.5 -112.5 -70.5 -149.5s-109.167 -55.5 -186.5 -55.5c-74 0 -136.667 17.5 -188 52.5s-81 83.833 -89 146.5l114 24c8 -42 27.333 -73.833 58 -95.5s69 -32.5 115 -32.5
c44 0 78.5 9.5 103.5 28.5s37.5 44.167 37.5 75.5c0 25.333 -7.16699 44.666 -21.5 57.999c-14.333 13.334 -38.5 23.667 -72.5 30.999l-146 30c-112.667 26 -169 86.667 -169 182c0 59.333 22.5 107.166 67.5 143.499s104.5 54.5 178.5 54.5z" />
    <glyph glyph-name="sacute" unicode="&#x15b;" horiz-adv-x="504" 
d="M307 567h-89l73 142h122zM37 133l104.001 21.999c3.33301 -28 16.166 -49 38.499 -63s50.833 -21 85.5 -21c30 0 53.833 6 71.5 18s26.5 28 26.5 48c0 29.333 -22.333 49 -67 59l-108 22c-90 20 -135 65 -135 135c0 46.667 17.833 84.5 53.5 113.5
s83.167 43.5 142.5 43.5c56 0 102.5 -13.167 139.5 -39.5s60.167 -60.833 69.5 -103.5l-99 -21c-4 24.667 -16 44.334 -36 59.001s-45.667 22 -77 22c-28.667 0 -50.5 -6.16699 -65.5 -18.5s-22.5 -27.833 -22.5 -46.5c0 -28 20 -46.667 60 -56l118 -26
c40.667 -8.66699 72.334 -24.5 95.001 -47.5s34 -51.833 34 -86.5c0 -50.667 -19 -90 -57 -118s-88.667 -42 -152 -42c-58.667 0 -108.334 12.5 -149.001 37.5s-64 61.5 -70 109.5z" />
    <glyph glyph-name="Scedilla" unicode="&#x15e;" horiz-adv-x="634" 
d="M582 191c0 -56.667 -19.332 -102.998 -57.999 -138.998s-91 -57.333 -157 -64l-60 -153h-111l91 153c-64.667 6 -118.834 26 -162.501 60s-69.167 79.667 -76.5 137l114 24c8 -42 27.333 -73.833 58 -95.5s69 -32.5 115 -32.5c44 0 78.5 9.5 103.5 28.5
s37.5 44.167 37.5 75.5c0 25.333 -7.16699 44.666 -21.5 57.999c-14.333 13.334 -38.5 23.667 -72.5 30.999l-146 30c-112.667 26 -169 86.667 -169 182c0 59.333 22.5 107.166 67.5 143.499s104.5 54.5 178.5 54.5c67.334 0 124.167 -17 170.5 -51s75.5 -80 87.5 -138
l-107 -22c-6 35.333 -23 63.833 -51 85.5s-62 32.5 -102 32.5c-39.333 0 -71 -9.5 -95 -28.5s-36 -43.5 -36 -73.5c0 -23.333 6.83301 -41.666 20.5 -54.999s35.167 -23 64.5 -29l145 -31c114.667 -25.333 172 -86.333 172 -183z" />
    <glyph glyph-name="scedilla" unicode="&#x15f;" horiz-adv-x="504" 
d="M465 146c0 -43.333 -14 -78.501 -42 -105.501s-66.667 -44.167 -116 -51.5l-61 -154h-111l90 152c-51.333 4 -94 18.5 -128 43.5s-54 59.167 -60 102.5l104 22c3.33301 -28 16.166 -49 38.499 -63s50.833 -21 85.5 -21c30 0 53.833 6 71.5 18s26.5 28 26.5 48
c0 29.333 -22.333 49 -67 59l-108 22c-90 20 -135 65 -135 135c0 46.667 17.833 84.5 53.5 113.5s83.167 43.5 142.5 43.5c56 0 102.5 -13.167 139.5 -39.5s60.167 -60.833 69.5 -103.5l-99 -21c-4 24.667 -16 44.334 -36 59.001s-45.667 22 -77 22
c-28.667 0 -50.5 -6.16699 -65.5 -18.5s-22.5 -27.833 -22.5 -46.5c0 -28 20 -46.667 60 -56l118 -26c40.667 -8.66699 72.334 -24.5 95.001 -47.5s34 -51.833 34 -86.5z" />
    <glyph glyph-name="Scaron" unicode="&#x160;" horiz-adv-x="634" 
d="M276 733l-115 146h104l61 -78l60 78h105l-116 -146h-99zM265 405l145 -30.998c114.667 -25.333 172 -86.333 172 -183c0 -62.667 -23.5 -112.5 -70.5 -149.5s-109.167 -55.5 -186.5 -55.5c-74 0 -136.667 17.5 -188 52.5s-81 83.833 -89 146.5l114 24
c8 -42 27.333 -73.833 58 -95.5s69 -32.5 115 -32.5c44 0 78.5 9.5 103.5 28.5s37.5 44.167 37.5 75.5c0 25.333 -7.16699 44.666 -21.5 57.999c-14.333 13.334 -38.5 23.667 -72.5 30.999l-146 30c-112.667 26 -169 86.667 -169 182c0 59.333 22.5 107.166 67.5 143.499
s104.5 54.5 178.5 54.5c67.334 0 124.167 -17 170.5 -51s75.5 -80 87.5 -138l-107 -22c-6 35.333 -23 63.833 -51 85.5s-62 32.5 -102 32.5c-39.333 0 -71 -9.5 -95 -28.5s-36 -43.5 -36 -73.5c0 -23.333 6.83301 -41.666 20.5 -54.999s35.167 -23 64.5 -29z" />
    <glyph glyph-name="scaron" unicode="&#x161;" horiz-adv-x="504" 
d="M209 559l-115 146h104l61 -78l60 78h105l-116 -146h-99zM218 306l118.001 -26.001c40.667 -8.66699 72.334 -24.5 95.001 -47.5s34 -51.833 34 -86.5c0 -50.667 -19 -90 -57 -118s-88.667 -42 -152 -42c-58.667 0 -108.334 12.5 -149.001 37.5s-64 61.5 -70 109.5l104 22
c3.33301 -28 16.166 -49 38.499 -63s50.833 -21 85.5 -21c30 0 53.833 6 71.5 18s26.5 28 26.5 48c0 29.333 -22.333 49 -67 59l-108 22c-90 20 -135 65 -135 135c0 46.667 17.833 84.5 53.5 113.5s83.167 43.5 142.5 43.5c56 0 102.5 -13.167 139.5 -39.5
s60.167 -60.833 69.5 -103.5l-99 -21c-4 24.667 -16 44.334 -36 59.001s-45.667 22 -77 22c-28.667 0 -50.5 -6.16699 -65.5 -18.5s-22.5 -27.833 -22.5 -46.5c0 -28 20 -46.667 60 -56z" />
    <glyph glyph-name="tcedilla" unicode="&#x163;" horiz-adv-x="414" 
d="M377 111l32 -87c-38.667 -23.333 -76.334 -36 -113 -38l-60 -151h-111l95 160c-75.333 22.667 -113 80.667 -113 174v241h-107v86h107v154h104v-154h170v-86h-170v-234c0 -30 7.33301 -52.833 22 -68.5s34.667 -23.5 60 -23.5c28.667 0 56.667 9 84 27z" />
    <glyph glyph-name="Tcaron" unicode="&#x164;" horiz-adv-x="625" 
d="M264 733l-115 146h104l61 -78l60 78h105l-116 -146h-99zM602 573h-236v-573h-108v573h-235v97h579v-97z" />
    <glyph glyph-name="tcaron" unicode="&#x165;" horiz-adv-x="414" 
d="M353 542h-82v186h105zM377 111l32 -87c-42.667 -25.333 -83.667 -38 -123 -38c-55.333 0 -99 15.5 -131 46.5s-48 76.5 -48 136.5v241h-107v86h107v154h104v-154h170v-86h-170v-234c0 -30 7.33301 -52.833 22 -68.5s34.667 -23.5 60 -23.5c28.667 0 56.667 9 84 27z" />
    <glyph glyph-name="Tbar" unicode="&#x166;" horiz-adv-x="630" 
d="M366 573v-193h127v-90h-127v-290h-108v290h-126v90h126v193h-235v97h579v-97h-236z" />
    <glyph glyph-name="tbar" unicode="&#x167;" horiz-adv-x="414" 
d="M372 111l20.999 -91c-37.333 -22.667 -74.666 -34 -111.999 -34c-55.333 0 -99 15.5 -131 46.5s-48 76.5 -48 136.5v85h-90v85h90v71h-101v86h101v154h104v-154h170v-86h-170v-71h132v-85h-132v-78c0 -30 7.33301 -52.833 22 -68.5s34.667 -23.5 60 -23.5
c28.667 0 56.667 9 84 27z" />
    <glyph glyph-name="Umacron" unicode="&#x16a;" horiz-adv-x="716" 
d="M509 752h-301v85h301v-85zM644 670v-373.999c0 -92.667 -26 -167.5 -78 -224.5s-120.333 -85.5 -205 -85.5c-86.667 0 -156.5 28.5 -209.5 85.5s-79.5 131.833 -79.5 224.5v374h107v-374c0 -62.667 16.667 -112.834 50 -150.501s77.333 -56.5 132 -56.5
c52.667 0 95.167 19 127.5 57s48.5 88 48.5 150v374h107z" />
    <glyph glyph-name="umacron" unicode="&#x16b;" horiz-adv-x="620" 
d="M457 578h-301v85h301v-85zM541 496v-496h-104v61c-42 -50 -99 -75 -171 -75c-60 0 -108.167 19.5 -144.5 58.5s-54.5 89.833 -54.5 152.5v299h104v-278c0 -40.667 10.833 -73.5 32.5 -98.5s50.5 -37.5 86.5 -37.5c46 0 82 15.667 108 47s39 77.333 39 138v229h104z" />
    <glyph glyph-name="Uring" unicode="&#x16e;" horiz-adv-x="716" 
d="M358 722c-30.667 0 -56.8359 10.5 -78.502 31.5c-21.667 21 -32.5 46.167 -32.5 75.5c0 30 10.833 55.5 32.5 76.5s47.834 31.5 78.501 31.5c31.334 0 57.667 -10.5 79 -31.5s32 -46.5 32 -76.5s-10.667 -55.333 -32 -76s-47.666 -31 -78.999 -31zM357.998 876
c-14 0 -25.667 -4.5 -35 -13.5s-14 -20.167 -14 -33.5c0 -12.667 4.66699 -23.667 14 -33s21 -14 35 -14s25.667 4.66699 35 14s14 20.333 14 33c0 13.333 -4.66699 24.5 -14 33.5s-21 13.5 -35 13.5zM643.998 670v-373.999c0 -92.667 -26 -167.5 -78 -224.5
s-120.333 -85.5 -205 -85.5c-86.667 0 -156.5 28.5 -209.5 85.5s-79.5 131.833 -79.5 224.5v374h107v-374c0 -62.667 16.667 -112.834 50 -150.501s77.333 -56.5 132 -56.5c52.667 0 95.167 19 127.5 57s48.5 88 48.5 150v374h107z" />
    <glyph glyph-name="uring" unicode="&#x16f;" horiz-adv-x="620" 
d="M306 547c-30.667 0 -56.834 10.5 -78.501 31.5s-32.5 46.167 -32.5 75.5c0 30 10.833 55.5 32.5 76.5s47.834 31.5 78.501 31.5c31.333 0 57.666 -10.5 78.999 -31.5s32 -46.5 32 -76.5s-10.667 -55.333 -32 -76s-47.666 -31 -78.999 -31zM306 701
c-14 0 -25.667 -4.5 -35 -13.5s-14 -20.167 -14 -33.5c0 -12.667 4.66699 -23.667 14 -33s21 -14 35 -14s25.667 4.66699 35 14s14 20.333 14 33c0 13.333 -4.66699 24.5 -14 33.5s-21 13.5 -35 13.5zM541 496v-496h-104v61c-42 -50 -99 -75 -171 -75
c-60 0 -108.167 19.5 -144.5 58.5s-54.5 89.833 -54.5 152.5v299h104v-278c0 -40.667 10.833 -73.5 32.5 -98.5s50.5 -37.5 86.5 -37.5c46 0 82 15.667 108 47s39 77.333 39 138v229h104z" />
    <glyph glyph-name="Uhungarumlaut" unicode="&#x170;" horiz-adv-x="716" 
d="M317 741h-94l73 142h129zM393 741l72 142h129l-107 -142h-94zM644 670v-373.999c0 -92.667 -26 -167.5 -78 -224.5s-120.333 -85.5 -205 -85.5c-86.667 0 -156.5 28.5 -209.5 85.5s-79.5 131.833 -79.5 224.5v374h107v-374c0 -62.667 16.667 -112.834 50 -150.501
s77.333 -56.5 132 -56.5c52.667 0 95.167 19 127.5 57s48.5 88 48.5 150v374h107z" />
    <glyph glyph-name="uhungarumlaut" unicode="&#x171;" horiz-adv-x="620" 
d="M265 567h-94l73 142h129zM341 567l72 142h129l-107 -142h-94zM437 496h104v-496h-104v61c-42 -50 -99 -75 -171 -75c-60 0 -108.167 19.5 -144.5 58.5s-54.5 89.833 -54.5 152.5v299h104v-278c0 -40.667 10.833 -73.5 32.5 -98.5s50.5 -37.5 86.5 -37.5
c46 0 82 15.667 108 47s39 77.333 39 138v229z" />
    <glyph glyph-name="Uogonek" unicode="&#x172;" horiz-adv-x="716" 
d="M545 51c-32 -29.333 -53.499 -49.5 -64.499 -60.5s-20.833 -23.667 -29.5 -38s-13 -29.166 -13 -44.499c0 -10.667 3.66699 -19.334 11 -26.001c7.33496 -6.66699 16.668 -10 28 -10c9.33398 0 27.667 4.66699 55 14l20 -66c-35.334 -18 -69.001 -27 -101.001 -27
c-28.667 0 -52.5 7.83301 -71.5 23.5s-28.5 36.167 -28.5 61.5c0 38.667 18 76 54 112c-13.333 -2.66699 -28 -4 -44 -4c-86.667 0 -156.5 27.833 -209.5 83.5s-79.5 128.5 -79.5 218.5v382h107v-382c0 -60 16.667 -108.167 50 -144.5s77.333 -54.5 132 -54.5
c52.667 0 95.167 18.167 127.5 54.5s48.5 84.5 48.5 144.5v382h107v-382c0 -95.333 -33 -174.333 -99 -237z" />
    <glyph glyph-name="uogonek" unicode="&#x173;" horiz-adv-x="620" 
d="M558 -122l6 -65.001c-28 -12 -53.667 -18 -77 -18c-25.333 0 -46.5 7.16699 -63.5 21.5s-25.5 35.833 -25.5 64.5c0 20.667 5.33301 40 16 58s29 38.333 55 61h-32v61c-42 -50 -99 -75 -171 -75c-60 0 -108.167 19.5 -144.5 58.5s-54.5 89.833 -54.5 152.5v299h104v-278
c0 -40.667 10.833 -73.5 32.5 -98.5s50.5 -37.5 86.5 -37.5c46 0 82 15.667 108 47s39 77.333 39 138v229h104v-496h1c-20.667 -22.667 -34 -37.5 -40 -44.5s-11.833 -15.667 -17.5 -26s-8.5 -20.166 -8.5 -29.499c0 -22 11.333 -33 34 -33c8.66699 0 24.667 3.66699 48 11z
" />
    <glyph glyph-name="Wcircumflex" unicode="&#x174;" horiz-adv-x="958" 
d="M419 733h-104l115 145h99l116 -145h-105l-60 77zM944 670l-201 -670h-114l-150 498l-151 -498h-114l-200 670h112l147 -505l154 505h103l154 -505l147 505h113z" />
    <glyph glyph-name="wcircumflex" unicode="&#x175;" horiz-adv-x="778" 
d="M329 559h-104l115 145h99l116 -145h-105l-60 77zM764 496l-166 -498h-95l-114 334l-114 -334h-95l-166 498h104l113 -345l117 345h82l117 -345l113 345h104z" />
    <glyph glyph-name="Ycircumflex" unicode="&#x176;" horiz-adv-x="681" 
d="M280 733h-104l115 145h99l116 -145h-105l-60 77zM392 224v-224h-107v222l-271 448h119l206 -336l205 336h123z" />
    <glyph glyph-name="ycircumflex" unicode="&#x177;" horiz-adv-x="573" 
d="M221 561h-104l115 145h99l116 -145h-105l-60 77zM560 497l-297 -667h-116l81 182l-214 485h116l155 -358l159 358h116z" />
    <glyph glyph-name="Ydieresis" unicode="&#x178;" horiz-adv-x="681" 
d="M237 744c-19.334 0 -35.1689 6 -47.502 18s-18.5 27.333 -18.5 46c0 17.333 6.33301 32.5 19 45.5s28.334 19.5 47 19.5c18.667 0 34.334 -6.5 47.001 -19.5s19 -28.167 19 -45.5c0 -18.667 -6.16699 -34 -18.5 -46s-28.166 -18 -47.499 -18zM443.998 744
c-19.333 0 -35.1699 6 -47.5029 18s-18.5 27.333 -18.5 46c0 17.333 6.33301 32.5 19 45.5s28.334 19.5 47.001 19.5s34.334 -6.5 47.001 -19.5s19 -28.167 19 -45.5c0 -18.667 -6.16699 -34 -18.5 -46s-28.166 -18 -47.499 -18zM391.994 224v-224h-107v222l-271 448h119
l206 -336l205 336h123z" />
    <glyph glyph-name="Zacute" unicode="&#x179;" horiz-adv-x="625" 
d="M368 741h-89l73 142h122zM579 92v-92h-526v69l384 509h-373v92h510v-80l-369 -498h374z" />
    <glyph glyph-name="zacute" unicode="&#x17a;" horiz-adv-x="515" 
d="M313 567h-89l73 142h122zM475 86v-86h-435v69l295 341h-287v86h415v-70l-295 -340h307z" />
    <glyph glyph-name="Zdotaccent" unicode="&#x17b;" horiz-adv-x="625" 
d="M319 752c-18.667 0 -34 6.00098 -46 18.001s-18 27 -18 45c0 17.333 6.16699 32.166 18.5 44.499s27.5 18.5 45.5 18.5s33.333 -6.16699 46 -18.5c12.667 -12.3369 19 -27.1699 19 -44.5c0 -18 -6.16699 -33 -18.5 -45s-27.833 -18 -46.5 -18zM579 92.001v-92h-526v69
l384 509h-373v92h510v-80l-369 -498h374z" />
    <glyph glyph-name="zdotaccent" unicode="&#x17c;" horiz-adv-x="515" 
d="M263 578c-18.667 0 -34 6.00098 -46 18.001s-18 27 -18 45c0 17.333 6.16699 32.166 18.5 44.499s27.5 18.5 45.5 18.5s33.333 -6.16699 46 -18.5c12.667 -12.3359 19 -27.1689 19 -44.5c0 -18 -6.16699 -33 -18.5 -45s-27.833 -18 -46.5 -18zM475 86.001v-86h-435v69
l295 341h-287v86h415v-70l-295 -340h307z" />
    <glyph glyph-name="Zcaron" unicode="&#x17d;" horiz-adv-x="625" 
d="M270 733l-115 146h104l61 -78l60 78h105l-116 -146h-99zM579 92v-92h-526v69l384 509h-373v92h510v-80l-369 -498h374z" />
    <glyph glyph-name="zcaron" unicode="&#x17e;" horiz-adv-x="515" 
d="M215 559l-115 146h104l61 -78l60 78h105l-116 -146h-99zM475 86v-86h-435v69l295 341h-287v86h415v-70l-295 -340h307z" />
    <glyph glyph-name="florin" unicode="&#x192;" horiz-adv-x="569" 
d="M431 590c-27.333 0 -50.334 -8.33398 -69.001 -25.001s-30.667 -40 -36 -70l-22 -121h171v-86h-187l-54 -298c-8.66699 -47.333 -28.834 -85 -60.501 -113s-70.5 -42 -116.5 -42c-31.333 0 -62 8.66699 -92 26l34 84c19.333 -8 39 -12 59 -12
c18.667 0 34.834 5.33301 48.501 16s22.167 24.334 25.5 41.001l53 298h-112v86h127l22 121c10.667 57.333 35 103 73 137s85.333 51 142 51c44.667 0 83.334 -12 116.001 -36l-37 -85c-24 18.667 -52.333 28 -85 28z" />
    <glyph glyph-name="AEacute" unicode="&#x1fc;" horiz-adv-x="1041" 
d="M725 741h-89l73 142h122zM998 97v-97h-499v139h-276l-94 -139h-124l465 670h527v-97h-391v-189h361v-96h-361v-191h392zM499 236v313l-211 -313h211z" />
    <glyph glyph-name="aeacute" unicode="&#x1fd;" horiz-adv-x="914" 
d="M499 567h-89l73 142h122zM878 213l-391.997 0.000976562c7.33398 -43.333 24.167 -77 50.499 -101c26.333 -24 59.833 -36 100.5 -36c26 0 51.667 6.83301 77 20.5s44.666 35.167 57.999 64.5l93 -20c-12.667 -46 -40.667 -83.333 -84 -112s-92 -43 -146 -43
c-87.333 0 -154.333 33.333 -201 100c-20.667 -30 -49.5 -54.167 -86.5 -72.5s-77.833 -27.5 -122.5 -27.5c-60.667 0 -107.334 14.667 -140.001 44s-49 66.333 -49 111c0 45.333 17.5 81.166 52.5 107.499s83.167 39.5 144.5 39.5h157v30c0 31.333 -10.333 56.5 -31 75.5
s-48 28.5 -82 28.5c-32.667 0 -59.334 -7.83301 -80.001 -23.5s-33 -37.5 -37 -65.5l-95 21c5.33301 46 27.333 83.5 66 112.5s88 43.5 148 43.5c78 0 136 -26.333 174 -79c46.667 52.667 106.334 79 179.001 79c69.333 0 127.5 -24.333 174.5 -73
s70.833 -111.334 71.5 -188v-36zM486.003 288.001h286.999c-6.66699 42.667 -22.5 75.5 -47.5 98.5s-54.833 34.5 -89.5 34.5c-38 0 -71.167 -11.667 -99.5 -35s-45.166 -56 -50.499 -98zM390.002 213.001l-157.001 -0.000976562c-30.667 0 -54.5 -6.16699 -71.5 -18.5
c-17 -12.334 -25.5 -29.167 -25.5 -50.5c0 -22 9 -39.833 27 -53.5s42.667 -20.5 74 -20.5c40.667 0 76.334 12.833 107.001 38.5s46 56.834 46 93.501v11z" />
    <glyph glyph-name="Scommaaccent" unicode="&#x218;" horiz-adv-x="634" 
d="M313 684c67.334 0 124.167 -16.998 170.5 -50.998s75.5 -80 87.5 -138l-107 -22c-6 35.333 -23 63.833 -51 85.5s-62 32.5 -102 32.5c-39.333 0 -71 -9.5 -95 -28.5s-36 -43.5 -36 -73.5c0 -23.333 6.83301 -41.666 20.5 -54.999s35.167 -23 64.5 -29l145 -31
c114.667 -25.333 172 -86.333 172 -183c0 -62.667 -23.5 -112.5 -70.5 -149.5s-109.167 -55.5 -186.5 -55.5c-74 0 -136.667 17.5 -188 52.5s-81 83.833 -89 146.5l114 24c8 -42 27.333 -73.833 58 -95.5s69 -32.5 115 -32.5c44 0 78.5 9.5 103.5 28.5
s37.5 44.167 37.5 75.5c0 25.333 -7.16699 44.666 -21.5 57.999c-14.333 13.334 -38.5 23.667 -72.5 30.999l-146 30c-112.667 26 -169 86.667 -169 182c0 59.333 22.5 107.166 67.5 143.499s104.5 54.5 178.5 54.5zM217 -190.998l50 146h113l-84 -146h-79z" />
    <glyph glyph-name="scommaaccent" unicode="&#x219;" horiz-adv-x="504" 
d="M37 133l104.001 21.999c3.33301 -28 16.166 -49 38.499 -63s50.833 -21 85.5 -21c30 0 53.833 6 71.5 18s26.5 28 26.5 48c0 29.333 -22.333 49 -67 59l-108 22c-90 20 -135 65 -135 135c0 46.667 17.833 84.5 53.5 113.5s83.167 43.5 142.5 43.5
c56 0 102.5 -13.167 139.5 -39.5s60.167 -60.833 69.5 -103.5l-99 -21c-4 24.667 -16 44.334 -36 59.001s-45.667 22 -77 22c-28.667 0 -50.5 -6.16699 -65.5 -18.5s-22.5 -27.833 -22.5 -46.5c0 -28 20 -46.667 60 -56l118 -26c40.667 -8.66699 72.334 -24.5 95.001 -47.5
s34 -51.833 34 -86.5c0 -50.667 -19 -90 -57 -118s-88.667 -42 -152 -42c-58.667 0 -108.334 12.5 -149.001 37.5s-64 61.5 -70 109.5zM156.001 -191.001l50 146h113l-84 -146h-79z" />
    <glyph glyph-name="uni021A" unicode="&#x21a;" horiz-adv-x="625" 
d="M602 670v-97h-236v-573h-108v573h-235v97h579zM259 -45h113l-84 -146h-79z" />
    <glyph glyph-name="uni021B" unicode="&#x21b;" horiz-adv-x="414" 
d="M286 -14c-55.333 0 -99 15.5 -131 46.5s-48 76.5 -48 136.5v241h-107v86h107v154h104v-154h170v-86h-170v-234c0 -30 7.33301 -52.833 22 -68.5s34.667 -23.5 60 -23.5c28.667 0 56.667 9 84 27l32 -87c-42.667 -25.333 -83.667 -38 -123 -38zM196 -45h113l-84 -146h-79z
" />
    <glyph glyph-name="circumflex" unicode="&#x2c6;" horiz-adv-x="600" 
d="M361 559l-60 77l-61 -77h-104l115 145h99l116 -145h-105z" />
    <glyph glyph-name="caron" unicode="&#x2c7;" horiz-adv-x="600" 
d="M466 705l-116 -146h-99l-115 146h104l61 -78l60 78h105z" />
    <glyph glyph-name="breve" unicode="&#x2d8;" horiz-adv-x="600" 
d="M300 551c-47.333 0 -85.168 12.833 -113.501 38.5s-42.5 60.167 -42.5 103.5h87c0 -20.667 6.66699 -37.5 20 -50.5c13.334 -13 29.667 -19.5 49 -19.5c20 0 36.667 6.5 50 19.5s20 29.833 20 50.5h86c0 -43.333 -14.167 -77.833 -42.5 -103.5
s-66.166 -38.5 -113.499 -38.5z" />
    <glyph glyph-name="dotaccent" unicode="&#x2d9;" horiz-adv-x="600" 
d="M300 704c18 0 33.333 -6.16602 46 -18.499c12.667 -12.3359 19 -27.1689 19 -44.5c0 -18 -6.16699 -33 -18.5 -45s-27.833 -18 -46.5 -18s-34 6 -46 18s-18 27 -18 45c0 17.333 6.16699 32.166 18.5 44.499s27.5 18.5 45.5 18.5z" />
    <glyph glyph-name="ring" unicode="&#x2da;" horiz-adv-x="600" 
d="M411 654c0 -30 -10.668 -55.333 -32.001 -76s-47.666 -31 -78.999 -31c-30.667 0 -56.834 10.5 -78.501 31.5s-32.5 46.167 -32.5 75.5c0 30 10.833 55.5 32.5 76.5s47.834 31.5 78.501 31.5c31.334 0 57.667 -10.5 79 -31.5s32 -46.5 32 -76.5zM348.999 654
c0 13.333 -4.66699 24.5 -14 33.5s-21 13.5 -35 13.5s-25.667 -4.5 -35 -13.5s-14 -20.167 -14 -33.5c0 -12.667 4.66699 -23.667 14 -33s21 -14 35 -14s25.667 4.66699 35 14s14 20.333 14 33z" />
    <glyph glyph-name="ogonek" unicode="&#x2db;" horiz-adv-x="600" 
d="M255 1l72 -1.00098c-20.667 -22.667 -34 -37.5 -40 -44.5s-11.833 -15.667 -17.5 -26s-8.5 -20.166 -8.5 -29.499c0 -22 11.333 -33 34 -33c8.66699 0 24.667 3.66699 48 11l6 -65c-28 -12 -53.667 -18 -77 -18c-25.333 0 -46.5 7.16699 -63.5 21.5
s-25.5 35.833 -25.5 64.5c0 20.667 5.33301 40 16 58s29.334 38.667 56 62z" />
    <glyph glyph-name="tilde" unicode="&#x2dc;" horiz-adv-x="600" 
d="M215 589h-71c0 40.667 9.66699 70.167 29 88.5s42 27.5 68 27.5c22.667 0 45.5 -7.16699 68.5 -21.5s41.167 -21.5 54.5 -21.5c10 0 17.833 4 23.5 12s8.5 18.333 8.5 31h70c0 -42 -9.33301 -72.167 -28 -90.5s-41.334 -27.5 -68 -27.5c-23.333 0 -46.333 7 -69 21
s-40.334 21 -53 21c-10 0 -18 -3.66699 -24 -11s-9 -17 -9 -29z" />
    <glyph glyph-name="hungarumlaut" unicode="&#x2dd;" horiz-adv-x="600" 
d="M221 567h-94l73 142h129zM391 567h-94l72 142h129z" />
    <glyph glyph-name="uni0326" unicode="&#x326;" horiz-adv-x="0" 
d="M210 -191l50 146h113l-84 -146h-79z" />
    <glyph glyph-name="Wgrave" unicode="&#x1e80;" horiz-adv-x="958" 
d="M433 741l-106 142h122l73 -142h-89zM944 670l-201 -670h-114l-150 498l-151 -498h-114l-200 670h112l147 -505l154 505h103l154 -505l147 505h113z" />
    <glyph glyph-name="wgrave" unicode="&#x1e81;" horiz-adv-x="778" 
d="M344 567l-106 142h122l73 -142h-89zM764 496l-166 -498h-95l-114 334l-114 -334h-95l-166 498h104l113 -345l117 345h82l117 -345l113 345h104z" />
    <glyph glyph-name="Wacute" unicode="&#x1e82;" horiz-adv-x="958" 
d="M528 741h-89l73 142h122zM944 670l-201 -670h-114l-150 498l-151 -498h-114l-200 670h112l147 -505l154 505h103l154 -505l147 505h113z" />
    <glyph glyph-name="wacute" unicode="&#x1e83;" horiz-adv-x="778" 
d="M438 567h-89l73 142h122zM764 496l-166 -498h-95l-114 334l-114 -334h-95l-166 498h104l113 -345l117 345h82l117 -345l113 345h104z" />
    <glyph glyph-name="Wdieresis" unicode="&#x1e84;" horiz-adv-x="958" 
d="M376 744c-19.333 0 -35.1699 6 -47.5029 18s-18.5 27.333 -18.5 46c0 17.333 6.33301 32.5 19 45.5s28.334 19.5 47.001 19.5s34.334 -6.5 47.001 -19.5s19 -28.167 19 -45.5c0 -18.667 -6.16699 -34 -18.5 -46s-28.166 -18 -47.499 -18zM582.996 744
c-19.3359 0 -35.1689 6 -47.5 18c-12.333 12 -18.5 27.333 -18.5 46c0 17.333 6.33301 32.5 19 45.5c12.6689 13 28.3359 19.5 47 19.5c18.6689 0 34.3359 -6.5 47 -19.5c12.667 -13 19 -28.167 19 -45.5c0 -18.667 -6.16699 -34 -18.5 -46
c-12.3359 -12 -28.1689 -18 -47.5 -18zM943.996 670l-201 -670h-114l-150 498l-151 -498h-114l-200 670h112l147 -505l154 505h103l154 -505l147 505h113z" />
    <glyph glyph-name="wdieresis" unicode="&#x1e85;" horiz-adv-x="778" 
d="M286 570c-19.333 0 -35.1699 6 -47.5029 18s-18.5 27.333 -18.5 46c0 17.333 6.33301 32.5 19 45.5s28.334 19.5 47.001 19.5s34.334 -6.5 47.001 -19.5s19 -28.167 19 -45.5c0 -18.667 -6.16699 -34 -18.5 -46s-28.166 -18 -47.499 -18zM492.996 570
c-19.333 0 -35.1699 6 -47.5029 18s-18.5 27.333 -18.5 46c0 17.333 6.33301 32.5 19 45.5s28.334 19.5 47.001 19.5s34.334 -6.5 47.001 -19.5s19 -28.167 19 -45.5c0 -18.667 -6.16699 -34 -18.5 -46c-12.335 -12 -28.168 -18 -47.499 -18zM763.992 496l-166 -498h-95
l-114 334l-114 -334h-95l-166 498h104l113 -345l117 345h82l117 -345l113 345h104z" />
    <glyph glyph-name="Ygrave" unicode="&#x1ef2;" horiz-adv-x="681" 
d="M294 741l-106 142h122l73 -142h-89zM392 224v-224h-107v222l-271 448h119l206 -336l205 336h123z" />
    <glyph glyph-name="ygrave" unicode="&#x1ef3;" horiz-adv-x="573" 
d="M235 569l-106 142h122l73 -142h-89zM560 497l-297 -667h-116l81 182l-214 485h116l155 -358l159 358h116z" />
    <glyph glyph-name="endash" unicode="&#x2013;" horiz-adv-x="620" 
d="M560 215h-500v80h500v-80z" />
    <glyph glyph-name="emdash" unicode="&#x2014;" horiz-adv-x="1040" 
d="M980 215h-920v80h920v-80z" />
    <glyph glyph-name="quoteleft" unicode="&#x2018;" horiz-adv-x="266" 
d="M146 670h79l-63 -265h-121v2z" />
    <glyph glyph-name="quoteright" unicode="&#x2019;" horiz-adv-x="266" 
d="M121 405h-80l63 265h121v-3z" />
    <glyph glyph-name="quotesinglbase" unicode="&#x201a;" horiz-adv-x="266" 
d="M121 -132h-80l63 266h121v-3z" />
    <glyph glyph-name="quotedblleft" unicode="&#x201c;" horiz-adv-x="444" 
d="M146 670h79l-63 -265h-121v2zM323 670h79l-63 -265h-121v2z" />
    <glyph glyph-name="quotedblright" unicode="&#x201d;" horiz-adv-x="444" 
d="M121 405h-80l63 265h121v-3zM298 405h-79l63 265h121v-3z" />
    <glyph glyph-name="quotedblbase" unicode="&#x201e;" horiz-adv-x="444" 
d="M121 -132h-80l63 266h121v-3zM298 -132h-79l63 266h121v-3z" />
    <glyph glyph-name="dagger" unicode="&#x2020;" horiz-adv-x="381" 
d="M339 650v-68h-112v-244h-73v244h-111v68h111v90h73v-90h112z" />
    <glyph glyph-name="daggerdbl" unicode="&#x2021;" horiz-adv-x="381" 
d="M227 582v-86h112v-68h-112v-90h-73v90h-111v68h111v86h-111v68h111v90h73v-90h112v-68h-112z" />
    <glyph glyph-name="bullet" unicode="&#x2022;" horiz-adv-x="410" 
d="M205 416c45.333 0 83.333 -15.333 114 -46s46 -67 46 -109c0 -44 -15.167 -80.667 -45.5 -110s-68.5 -44 -114.5 -44s-84.167 14.667 -114.5 44s-45.5 66 -45.5 110c0 42 15.333 78.333 46 109s68.667 46 114 46z" />
    <glyph glyph-name="ellipsis" unicode="&#x2026;" horiz-adv-x="711" 
d="M111 123c18.667 0 34.167 -6.16699 46.5 -18.5s18.5 -27.166 18.5 -44.499c0 -18 -6.16699 -33.167 -18.5 -45.5s-27.833 -18.5 -46.5 -18.5s-34.334 6.16699 -47.001 18.5s-19 27.5 -19 45.5c0 17.333 6.33301 32.166 19 44.499s28.334 18.5 47.001 18.5zM356 123
c18.667 0 34.166 -6.16699 46.499 -18.5s18.5 -27.166 18.5 -44.499c0 -18 -6.16699 -33.167 -18.5 -45.5s-27.833 -18.5 -46.5 -18.5s-34.334 6.16699 -47 18.5c-12.667 12.333 -19 27.5 -19 45.5c0 17.333 6.33301 32.166 19 44.499s28.334 18.5 47.001 18.5zM600.999 123
c18.667 0 34.168 -6.16699 46.501 -18.5s18.5 -27.166 18.5 -44.499c0 -18 -6.16699 -33.167 -18.5 -45.5s-27.833 -18.5 -46.5 -18.5s-34.334 6.16699 -47.001 18.5s-19 27.5 -19 45.5c0 17.333 6.33301 32.166 19 44.499c12.6689 12.333 28.3359 18.5 47 18.5z" />
    <glyph glyph-name="perthousand" unicode="&#x2030;" horiz-adv-x="1235" 
d="M211 684c46 0 85.167 -14.833 117.5 -44.5s48.5 -68.5 48.5 -116.5c0 -46.667 -16.167 -85 -48.5 -115s-71.5 -45 -117.5 -45s-85.167 15 -117.5 45s-48.5 68.333 -48.5 115c0 48 16.167 86.833 48.5 116.5s71.5 44.5 117.5 44.5zM133 0l496 670h71l-496 -670h-71z
M211 612c-23.333 0 -43.665 -8.16699 -60.998 -24.5s-26 -37.5 -26 -63.5c0 -26.667 8.66699 -48.167 26 -64.5s37.666 -24.5 60.999 -24.5s43.666 8.16699 60.999 24.5s26 37.833 26 64.5c0 26 -8.66699 47.167 -26 63.5c-17.334 16.333 -37.667 24.5 -61 24.5z
M629.001 307c46 0 85.167 -14.833 117.5 -44.5s48.5 -68.167 48.5 -115.5s-16.167 -86 -48.5 -116s-71.5 -45 -117.5 -45s-85.167 15 -117.5 45s-48.5 68.667 -48.5 116s16.167 85.833 48.5 115.5s71.5 44.5 117.5 44.5zM1024 307c46 0 85.167 -14.833 117.5 -44.5
s48.5 -68.167 48.5 -115.5s-16.167 -86 -48.5 -116s-71.5 -45 -117.5 -45s-85.167 15 -117.5 45s-48.5 68.667 -48.5 116s16.167 85.833 48.5 115.5s71.5 44.5 117.5 44.5zM629.001 236c-23.3359 0 -43.667 -8.16699 -60.998 -24.5c-17.333 -16.333 -26 -37.833 -26 -64.5
c0 -26 8.66699 -47.167 26 -63.5s37.666 -24.5 60.999 -24.5s43.666 8.16699 60.999 24.5s26 37.5 26 63.5c0 26.667 -8.66699 48.167 -26 64.5c-17.3359 16.333 -37.6689 24.5 -61 24.5zM1024 236c-23.334 0 -43.667 -8.16699 -60.999 -24.5
c-17.333 -16.333 -26 -37.833 -26 -64.5c0 -26 8.66699 -47.167 26 -63.5s37.666 -24.5 60.999 -24.5c23.335 0 43.668 8.16699 60.999 24.5c17.333 16.333 26 37.5 26 63.5c0 26.667 -8.66699 48.167 -26 64.5s-37.666 24.5 -60.999 24.5z" />
    <glyph glyph-name="guilsinglleft" unicode="&#x2039;" horiz-adv-x="271" 
d="M25 262l117 178h104l-117 -178l117 -178h-104z" />
    <glyph glyph-name="guilsinglright" unicode="&#x203a;" horiz-adv-x="271" 
d="M25 84l117 178l-117 178h104l117 -178l-117 -178h-104z" />
    <glyph glyph-name="fraction" unicode="&#x2044;" horiz-adv-x="227" 
d="M-178 0l497 670h71l-497 -670h-71z" />
    <glyph glyph-name="Euro" unicode="&#x20ac;" horiz-adv-x="785" 
d="M465 87c39.333 0 73.4971 13 102.497 39s50.5 64.667 64.5 116l106 -23c-18 -71.333 -51 -128 -99 -170s-106 -63 -174 -63c-68.667 0 -127.167 21.167 -175.5 63.5s-81.166 100.166 -98.499 173.499h-112v77h101c-0.666992 7.33301 -1 19 -1 35
c0 14.667 0.333008 25.334 1 32.001h-101v76h111c16.667 74 49.5 132.667 98.5 176s107.833 65 176.5 65c68 0 126 -21 174 -63s81 -98.667 99 -170l-109 -22c-11.334 50.667 -31.667 89.167 -61 115.5s-63.666 39.5 -102.999 39.5c-38.667 0 -72.167 -12.5 -100.5 -37.5
s-49.166 -59.5 -62.499 -103.5h234l-18 -76h-229c-0.666992 -6.66797 -1 -17.335 -1 -32c0 -16 0.333008 -27.667 1 -35h212l-18 -77h-179c13.333 -42.667 34 -76 62 -100s61 -36 99 -36z" />
    <glyph glyph-name="uni2116" unicode="&#x2116;" horiz-adv-x="1211" 
d="M956 340c-48 0 -89.167 15.833 -123.5 47.5s-51.5 72.5 -51.5 122.5s17.167 90.833 51.5 122.5s75.5 47.5 123.5 47.5c49.333 0 91 -15.833 125 -47.5s51 -72.5 51 -122.5s-17 -90.833 -51 -122.5s-75.667 -47.5 -125 -47.5zM574 670h108v-670h-91l-405 481v-481h-107
v670h91l404 -489v489zM956 603c-24 0 -45 -8.83203 -63 -26.499s-27 -39.834 -27 -66.501c0 -26.668 9 -48.835 27 -66.501c18 -17.667 39 -26.5 63 -26.5c25.333 0 47.166 8.83301 65.499 26.5s27.5 39.834 27.5 66.501c0 26.6689 -9.16699 48.8359 -27.5 66.5
c-18.334 17.667 -40.167 26.5 -65.499 26.5zM791 276.001h331v-85h-331v85z" />
    <glyph glyph-name="uni2117" unicode="&#x2117;" horiz-adv-x="766" 
d="M381 684c96.667 0 178.834 -33.333 246.501 -100s101.5 -150.334 101.5 -251.001c0 -99.333 -33.833 -182 -101.5 -248s-149.834 -99 -246.501 -99c-97.333 0 -180 33 -248 99s-102 148.667 -102 248c0 100.667 34 184.334 102 251.001s150.667 100 248 100zM381 34
c82 0 151.834 28.499 209.5 85.499c57.667 57 86.5 128.5 86.5 214.5c0 86.667 -28.833 158.834 -86.5 216.501s-127.5 86.5 -209.5 86.5c-82.667 0 -153 -28.833 -211 -86.5s-87 -129.834 -87 -216.5c0 -86 29 -157.5 87 -214.5s128.333 -85.5 211 -85.5zM251.001 515.999
h165c43.333 0 78 -11.5 104 -34.5s39 -53.5 39 -91.5c0 -39.333 -12.833 -70.833 -38.5 -94.5s-60.5 -35.5 -104.5 -35.5h-101v-112h-64v368zM315.001 318.999h97c25.333 0 45.666 6.5 60.999 19.5s23 30.167 23 51.5c0 20.667 -7.66699 37.167 -23 49.5
s-35.666 18.5 -60.999 18.5h-97v-139z" />
    <glyph glyph-name="trademark" unicode="&#x2122;" horiz-adv-x="659" 
d="M275 618h-89v-217h-62v217h-88v52h239v-52zM612 401h-58v159l-73 -158h-37l-73 158v-159h-58v269h67l83 -171l83 171h66v-269z" />
    <glyph glyph-name="oneeighth" unicode="&#x215b;" horiz-adv-x="784" 
d="M100 568l-78 -49v82l105 69h50v-375h-77v273zM637 670l-496 -670h-71l496 670h71zM672 193c50.667 -15.333 76.001 -46.999 76.001 -94.999c0 -31.333 -13.667 -57.333 -41 -78s-63.333 -31 -108 -31s-80.834 10.333 -108.501 31s-41.5 46.667 -41.5 78
c0 48.667 25 80.667 75 96c-40 15.333 -60 42.666 -60 81.999c0 28.667 13 52.834 39 72.501s58.333 29.5 97 29.5c38 0 69.833 -9.83301 95.5 -29.5s38.5 -43.834 38.5 -72.501c0 -39.333 -20.667 -67 -62 -83zM599.001 322.001c-19.333 0 -35.333 -5 -48 -15
s-19 -23 -19 -39c0 -14 6.5 -26 19.5 -36s28.833 -15 47.5 -15s34.167 4.83301 46.5 14.5s18.833 21.834 19.5 36.5c0 16 -6.16699 29 -18.5 39c-12.3359 10 -28.1689 15 -47.5 15zM599.001 51.001c20 0 36.668 5.16699 50.001 15.5s20 23.833 20 40.5
c0 16 -6.33301 29.333 -19 40s-29.667 16 -51 16c-21.3359 0 -38.6689 -5.16699 -52 -15.5c-13.333 -10.333 -20 -23.833 -20 -40.5s6.66699 -30.167 20 -40.5s30.666 -15.5 51.999 -15.5z" />
    <glyph glyph-name="threeeighths" unicode="&#x215c;" horiz-adv-x="859" 
d="M312 410c0 -34 -13.166 -62.167 -39.499 -84.5s-60.166 -33.5 -101.499 -33.5c-40.667 0 -74.5 11.167 -101.5 33.5s-41.167 52.5 -42.5 90.5l65 16c1.33301 -24 9.16602 -42.667 23.499 -56s33.166 -20 56.499 -20c20.667 0 37.167 5.16699 49.5 15.5
s18.5 23.833 18.5 40.5c0 16 -6.16699 28.5 -18.5 37.5s-28.5 13.5 -48.5 13.5h-38v55h33c19.333 0 35.333 4.33301 48 13s19 20.334 19 35c0 15.333 -6 27.833 -18 37.5s-27.667 14.5 -47 14.5c-22 0 -39.333 -6.16699 -52 -18.5s-19.334 -29.833 -20 -52.5l-67 16
c2.66699 36 16.5 64.5 41.5 85.5s57.167 31.5 96.5 31.5c40 0 72.667 -10.667 98 -32s38 -48 38 -80c0 -34.667 -17 -59.667 -51 -75c38.667 -17.333 58 -45 58 -83zM708.001 670l-496 -670h-71l496 670h71zM743.001 193c50.667 -15.333 76.001 -46.999 76.001 -94.999
c0 -31.333 -13.667 -57.333 -41 -78s-63.333 -31 -108 -31s-80.834 10.333 -108.501 31s-41.5 46.667 -41.5 78c0 48.667 25 80.667 75 96c-40 15.333 -60 42.666 -60 81.999c0 28.667 13 52.834 39 72.501s58.333 29.5 97 29.5c38 0 69.833 -9.83301 95.5 -29.5
s38.5 -43.834 38.5 -72.501c0 -39.333 -20.667 -67 -62 -83zM670.002 322.001c-19.333 0 -35.333 -5 -48 -15s-19 -23 -19 -39c0 -14 6.5 -26 19.5 -36s28.833 -15 47.5 -15s34.167 4.83301 46.5 14.5s18.833 21.834 19.5 36.5c0 16 -6.16699 29 -18.5 39
c-12.3359 10 -28.1689 15 -47.5 15zM670.002 51.001c20 0 36.667 5.16699 50 15.5s20 23.833 20 40.5c0 16 -6.33301 29.333 -19 40s-29.667 16 -51 16s-38.666 -5.16699 -51.999 -15.5s-20 -23.833 -20 -40.5s6.66699 -30.167 20 -40.5s30.666 -15.5 51.999 -15.5z" />
    <glyph glyph-name="fiveeighths" unicode="&#x215d;" horiz-adv-x="835" 
d="M317 416c0 -38 -13.168 -68.833 -39.501 -92.5s-60.833 -35.5 -103.5 -35.5c-39.333 0 -72.666 10.667 -99.999 32s-43 47.666 -47 78.999l73 13c4 -18 12.667 -32.333 26 -43s29.333 -16 48 -16c20 0 36.5 5.33301 49.5 16s19.5 25.334 19.5 44.001
s-6.83301 33 -20.5 43s-31.167 15 -52.5 15h-126l10 199h244v-68h-178l-4 -67h76c36 0 65.833 -10.833 89.5 -32.5s35.5 -50.5 35.5 -86.5zM698.999 670l-496 -670h-71l496 670h71zM722.999 193c50.667 -15.333 76.001 -46.999 76.001 -94.999
c0 -31.333 -13.667 -57.333 -41 -78s-63.333 -31 -108 -31s-80.834 10.333 -108.501 31s-41.5 46.667 -41.5 78c0 48.667 25 80.667 75 96c-40 15.333 -60 42.666 -60 81.999c0 28.667 13 52.834 39 72.501s58.333 29.5 97 29.5c38 0 69.833 -9.83301 95.5 -29.5
s38.5 -43.834 38.5 -72.501c0 -39.333 -20.667 -67 -62 -83zM650 322.001c-19.333 0 -35.333 -5 -48 -15s-19 -23 -19 -39c0 -14 6.5 -26 19.5 -36s28.833 -15 47.5 -15s34.167 4.83301 46.5 14.5s18.833 21.834 19.5 36.5c0 16 -6.16699 29 -18.5 39
c-12.3359 10 -28.1689 15 -47.5 15zM650 51.001c20 0 36.668 5.16699 50.001 15.5s20 23.833 20 40.5c0 16 -6.33301 29.333 -19 40s-29.667 16 -51 16c-21.3359 0 -38.6689 -5.16699 -52 -15.5c-13.333 -10.333 -20 -23.833 -20 -40.5s6.66699 -30.167 20 -40.5
s30.666 -15.5 51.999 -15.5z" />
    <glyph glyph-name="seveneighths" unicode="&#x215e;" horiz-adv-x="742" 
d="M198 602h-191v68h274v-59l-145 -315h-83zM610 670l-496 -670h-71l496 670h71zM630 193c50.667 -15.333 76.002 -46.999 76.002 -94.999c0 -31.333 -13.667 -57.333 -41 -78s-63.333 -31 -108 -31s-80.834 10.333 -108.501 31s-41.5 46.667 -41.5 78
c0 48.667 25 80.667 75 96c-40 15.333 -60 42.666 -60 81.999c0 28.667 13 52.834 39 72.501s58.333 29.5 96.999 29.5c38 0 69.833 -9.83301 95.5 -29.5s38.5 -43.834 38.5 -72.501c0 -39.333 -20.667 -67 -62 -83zM557.002 322.001c-19.333 0 -35.333 -5 -48 -15
s-19 -23 -19 -39c0 -14 6.5 -26 19.5 -36s28.833 -15 47.5 -15s34.167 4.83301 46.5 14.5s18.833 21.834 19.5 36.5c0 16 -6.16699 29 -18.5 39c-12.3359 10 -28.1689 15 -47.5 15zM557.002 51.001c20 0 36.667 5.16699 50 15.5s20 23.833 20 40.5
c0 16 -6.33301 29.333 -19 40s-29.667 16 -51 16c-21.335 0 -38.668 -5.16699 -51.999 -15.5c-13.333 -10.333 -20 -23.833 -20 -40.5s6.66699 -30.167 20 -40.5s30.666 -15.5 51.999 -15.5z" />
    <glyph glyph-name="arrowleft" unicode="&#x2190;" horiz-adv-x="727" 
d="M687 270h-470l202 -202l-76 -77l-333 333l334 334l76 -77l-203 -203h470v-108z" />
    <glyph glyph-name="arrowup" unicode="&#x2191;" horiz-adv-x="747" 
d="M631 268l-203 203v-471h-108v471l-203 -204l-77 76l334 334l333 -333z" />
    <glyph glyph-name="arrowright" unicode="&#x2192;" horiz-adv-x="727" 
d="M717 324l-333 -333l-76 77l203 202h-471v108h471l-204 203l76 77z" />
    <glyph glyph-name="arrowdown" unicode="&#x2193;" horiz-adv-x="747" 
d="M707 326l-333 -333l-334 334l77 76l203 -203v470h108v-470l203 202z" />
    <glyph glyph-name="uni2196" unicode="&#x2196;" horiz-adv-x="747" 
d="M631 -8l-493 494v-308h-108v492h491v-107h-308l494 -494z" />
    <glyph glyph-name="uni2197" unicode="&#x2197;" horiz-adv-x="747" 
d="M717 670v-492h-108v309l-493 -495l-76 77l493 494h-307l-1 107h492z" />
    <glyph glyph-name="uni2198" unicode="&#x2198;" horiz-adv-x="747" 
d="M717 492v-492h-492l1 108h307l-493 493l76 77l493 -495v309h108z" />
    <glyph glyph-name="uni2199" unicode="&#x2199;" horiz-adv-x="747" 
d="M213 108h308v-108h-491v492h108v-308l493 494l76 -77z" />
    <glyph glyph-name="minus" unicode="&#x2212;" horiz-adv-x="580" 
d="M515 259h-450v92h450v-92z" />
    <glyph glyph-name="approxequal" unicode="&#x2248;" horiz-adv-x="580" 
d="M515 444l0.00195312 -88c-25.333 -13.333 -58.666 -20 -99.999 -20c-34.667 0 -74.334 8.16699 -119 24.5c-44.667 16.333 -83.334 24.5 -116.001 24.5c-52.667 0 -91 -10.333 -115 -31v87c25.333 20.667 63.666 31 114.999 31c33.333 0 73.166 -8.16699 119.499 -24.5
c46.334 -16.333 85.167 -24.5 116.5 -24.5c43.333 0 76.333 7 99 21zM515.002 292l0.00292969 -88c-26.667 -14 -60 -21 -100 -21c-34.667 0 -74.334 8.33301 -119 25c-44.667 16.667 -83.334 25 -116.001 25c-52.667 0 -91 -10.333 -115 -31v87
c25.333 20.667 63.666 31 114.999 31c33.333 0 73.166 -8.16699 119.499 -24.5c46.334 -16.333 85.167 -24.5 116.5 -24.5c43.333 0 76.333 7 99 21z" />
    <glyph glyph-name="notequal" unicode="&#x2260;" horiz-adv-x="580" 
d="M366 371l-58 -102h207v-91h-259l-46 -80h-95l46 80h-96v91h148l59 102h-207v91h259l48 83h94l-48 -83h97v-91h-149z" />
    <glyph glyph-name="lessequal" unicode="&#x2264;" horiz-adv-x="425" 
d="M388 201l-356 128v99l356 128v-107l-241 -71l241 -73v-104zM388 177v-91h-355v91h355z" />
    <glyph glyph-name="greaterequal" unicode="&#x2265;" horiz-adv-x="425" 
d="M281 378l-241 71v107l355 -128v-99l-355 -128v104zM394 86h-354v91h354v-91z" />
    <glyph glyph-name=".null" horiz-adv-x="0" 
 />
    <glyph glyph-name="nonmarkingreturn" horiz-adv-x="333" 
 />
    <glyph glyph-name="K.ss03" horiz-adv-x="706" 
d="M699 0h-134l-227 303l-152 -171v-132h-107v670h107v-400l354 400h123l-254 -286z" />
    <glyph glyph-name="Kcommaaccent.ss03" horiz-adv-x="706" 
d="M699 0h-134l-227 303l-152 -171v-132h-107v670h107v-400l354 400h123l-254 -286zM313 -45h113l-84 -146h-79z" />
    <glyph glyph-name="Q.ss04" horiz-adv-x="794" 
d="M633 -170l-134 171c-32 -10 -66 -15 -102 -15c-98 0 -180.667 33.667 -248 101s-101 149.666 -101 246.999c0 98 33.667 180.833 101 248.499c67.333 67.667 150 101.5 248 101.5s180.833 -34 248.5 -102s101.5 -150.667 101.5 -248
c0 -57.333 -12.667 -110.666 -38 -159.999s-60 -89.666 -104 -120.999l177 -223h-149zM156 334c0 -70 23.168 -128.668 69.501 -176.001s103.5 -71 171.5 -71s125.333 23.667 171.999 71c46.667 47.333 70 106 70 176c0 70.667 -23.333 129.834 -70 177.501
s-104 71.5 -172 71.5s-125.167 -23.833 -171.5 -71.5s-69.5 -106.834 -69.5 -177.5z" />
    <glyph glyph-name="I.ss05" horiz-adv-x="448" 
d="M278 573v-476h147v-97h-402v97h147v476h-147v97h402v-97h-147z" />
    <glyph glyph-name="IJ.ss05" horiz-adv-x="1043" 
d="M425 670v-97h-147v-476h147v-97h-402v97h147v476h-147v97h402zM972 670v-430c0 -74.667 -23.5 -135.667 -70.5 -183s-108.167 -71 -183.5 -71c-68.667 0 -125.167 19.833 -169.5 59.5s-71.5 92.5 -81.5 158.5l102 21c6 -42.667 21.833 -77 47.5 -103s59.5 -39 101.5 -39
c43.333 0 78.5 14.667 105.5 44s40.5 67 40.5 113v333h-228v97h336z" />
    <glyph glyph-name="Iacute.ss05" horiz-adv-x="448" 
d="M273 741h-89l73 142h122zM278 573v-476h147v-97h-402v97h147v476h-147v97h402v-97h-147z" />
    <glyph glyph-name="Icircumflex.ss05" horiz-adv-x="448" 
d="M164 733h-104l115 145h99l116 -145h-105l-60 77zM278 573v-476h147v-97h-402v97h147v476h-147v97h402v-97h-147z" />
    <glyph glyph-name="Idieresis.ss05" horiz-adv-x="448" 
d="M121 744c-19.333 0 -35.1699 6 -47.5029 18s-18.5 27.333 -18.5 46c0 17.333 6.33301 32.5 19 45.5s28.334 19.5 47.001 19.5s34.334 -6.5 47.001 -19.5s19 -28.167 19 -45.5c0 -18.667 -6.16699 -34 -18.5 -46s-28.166 -18 -47.499 -18zM327.996 744
c-19.333 0 -35.1699 6 -47.5029 18s-18.5 27.333 -18.5 46c0 17.333 6.33301 32.5 19 45.5s28.334 19.5 47.001 19.5s34.334 -6.5 47.001 -19.5s19 -28.167 19 -45.5c0 -18.667 -6.16699 -34 -18.5 -46s-28.166 -18 -47.499 -18zM277.992 573v-476h147v-97h-402v97h147v476
h-147v97h402v-97h-147z" />
    <glyph glyph-name="Idotaccent.ss05" horiz-adv-x="448" 
d="M223 752c-18.667 0 -34 6.00098 -46 18.001s-18 27 -18 45c0 17.333 6.16699 32.166 18.5 44.499s27.5 18.5 45.5 18.5s33.333 -6.16699 46 -18.5c12.667 -12.3369 19 -27.1699 19 -44.5c0 -18 -6.16699 -33 -18.5 -45s-27.833 -18 -46.5 -18zM278 573.001v-476h147v-97
h-402v97h147v476h-147v97h402v-97h-147z" />
    <glyph glyph-name="Igrave.ss05" horiz-adv-x="448" 
d="M178 741l-106 142h122l73 -142h-89zM278 573v-476h147v-97h-402v97h147v476h-147v97h402v-97h-147z" />
    <glyph glyph-name="Imacron.ss05" horiz-adv-x="448" 
d="M375 752h-301v85h301v-85zM278 573v-476h147v-97h-402v97h147v476h-147v97h402v-97h-147z" />
    <glyph glyph-name="Iogonek.ss05" horiz-adv-x="448" 
d="M278 573v-476.001h147v-97h-148c-20.667 -22.667 -34 -37.5 -40 -44.5s-11.833 -15.667 -17.5 -26s-8.5 -20.166 -8.5 -29.499c0 -22 11.333 -33 34 -33c8.66699 0 24.667 3.66699 48 11l6 -65c-28 -12 -53.667 -18 -77 -18c-25.333 0 -46.5 7.16699 -63.5 21.5
s-25.5 35.833 -25.5 64.5c0 20.667 5.33301 40 16 58s29 38.333 55 61h-181v97h147v476h-147v97h402v-97h-147z" />
    <glyph glyph-name="J.ss05" horiz-adv-x="596" 
d="M524 670v-430c0 -74.667 -23.5 -135.667 -70.5 -183s-108.167 -71 -183.5 -71c-68.667 0 -125.167 19.833 -169.5 59.5s-71.5 92.5 -81.5 158.5l102 21c6 -42.667 21.833 -77 47.5 -103s59.5 -39 101.5 -39c43.333 0 78.5 14.667 105.5 44s40.5 67 40.5 113v333h-228v97
h336z" />
    <glyph glyph-name="i.loclTRK" horiz-adv-x="287" 
d="M143 704c18 0 33.333 -6.16602 46 -18.499c12.667 -12.3359 19 -27.1689 19 -44.5c0 -18 -6.16699 -33 -18.5 -45s-27.833 -18 -46.5 -18s-34 6 -46 18s-18 27 -18 45c0 17.333 6.16699 32.166 18.5 44.499s27.5 18.5 45.5 18.5zM196 0.000976562h-104v496h104v-496z" />
    <glyph glyph-name="germandbls.case" horiz-adv-x="1248" 
d="M313 684c67.334 0 124.167 -16.998 170.5 -50.998s75.5 -80 87.5 -138l-107 -22c-6 35.333 -23 63.833 -51 85.5s-62 32.5 -102 32.5c-39.333 0 -71 -9.5 -95 -28.5s-36 -43.5 -36 -73.5c0 -23.333 6.83301 -41.666 20.5 -54.999s35.167 -23 64.5 -29l145 -31
c114.667 -25.333 172 -86.333 172 -183c0 -62.667 -23.5 -112.5 -70.5 -149.5s-109.167 -55.5 -186.5 -55.5c-74 0 -136.667 17.5 -188 52.5s-81 83.833 -89 146.5l114 24c8 -42 27.333 -73.833 58 -95.5s69 -32.5 115 -32.5c44 0 78.5 9.5 103.5 28.5
s37.5 44.167 37.5 75.5c0 25.333 -7.16699 44.666 -21.5 57.999c-14.333 13.334 -38.5 23.667 -72.5 30.999l-146 30c-112.667 26 -169 86.667 -169 182c0 59.333 22.5 107.166 67.5 143.499s104.5 54.5 178.5 54.5zM927 684.002c67.333 0 124.167 -16.998 170.5 -50.998
s75.5 -80 87.5 -138l-107 -22c-6 35.333 -23 63.833 -51 85.5s-62 32.5 -102 32.5c-39.333 0 -71 -9.5 -95 -28.5s-36 -43.5 -36 -73.5c0 -23.333 6.83301 -41.666 20.5 -54.999s35.167 -23 64.5 -29l145 -31c114.667 -25.333 172 -86.333 172 -183
c0 -62.667 -23.5 -112.5 -70.5 -149.5s-109.167 -55.5 -186.5 -55.5c-74 0 -136.667 17.5 -188 52.5s-81 83.833 -89 146.5l114 24c8 -42 27.333 -73.833 58 -95.5s69 -32.5 115 -32.5c44 0 78.5 9.5 103.5 28.5s37.5 44.167 37.5 75.5
c0 25.333 -7.16699 44.666 -21.5 57.999c-14.333 13.334 -38.5 23.667 -72.5 30.999l-146 30c-112.667 26 -169 86.667 -169 182c0 59.333 22.5 107.166 67.5 143.499s104.5 54.5 178.5 54.5z" />
    <glyph glyph-name="a.ss01" horiz-adv-x="546" 
d="M278 510c64.667 0 116 -16.334 154 -49.001s57 -78.667 57 -138v-323h-99v57c-42.667 -47.333 -99 -71 -169 -71c-55.333 0 -100 14.5 -134 43.5s-51 66.833 -51 113.5c0 47.333 17.5 85.333 52.5 114s83.833 43 146.5 43h155v15c0 32 -9.66699 57.333 -29 76
s-45 28 -77 28c-69.333 0 -109.666 -28.667 -120.999 -86l-99 21c8.66699 46.667 32.667 84.334 72 113.001s86.666 43 141.999 43zM237 69.999c42 0 78 13.002 108 39.002s45 57.667 45 95v16h-157c-30 0 -53.667 -6.83301 -71 -20.5s-26 -31.834 -26 -54.501
s9.16699 -40.834 27.5 -54.501s42.833 -20.5 73.5 -20.5z" />
    <glyph glyph-name="aacute.ss01" horiz-adv-x="546" 
d="M328 567h-89l73 142h122zM278 510c64.667 0 116 -16.334 154 -49.001s57 -78.667 57 -138v-323h-99v57c-42.667 -47.333 -99 -71 -169 -71c-55.333 0 -100 14.5 -134 43.5s-51 66.833 -51 113.5c0 47.333 17.5 85.333 52.5 114s83.833 43 146.5 43h155v15
c0 32 -9.66699 57.333 -29 76s-45 28 -77 28c-69.333 0 -109.666 -28.667 -120.999 -86l-99 21c8.66699 46.667 32.667 84.334 72 113.001s86.666 43 141.999 43zM237 69.999c42 0 78 13.002 108 39.002s45 57.667 45 95v16h-157c-30 0 -53.667 -6.83301 -71 -20.5
s-26 -31.834 -26 -54.501s9.16699 -40.834 27.5 -54.501s42.833 -20.5 73.5 -20.5z" />
    <glyph glyph-name="abreve.ss01" horiz-adv-x="546" 
d="M279 552c-47.333 0 -85.167 12.833 -113.5 38.5s-42.5 60.167 -42.5 103.5h87c0 -20.667 6.66699 -37.5 20 -50.5s29.666 -19.5 48.999 -19.5c20 0 36.667 6.5 50 19.5s20 29.833 20 50.5h86c0 -43.333 -14.167 -77.833 -42.5 -103.5s-66.166 -38.5 -113.499 -38.5z
M277.999 510c64.667 0 116 -16.334 154 -49.001s57 -78.667 57 -138v-323h-99v57c-42.667 -47.333 -99 -71 -169 -71c-55.333 0 -100 14.5 -134 43.5s-51 66.833 -51 113.5c0 47.333 17.5 85.333 52.5 114s83.833 43 146.5 43h155v15c0 32 -9.66699 57.333 -29 76
s-45 28 -77 28c-69.333 0 -109.666 -28.667 -120.999 -86l-99 21c8.66699 46.667 32.667 84.334 72 113.001s86.666 43 141.999 43zM236.999 69.999c42 0 78 13.002 108 39.002s45 57.667 45 95v16h-157c-30 0 -53.667 -6.83301 -71 -20.5s-26 -31.834 -26 -54.501
s9.16699 -40.834 27.5 -54.501s42.833 -20.5 73.5 -20.5z" />
    <glyph glyph-name="acircumflex.ss01" horiz-adv-x="546" 
d="M219 559h-104l115 145h99l116 -145h-105l-60 77zM278 510c64.667 0 116 -16.334 154 -49.001s57 -78.667 57 -138v-323h-99v57c-42.667 -47.333 -99 -71 -169 -71c-55.333 0 -100 14.5 -134 43.5s-51 66.833 -51 113.5c0 47.333 17.5 85.333 52.5 114s83.833 43 146.5 43
h155v15c0 32 -9.66699 57.333 -29 76s-45 28 -77 28c-69.333 0 -109.666 -28.667 -120.999 -86l-99 21c8.66699 46.667 32.667 84.334 72 113.001s86.666 43 141.999 43zM237 69.999c42 0 78 13.002 108 39.002s45 57.667 45 95v16h-157c-30 0 -53.667 -6.83301 -71 -20.5
s-26 -31.834 -26 -54.501s9.16699 -40.834 27.5 -54.501s42.833 -20.5 73.5 -20.5z" />
    <glyph glyph-name="adieresis.ss01" horiz-adv-x="546" 
d="M176 570c-19.333 0 -35.168 6 -47.501 18s-18.5 27.333 -18.5 46c0 17.333 6.33301 32.5 19 45.5s28.334 19.5 47.001 19.5s34.334 -6.5 47 -19.5c12.667 -13 19 -28.167 19 -45.5c0 -18.667 -6.16699 -34 -18.5 -46c-12.334 -12 -28.167 -18 -47.5 -18zM382.998 570
c-19.333 0 -35.1699 6 -47.5029 18s-18.5 27.333 -18.5 46c0 17.333 6.33301 32.5 19 45.5s28.334 19.5 47.001 19.5s34.334 -6.5 47.001 -19.5s19 -28.167 19 -45.5c0 -18.667 -6.16699 -34 -18.5 -46s-28.166 -18 -47.499 -18zM277.994 510
c64.667 0 116 -16.334 154 -49.001s57 -78.667 57 -138v-323h-99v57c-42.667 -47.333 -99 -71 -169 -71c-55.333 0 -100 14.5 -134 43.5s-51 66.833 -51 113.5c0 47.333 17.5 85.333 52.5 114s83.833 43 146.5 43h155v15c0 32 -9.66699 57.333 -29 76s-45 28 -77 28
c-69.333 0 -109.666 -28.667 -120.999 -86l-99 21c8.66699 46.667 32.667 84.334 72 113.001s86.666 43 141.999 43zM236.994 69.999c42 0 78 13.002 108 39.002s45 57.667 45 95v16h-157c-30 0 -53.667 -6.83301 -71 -20.5s-26 -31.834 -26 -54.501
s9.16699 -40.834 27.5 -54.501s42.833 -20.5 73.5 -20.5z" />
    <glyph glyph-name="agrave.ss01" horiz-adv-x="546" 
d="M233 567l-106 142h122l73 -142h-89zM278 510c64.667 0 116 -16.334 154 -49.001s57 -78.667 57 -138v-323h-99v57c-42.667 -47.333 -99 -71 -169 -71c-55.333 0 -100 14.5 -134 43.5s-51 66.833 -51 113.5c0 47.333 17.5 85.333 52.5 114s83.833 43 146.5 43h155v15
c0 32 -9.66699 57.333 -29 76s-45 28 -77 28c-69.333 0 -109.666 -28.667 -120.999 -86l-99 21c8.66699 46.667 32.667 84.334 72 113.001s86.666 43 141.999 43zM237 69.999c42 0 78 13.002 108 39.002s45 57.667 45 95v16h-157c-30 0 -53.667 -6.83301 -71 -20.5
s-26 -31.834 -26 -54.501s9.16699 -40.834 27.5 -54.501s42.833 -20.5 73.5 -20.5z" />
    <glyph glyph-name="amacron.ss01" horiz-adv-x="546" 
d="M430 578h-301v85h301v-85zM278 510c64.667 0 116 -16.334 154 -49.001s57 -78.667 57 -138v-323h-99v57c-42.667 -47.333 -99 -71 -169 -71c-55.333 0 -100 14.5 -134 43.5s-51 66.833 -51 113.5c0 47.333 17.5 85.333 52.5 114s83.833 43 146.5 43h155v15
c0 32 -9.66699 57.333 -29 76s-45 28 -77 28c-69.333 0 -109.666 -28.667 -120.999 -86l-99 21c8.66699 46.667 32.667 84.334 72 113.001s86.666 43 141.999 43zM237 69.999c42 0 78 13.002 108 39.002s45 57.667 45 95v16h-157c-30 0 -53.667 -6.83301 -71 -20.5
s-26 -31.834 -26 -54.501s9.16699 -40.834 27.5 -54.501s42.833 -20.5 73.5 -20.5z" />
    <glyph glyph-name="aogonek.ss01" horiz-adv-x="546" 
d="M507 -122l6 -65.002c-28 -12 -53.667 -18 -77 -18c-25.333 0 -46.5 7.16699 -63.5 21.5s-25.5 35.833 -25.5 64.5c0 20.667 5.33301 40 16 58s29 38.333 55 61h-28v57c-42.667 -47.333 -99 -71 -169 -71c-55.333 0 -100 14.5 -134 43.5s-51 66.833 -51 113.5
c0 47.333 17.5 85.333 52.5 114s83.833 43 146.5 43h155v15c0 32 -9.66699 57.333 -29 76s-45 28 -77 28c-69.333 0 -109.666 -28.667 -120.999 -86l-99 21c8.66699 46.667 32.667 84.334 72 113.001s86.666 43 141.999 43c64.667 0 116 -16.333 154 -49s57 -78.667 57 -138
v-323h2c-20.667 -22.667 -34 -37.5 -40 -44.5s-11.833 -15.667 -17.5 -26s-8.5 -20.166 -8.5 -29.499c0 -22 11.333 -33 34 -33c8.66699 0 24.667 3.66699 48 11zM237 69.998c42 0 78 13.002 108 39.002s45 57.667 45 95v16h-157c-30 0 -53.667 -6.83301 -71 -20.5
s-26 -31.834 -26 -54.501s9.16699 -40.834 27.5 -54.501s42.833 -20.5 73.5 -20.5z" />
    <glyph glyph-name="aring.ss01" horiz-adv-x="546" 
d="M279 547c-30.667 0 -56.835 10.5 -78.502 31.5s-32.5 46.167 -32.5 75.5c0 30 10.833 55.5 32.5 76.5s47.834 31.5 78.501 31.5c31.334 0 57.667 -10.5 79 -31.5s32 -46.5 32 -76.5s-10.667 -55.333 -32 -76s-47.666 -31 -78.999 -31zM278.999 701
c-14 0 -25.667 -4.5 -35 -13.5s-14 -20.167 -14 -33.5c0 -12.667 4.66699 -23.667 14 -33s21 -14 35 -14s25.667 4.66699 35 14s14 20.333 14 33c0 13.333 -4.66699 24.5 -14 33.5s-21 13.5 -35 13.5zM277.999 510c64.667 0 116 -16.334 154 -49.001s57 -78.667 57 -138
v-323h-99v57c-42.667 -47.333 -99 -71 -169 -71c-55.333 0 -100 14.5 -134 43.5s-51 66.833 -51 113.5c0 47.333 17.5 85.333 52.5 114s83.833 43 146.5 43h155v15c0 32 -9.66699 57.333 -29 76s-45 28 -77 28c-69.333 0 -109.666 -28.667 -120.999 -86l-99 21
c8.66699 46.667 32.667 84.334 72 113.001s86.666 43 141.999 43zM236.999 69.999c42 0 78 13.002 108 39.002s45 57.667 45 95v16h-157c-30 0 -53.667 -6.83301 -71 -20.5s-26 -31.834 -26 -54.501s9.16699 -40.834 27.5 -54.501s42.833 -20.5 73.5 -20.5z" />
    <glyph glyph-name="atilde.ss01" horiz-adv-x="546" 
d="M226 629c-10 0 -17.998 -3.66699 -23.998 -11s-9 -17 -9 -29h-71c0 40.667 9.66699 70.167 29 88.5s42 27.5 68 27.5c22.667 0 45.5 -7.16699 68.5 -21.5s41.167 -21.5 54.5 -21.5c10 0 17.833 4 23.5 12s8.5 18.333 8.5 31h70c0 -42 -9.33301 -72.167 -28 -90.5
s-41.334 -27.5 -68.001 -27.5c-23.333 0 -46.333 7 -69 21s-40.334 21 -53.001 21zM278.002 510c64.667 0 116 -16.334 154 -49.001s57 -78.667 57 -138v-323h-99v57c-42.667 -47.333 -99 -71 -169 -71c-55.333 0 -100 14.5 -134 43.5s-51 66.833 -51 113.5
c0 47.333 17.5 85.333 52.5 114s83.833 43 146.5 43h155v15c0 32 -9.66699 57.333 -29 76s-45 28 -77 28c-69.333 0 -109.666 -28.667 -120.999 -86l-99 21c8.66699 46.667 32.667 84.334 72 113.001s86.666 43 141.999 43zM237.002 69.999c42 0 78 13.002 108 39.002
s45 57.667 45 95v16h-157c-30 0 -53.667 -6.83301 -71 -20.5s-26 -31.834 -26 -54.501s9.16699 -40.834 27.5 -54.501s42.833 -20.5 73.5 -20.5z" />
    <glyph glyph-name="l.ss02" horiz-adv-x="320" 
d="M173 720l0.000976562 -577.999c0 -17.333 6 -31.333 18 -42s27.333 -16 46 -16c18 0 38 5 60 15l20 -87c-32 -17.333 -64.667 -26 -98 -26c-44.667 0 -80.834 13.667 -108.501 41s-41.5 63.666 -41.5 108.999v584h104z" />
    <glyph glyph-name="lacute.ss02" horiz-adv-x="320" 
d="M168 791h-89l73 142h122zM173 720l0.000976562 -577.999c0 -17.333 6 -31.333 18 -42s27.333 -16 46 -16c18 0 38 5 60 15l20 -87c-32 -17.333 -64.667 -26 -98 -26c-44.667 0 -80.834 13.667 -108.501 41s-41.5 63.666 -41.5 108.999v584h104z" />
    <glyph glyph-name="lcaron.ss02" horiz-adv-x="320" 
d="M173 720l0.000976562 -577.999c0 -17.333 6 -31.333 18 -42s27.333 -16 46 -16c18 0 38 5 60 15l20 -87c-32 -17.333 -64.667 -26 -98 -26c-44.667 0 -80.834 13.667 -108.501 41s-41.5 63.666 -41.5 108.999v584h104zM313.001 534.001h-82v186h105z" />
    <glyph glyph-name="lcommaaccent.ss02" horiz-adv-x="320" 
d="M173 720l0.000976562 -577.999c0 -17.333 6 -31.333 18 -42s27.333 -16 46 -16c18 0 38 5 60 15l20 -87c-32 -17.333 -64.667 -26 -98 -26c-44.667 0 -80.834 13.667 -108.501 41s-41.5 63.666 -41.5 108.999v584h104zM87.001 -190.999l50 146h113l-84 -146h-79z" />
    <glyph glyph-name="ldot.ss02" horiz-adv-x="384" 
d="M183 720l0.000976562 -577.999c0 -17.333 6 -31.333 18 -42s27.333 -16 46 -16c18 0 38 5 60 15l20 -87c-32 -17.333 -64.667 -26 -98 -26c-44.667 0 -80.834 13.667 -108.501 41s-41.5 63.666 -41.5 108.999v584h104zM313.001 408.001c18 0 33.333 -6.16797 46 -18.501
s19 -27.166 19 -44.499c0 -18 -6.16699 -33 -18.5 -45s-27.833 -18 -46.5 -18s-34 6 -46 18s-18 27 -18 45c0 17.334 6.16699 32.167 18.5 44.5s27.5 18.5 45.5 18.5z" />
    <glyph glyph-name="lslash.ss02" horiz-adv-x="349" 
d="M326 99l18.999 -86.999c-32 -17.333 -64.333 -26 -97 -26c-45.333 0 -81.666 13.667 -108.999 41s-41 63.666 -41 108.999v127l-68 -41v101l68 41v356h104v-294l79 47v-101l-79 -47v-183c0 -17.333 5.83301 -31.333 17.5 -42s26.834 -16 45.5 -16c18.667 0 39 5 61 15z
" />
    <glyph glyph-name="k.ss03" horiz-adv-x="608" 
d="M603 0h-131l-188 211l-101 -109v-102h-104v720h104v-478l243 254h122l-195 -211z" />
    <glyph glyph-name="kcommaaccent.ss03" horiz-adv-x="608" 
d="M603 0h-131l-188 211l-101 -109v-102h-104v720h104v-478l243 254h122l-195 -211zM267 -45h113l-84 -146h-79z" />
    <glyph glyph-name="f_j" horiz-adv-x="662" 
d="M577 496l0.000976562 -541.999c0 -40 -12.333 -72.333 -37 -97s-57.334 -37 -98.001 -37c-31.333 0 -62 6 -92 18l20 91c18 -7.33301 33.333 -11 46 -11c16.667 0 30.167 4.5 40.5 13.5s15.5 21.167 15.5 36.5v442h-267v-410h-104v410h-81v86h81v59
c0 55.333 16.833 99.166 50.5 131.499s78.5 48.5 134.5 48.5c33.333 0 63.333 -7 90 -21l-24 -84c-20 8 -39.667 12 -59 12c-27.333 0 -48.833 -7.66699 -64.5 -23c-15.667 -15.335 -23.5 -36.668 -23.5 -64v-59h372zM523.001 581.001c-19.333 0 -35.167 6 -47.5 18
s-18.5 27.333 -18.5 46c0 18 6.16699 33.333 18.5 46c12.334 12.667 28.167 19 47.499 19c18.6689 0 34.3359 -6.33301 47 -19c12.667 -12.667 19 -28 19 -46c0 -18.667 -6.16699 -34 -18.5 -46c-12.335 -12 -28.168 -18 -47.499 -18z" />
    <glyph glyph-name="f_t" horiz-adv-x="771" 
d="M735 111l31 -86.999c-41.333 -25.333 -82 -38 -122 -38c-55.333 0 -99 15.5 -131 46.5s-48 76.5 -48 136.5v241h-260v-410h-104v410h-81v86h81v59c0 55.333 16.833 99.166 50.5 131.499s78.5 48.5 134.5 48.5c33.333 0 63.333 -7 90 -21l-24 -84c-20 8 -39.667 12 -59 12
c-27.333 0 -48.833 -7.66699 -64.5 -23c-15.667 -15.335 -23.5 -36.668 -23.5 -64v-59h260v154h104v-154h170v-86h-170v-234c0 -30 7.33301 -52.833 22 -68.5s34.667 -23.5 60 -23.5c28.667 0 56.667 9 84 27z" />
    <glyph glyph-name="fl.ss02" horiz-adv-x="684" 
d="M205 496l165.001 0.000976562v-86h-165v-410h-104v410h-81v86h81v59c0 55.333 16.667 99.166 50 131.499s77.666 48.5 132.999 48.5c29.334 0 57.667 -6 85 -18l-25 -85c-17.333 6.66699 -35 10 -53 10c-26 0 -46.833 -7.66699 -62.5 -23
c-15.667 -15.335 -23.5 -36.668 -23.5 -64v-59zM660.001 99.001l19.999 -86.999c-32 -17.333 -64.667 -26 -98 -26c-45.333 0 -81.666 13.667 -108.999 41s-41 63.666 -41 108.999v584h104v-578c0 -17.333 6 -31.333 18 -42s27.333 -16 46 -16c18 0 38 5 60 15z" />
    <glyph glyph-name="zero.tf" 
d="M305 684c81.333 0 147 -32.166 197 -96.499c50 -64.334 75 -148.501 75 -252.501s-25 -188.167 -75 -252.5s-115.667 -96.5 -197 -96.5c-80.667 0 -146 32.167 -196 96.5s-75 148.5 -75 252.5s25 188.167 75 252.5s115.333 96.5 196 96.5zM305 85.001
c49.333 0 88.833 22.999 118.5 68.999s44.5 106.333 44.5 181s-14.833 134.834 -44.5 180.501s-69.167 68.5 -118.5 68.5s-88.666 -22.833 -117.999 -68.5s-44 -105.834 -44 -180.5c0 -74.667 14.667 -135 44 -181s68.666 -69 117.999 -69z" />
    <glyph glyph-name="one.tf" 
d="M549 97v-97h-472v97h196v445l-191 -96v98l230 126h66v-573h171z" />
    <glyph glyph-name="two.tf" 
d="M541 97l0.000976562 -97.002h-454v69l233 224c20.667 19.333 35.334 33.333 44.001 42s19.667 21.334 33 38.001s22.5 33 27.5 49s7.5 33.667 7.5 53c0 34.667 -11.333 62.667 -34 84s-52.334 32 -89 32c-39.333 0 -70.333 -12 -93 -36s-35.334 -59 -38.001 -105l-99 20
c2.66699 65.333 25.167 117.333 67.5 156s97.166 58 164.499 58c66.667 0 120.667 -19.167 162 -57.5c41.333 -38.334 62 -88.167 62 -149.499c0 -45.333 -11.5 -85.833 -34.5 -121.5s-61.833 -79.834 -116.5 -132.5l-132 -126h289z" />
    <glyph glyph-name="three.tf" 
d="M455 340c31.334 -11.333 55.667 -29.501 73 -54.501s26 -55.167 26 -90.5c0 -62.667 -21.5 -113.167 -64.5 -151.5s-99.167 -57.5 -168.5 -57.5c-70 0 -127.167 19.667 -171.5 59s-69.166 91.333 -74.499 156l101 20c4 -44 18.5 -78.5 43.5 -103.5
s58.833 -37.5 101.5 -37.5c39.333 0 71.5 10.5 96.5 31.5s37.5 48.5 37.5 82.5c0 31.333 -11 56.333 -33 75s-52.667 28 -92 28h-72v86h66c37.333 0 66.5 9 87.5 27s31.5 42 31.5 72c0 32.668 -11.333 58.835 -34 78.501c-22.667 19.667 -52.667 29.5 -90 29.5
c-39.333 0 -71.333 -12 -96 -36s-38.334 -58.333 -41.001 -103l-98 20c5.33301 64 29.166 115.5 71.499 154.5s96.833 58.5 163.5 58.5s120.5 -18.667 161.5 -56s61.5 -86 61.5 -146c0 -33.333 -7.66699 -62.5 -23 -87.5s-36.666 -43.167 -63.999 -54.5z" />
    <glyph glyph-name="four.tf" 
d="M574 148h-86v-148h-104v148h-342v100l306 422h140v-434h86v-88zM384 236v326l-234 -326h234z" />
    <glyph glyph-name="five.tf" 
d="M202 419l119.999 0.00195312c68 0 122.333 -18.5 163 -55.5s61 -87.833 61 -152.5c0 -66.667 -22 -120.834 -66 -162.501s-102.333 -62.5 -175 -62.5c-70 0 -128.333 20.5 -175 61.5s-70 97.5 -70 169.5l103 20c0 -49.333 13.333 -87.333 40 -114s61.334 -40 104.001 -40
c41.333 0 74.5 11.5 99.5 34.5s37.5 53.5 37.5 91.5c0 35.333 -11.833 63.166 -35.5 83.499s-55.167 30.5 -94.5 30.5h-218l13 347h409v-97h-310z" />
    <glyph glyph-name="six.tf" 
d="M338 434c70.667 0 126.999 -20.5 168.999 -61.5s63 -94.167 63 -159.5c0 -66 -22.333 -120.333 -67 -163s-102.667 -64 -174 -64c-83.333 0 -149 29.5 -197 88.5s-72 141.167 -72 246.5c0 130 30 226 90 288c48.667 50 109.334 75 182.001 75
c55.333 0 102.5 -13.333 141.5 -40s65.5 -64.334 79.5 -113.001l-103 -20c-16.667 52.667 -57.334 79 -122 79c-42 0 -78 -16 -108 -48c-42 -45.333 -61.667 -109.666 -59 -192.999c18.667 26 44 46.667 76 62s65.667 23 101 23zM326.999 82c38 0 70.167 12.668 96.5 38.001
s39.5 56.666 39.5 93.999c0 38 -13.167 69.333 -39.5 94s-58.5 37 -96.5 37c-38.667 0 -70.834 -12.667 -96.5 -38c-25.667 -25.333 -38.5 -57 -38.5 -95s13.167 -69.167 39.5 -93.5c26.334 -24.333 58.167 -36.5 95.5 -36.5z" />
    <glyph glyph-name="seven.tf" 
d="M556 670v-76l-292 -594h-121l287 573h-386v97h512z" />
    <glyph glyph-name="eight.tf" 
d="M427 341c43.333 -13.333 76.501 -34.667 99.501 -64s34.5 -62 34.5 -98c0 -57.333 -22.833 -103.833 -68.5 -139.5s-105.5 -53.5 -179.5 -53.5c-75.333 0 -136 17.833 -182 53.5s-69 82.167 -69 139.5c0 36 11.667 68.667 35 98c23.333 29.334 56.666 50.667 99.999 64
c-37.333 14 -65.833 35.167 -85.5 63.5c-19.667 28.334 -29.5 61.167 -29.5 98.5c0 54 21 97.667 63 131s98 50 168 50c68.667 0 124 -16.667 166 -50s63 -77 63 -131c0 -36.667 -9.83301 -69.334 -29.5 -98c-19.667 -28.667 -48.167 -50 -85.5 -64zM311.001 596.999
c-35.333 0 -64.667 -9.16699 -88 -27.5s-35 -43.5 -35 -75.5c0 -31.333 11.5 -56 34.5 -74s52.5 -27 88.5 -27s65.833 9.33301 89.5 28s35.5 43.667 35.5 75s-11.833 56 -35.5 74s-53.5 27 -89.5 27zM311 76.999c38 0 69.667 9.66699 95 29s38 46 38 80
c0 32.667 -12.5 58.667 -37.5 78s-56.833 29 -95.5 29c-38 0 -69.333 -9.83301 -94 -29.5s-37 -46.167 -37 -79.5s12.333 -59.5 37 -78.5s56 -28.5 94 -28.5z" />
    <glyph glyph-name="nine.tf" 
d="M281 683c83.333 0 149 -29.333 197 -88s72 -141 72 -247c0 -130 -30 -226 -90 -288c-48.667 -50 -109.334 -75 -182 -75c-55.333 0 -102.5 13.333 -141.5 40s-65.167 64.334 -78.5 113.001l103 20c16 -52 56.333 -78 121 -78c42.667 0 78.667 15.667 108 47
c42 45.333 61.667 109.666 59 192.999c-18.667 -26 -43.834 -46.5 -75.5 -61.5c-31.667 -15 -65.5 -22.5 -101.5 -22.5c-70.667 0 -127 20.5 -169 61.5s-63 93.833 -63 158.5c0 66 22.333 120.333 67 163s102.667 64 174 64zM283 324c38.667 0 70.832 12.667 96.499 38
s38.5 57 38.5 95s-13.167 69.167 -39.5 93.5s-58.166 36.5 -95.499 36.5c-38 0 -70 -12.5 -96 -37.5s-39 -56.5 -39 -94.5c0 -37.333 13 -68.5 39 -93.5s58 -37.5 96 -37.5z" />
    <glyph glyph-name="zero.zero.tf" 
d="M305 684c81.333 0 147 -32.166 197 -96.499c50 -64.334 75 -148.501 75 -252.501s-25 -188.167 -75 -252.5s-115.667 -96.5 -197 -96.5c-80.667 0 -146 32.167 -196 96.5s-75 148.5 -75 252.5s25 188.167 75 252.5s115.333 96.5 196 96.5zM305 584.001
c-49.333 0 -88.667 -22.833 -118 -68.5s-44 -105.834 -44 -180.5c0 -42.667 5.33301 -82.667 16 -120l247 323c-27.333 30.667 -61 46 -101 46zM304.999 85.001c49.333 0 88.833 23 118.5 69s44.5 106.333 44.5 181c0 48 -6.66699 90.333 -20 127l-249 -325
c28.667 -34.667 64 -52 106 -52z" />
    <glyph glyph-name="zero.zero" horiz-adv-x="650" 
d="M333 684c84.667 0 153 -32.166 205 -96.499c52 -64.334 78 -148.501 78 -252.501s-26 -188.167 -78 -252.5s-120.333 -96.5 -205 -96.5s-153 32.167 -205 96.5s-78 148.5 -78 252.5s26 188.167 78 252.5s120.333 96.5 205 96.5zM333 585.001
c-52.667 0 -94.833 -23 -126.5 -69s-47.5 -106.333 -47.5 -181c0 -40.667 5.33301 -79 16 -115l254 330c-27.333 23.333 -59.333 35 -96 35zM333.001 85.001c52.667 0 94.833 23 126.5 69s47.5 106.333 47.5 181c0 58 -9.66699 107.333 -29 148l-262 -341
c32 -38 71 -57 117 -57z" />
    <glyph glyph-name="zero.dnom" horiz-adv-x="400" 
d="M200 379c49.333 0 88.833 -17.667 118.5 -53s44.5 -82.333 44.5 -141s-14.833 -105.834 -44.5 -141.501s-69.167 -53.5 -118.5 -53.5c-48.667 0 -87.834 17.833 -117.501 53.5s-44.5 82.834 -44.5 141.501s14.833 105.667 44.5 141s68.834 53 117.501 53zM200 58
c25.333 0 45 11.167 59 33.5s21 53.5 21 93.5c0 38.667 -7 69 -21 91s-33.667 33 -59 33c-24 0 -43.333 -11 -58 -33s-22 -52.333 -22 -91c0 -39.333 7.33301 -70.333 22 -93s34 -34 58 -34z" />
    <glyph glyph-name="one.dnom" horiz-adv-x="241" 
d="M177 0h-77v273l-78 -49v82l105 69h50v-375z" />
    <glyph glyph-name="two.dnom" horiz-adv-x="341" 
d="M148 67l157.002 -0.000976562v-67h-279v51l142 120c23.333 20 39.5 36 48.5 48s13.5 26 13.5 42c0 17.334 -5.83301 31.167 -17.5 41.5s-26.834 15.5 -45.501 15.5c-21.333 0 -38 -7 -50 -21s-18.667 -33 -20 -57l-66 15c0 38 12.333 68.833 37 92.5s57.667 35.5 99 35.5
s74.666 -10.833 99.999 -32.5s38 -51.167 38 -88.5c0 -26 -7.33301 -49.167 -22 -69.5s-37 -43.166 -67 -68.499z" />
    <glyph glyph-name="three.dnom" horiz-adv-x="342" 
d="M254 191c38.667 -17.333 58.001 -45 58.001 -83c0 -34 -13.167 -62.333 -39.5 -85s-60.166 -34 -101.499 -34c-40.667 0 -74.5 11.333 -101.5 34s-41.167 53 -42.5 91l65 16c1.33301 -24 9.16602 -42.667 23.499 -56s33.166 -20 56.499 -20
c20.667 0 37.167 5.16699 49.5 15.5s18.5 23.833 18.5 40.5c0 16 -6.16699 28.5 -18.5 37.5s-28.5 13.5 -48.5 13.5h-38v55h33c19.333 0 35.333 4.33301 48 13s19 20.334 19 35c0 15.333 -6 27.833 -18 37.5s-27.667 14.5 -47 14.5c-22 0 -39.333 -6.16699 -52 -18.5
s-19.334 -29.833 -20 -52.5l-67 16c2.66699 36 16.5 64.5 41.5 85.5s57.167 31.5 96.5 31.5c40 0 72.667 -10.667 98 -32s38 -48 38 -80c0 -34.667 -17 -59.667 -51 -75z" />
    <glyph glyph-name="four.dnom" horiz-adv-x="374" 
d="M347 76h-54v-77h-72v77h-198v70l181 228h89v-235h54v-63zM221 139v155l-124 -155h124z" />
    <glyph glyph-name="five.dnom" horiz-adv-x="343" 
d="M116 237h75.999c36 0 65.833 -10.833 89.5 -32.5s35.5 -50.5 35.5 -86.5c0 -38 -13.167 -68.833 -39.5 -92.5s-60.833 -35.5 -103.5 -35.5c-39.333 0 -72.666 10.667 -99.999 32s-43 47.666 -47 78.999l73 13c4 -18 12.667 -32.333 26 -43s29.333 -16 48 -16
c20 0 36.5 5.33301 49.5 16s19.5 25.334 19.5 44.001s-6.83301 33 -20.5 43s-31.167 15 -52.5 15h-126l10 199h244v-68h-178z" />
    <glyph glyph-name="six.dnom" horiz-adv-x="352" 
d="M197 242c38 0 69 -11.668 93 -35.001s36 -53.333 36 -90c0 -37.333 -13 -68 -39 -92s-59.333 -36 -100 -36c-50 0 -89 16.167 -117 48.5s-42 77.5 -42 135.5c0 73.333 18 128 54 164c27.333 27.333 62.333 41 105 41c36 0 65.833 -8.66699 89.5 -26
s38.5 -42.333 44.5 -75l-75 -11c-5.33398 32.667 -25.667 49 -61 49c-20.667 0 -38 -8 -52 -24c-16 -17.333 -25.667 -43.666 -29 -78.999c25.333 20 56.333 30 93 30zM184 50.999c20 0 36.665 6.5 49.998 19.5s20 29.167 20 48.5s-6.66699 35.666 -20 48.999s-30 20 -50 20
c-21.333 0 -38.666 -6.66699 -51.999 -20s-20 -29.666 -20 -48.999s6.83301 -35.5 20.5 -48.5s30.834 -19.5 51.501 -19.5z" />
    <glyph glyph-name="seven.dnom" horiz-adv-x="291" 
d="M281 374v-59l-145 -316h-83l145 307h-191v68h274z" />
    <glyph glyph-name="eight.dnom" horiz-adv-x="363" 
d="M255 193c50.667 -15.333 76.001 -46.999 76.001 -94.999c0 -31.333 -13.667 -57.333 -41 -78s-63.333 -31 -108 -31s-80.834 10.333 -108.501 31s-41.5 46.667 -41.5 78c0 48.667 25 80.667 75 96c-40 15.333 -60 42.666 -60 81.999c0 28.667 13 52.834 39 72.501
s58.333 29.5 97 29.5c38 0 69.833 -9.83301 95.5 -29.5s38.5 -43.834 38.5 -72.501c0 -39.333 -20.667 -67 -62 -83zM182.001 322.001c-19.333 0 -35.333 -5 -48 -15s-19 -23 -19 -39c0 -14 6.5 -26 19.5 -36s28.833 -15 47.5 -15s34.167 4.83301 46.5 14.5
s18.833 21.834 19.5 36.5c0 16 -6.16699 29 -18.5 39c-12.334 10 -28.167 15 -47.5 15zM182.001 51.001c20 0 36.667 5.16699 50 15.5s20 23.833 20 40.5c0 16 -6.33301 29.333 -19 40s-29.667 16 -51 16s-38.666 -5.16699 -51.999 -15.5s-20 -23.833 -20 -40.5
s6.66699 -30.167 20 -40.5s30.666 -15.5 51.999 -15.5z" />
    <glyph glyph-name="nine.dnom" horiz-adv-x="352" 
d="M166 378c50 0 89 -15.999 117 -47.999s42 -77 42 -135c0 -72.667 -18 -127.334 -54 -164.001c-28 -28 -63.333 -42 -106 -42c-35.333 0 -65 8.83301 -89 26.5s-39 42.5 -45 74.5l75 12c6 -32.667 26.333 -49 61 -49c20.667 0 38 7.66699 52 23c16 17.333 25.667 44 29 80
c-26 -20.667 -57 -31 -93 -31c-38 0 -69 11.833 -93 35.5s-36 53.834 -36 90.5c0 37.333 13 67.833 39 91.5s59.667 35.5 101 35.5zM169 180.001c20.667 0 37.834 6.66699 51.5 20c13.667 13.333 20.5 29.666 20.5 48.999s-7 35.5 -21 48.5s-31 19.5 -51 19.5
c-20.667 0 -37.667 -6.66699 -51 -20s-20 -29.666 -20 -48.999c0 -18.667 6.83301 -34.667 20.5 -48s30.5 -20 50.5 -20z" />
    <glyph glyph-name="zero.numr" horiz-adv-x="400" 
d="M200 680c49.333 0 88.833 -17.668 118.5 -53.001s44.5 -82.333 44.5 -141s-14.833 -105.834 -44.5 -141.5c-29.667 -35.667 -69.167 -53.5 -118.5 -53.5c-48.667 0 -87.834 17.833 -117.501 53.5s-44.5 82.834 -44.5 141.501s14.833 105.667 44.5 141
s68.834 53 117.501 53zM200 358.999c25.333 0 45 11.167 59 33.5s21 53.5 21 93.5c0 38.667 -7 69 -21 91s-33.667 33 -59 33c-24 0 -43.333 -11 -58 -33s-22 -52.333 -22 -91c0 -39.333 7.33301 -70.333 22 -93s34 -34 58 -34z" />
    <glyph glyph-name="one.numr" horiz-adv-x="241" 
d="M177 295h-77v273l-78 -49v82l105 69h50v-375z" />
    <glyph glyph-name="two.numr" horiz-adv-x="341" 
d="M148 364h157.002v-67h-279v51l142 120c23.333 20 39.5 36 48.5 48s13.5 26 13.5 42c0 17.333 -5.83301 31.166 -17.5 41.499s-26.834 15.5 -45.501 15.5c-21.333 0 -38 -7 -50 -21s-18.667 -33 -20 -57l-66 15c0 38 12.333 68.833 37 92.5s57.667 35.5 99 35.5
s74.666 -10.833 99.999 -32.5s38 -51.167 38 -88.5c0 -26 -7.33301 -49.167 -22 -69.5s-37 -43.166 -67 -68.499z" />
    <glyph glyph-name="three.numr" horiz-adv-x="342" 
d="M254 493c38.667 -17.333 58.001 -45 58.001 -83c0 -34 -13.167 -62.167 -39.5 -84.5s-60.166 -33.5 -101.499 -33.5c-40.667 0 -74.5 11.167 -101.5 33.5s-41.167 52.5 -42.5 90.5l65 16c1.33301 -24 9.16602 -42.667 23.499 -56s33.166 -20 56.499 -20
c20.667 0 37.167 5.16699 49.5 15.5s18.5 23.833 18.5 40.5c0 16 -6.16699 28.5 -18.5 37.5s-28.5 13.5 -48.5 13.5h-38v55h33c19.333 0 35.333 4.33301 48 13s19 20.334 19 35c0 15.333 -6 27.833 -18 37.5s-27.667 14.5 -47 14.5c-22 0 -39.333 -6.16699 -52 -18.5
s-19.334 -29.833 -20 -52.5l-67 16c2.66699 36 16.5 64.5 41.5 85.5s57.167 31.5 96.5 31.5c40 0 72.667 -10.667 98 -32s38 -48 38 -80c0 -34.667 -17 -59.667 -51 -75z" />
    <glyph glyph-name="four.numr" horiz-adv-x="374" 
d="M347 372h-54v-76h-72v76h-198v70l181 228h89v-235h54v-63zM221 435v155l-124 -155h124z" />
    <glyph glyph-name="five.numr" horiz-adv-x="343" 
d="M116 535h75.999c36 0 65.833 -10.833 89.5 -32.5s35.5 -50.5 35.5 -86.5c0 -38 -13.167 -68.833 -39.5 -92.5s-60.833 -35.5 -103.5 -35.5c-39.333 0 -72.666 10.667 -99.999 32s-43 47.666 -47 78.999l73 13c4 -18 12.667 -32.333 26 -43s29.333 -16 48 -16
c20 0 36.5 5.33301 49.5 16s19.5 25.334 19.5 44.001s-6.83301 33 -20.5 43s-31.167 15 -52.5 15h-126l10 199h244v-68h-178z" />
    <glyph glyph-name="six.numr" horiz-adv-x="352" 
d="M197 544c38 0 69 -11.668 93 -35.001s36 -53.333 36 -90c0 -37.333 -13 -67.833 -39 -91.5s-59.333 -35.5 -100 -35.5c-50 0 -89 16 -117 48s-42 77 -42 135c0 73.333 18 128 54 164c27.333 27.333 62.333 41 105 41c36 0 65.833 -8.66699 89.5 -26
s38.5 -42.333 44.5 -75l-75 -11c-5.33398 32.667 -25.667 49 -61 49c-20.667 0 -38 -8 -52 -24c-16 -17.334 -25.667 -43.667 -29 -78.999c25.333 20 56.333 30 93 30zM184 352.999c20 0 36.665 6.5 49.998 19.5s20 29.167 20 48.5c0 19.334 -6.66699 35.667 -20 48.999
c-13.333 13.333 -30 20 -50 20c-21.333 0 -38.666 -6.66699 -51.999 -20s-20 -29.666 -20 -48.999s6.83301 -35.5 20.5 -48.5s30.834 -19.5 51.501 -19.5z" />
    <glyph glyph-name="seven.numr" horiz-adv-x="291" 
d="M281 670v-59l-145 -315h-83l145 306h-191v68h274z" />
    <glyph glyph-name="eight.numr" horiz-adv-x="363" 
d="M255 495c50.667 -15.333 76.001 -46.999 76.001 -94.999c0 -31.333 -13.667 -57.166 -41 -77.499s-63.333 -30.5 -108 -30.5s-80.834 10.167 -108.501 30.5c-27.667 20.334 -41.5 46.167 -41.5 77.5c0 48.667 25 80.667 75 96c-40 15.333 -60 42.666 -60 81.999
c0 28.6689 13 52.8359 39 72.5c26 19.667 58.333 29.5 97 29.5c38 0 69.833 -9.83301 95.5 -29.5s38.5 -43.834 38.5 -72.501c0 -39.333 -20.667 -67 -62 -83zM182.001 624.001c-19.333 0 -35.333 -5 -48 -15s-19 -23 -19 -39c0 -14 6.5 -26 19.5 -36s28.833 -15 47.5 -15
s34.167 4.83301 46.5 14.5c12.333 9.6709 18.833 21.8379 19.5 36.5c0 16 -6.16699 29 -18.5 39c-12.334 10 -28.167 15 -47.5 15zM182.001 353.001c20 0 36.667 5.16699 50 15.5s20 23.833 20 40.5c0 16 -6.33301 29.333 -19 40s-29.667 16 -51 16
s-38.666 -5.16699 -51.999 -15.5s-20 -23.833 -20 -40.5s6.66699 -30.167 20 -40.5s30.666 -15.5 51.999 -15.5z" />
    <glyph glyph-name="nine.numr" horiz-adv-x="352" 
d="M166 680c50 0 88.999 -16.001 116.999 -48.001s42 -77 42 -135c0 -72.667 -18 -127.334 -54 -164c-27.333 -27.333 -62.666 -41 -105.999 -41c-35.333 0 -65 8.66699 -89 26s-39 42 -45 74l75 12c6 -32.667 26.333 -49 61 -49c20.667 0 38 7.66699 52 23
c16 17.333 25.667 44 29 80c-26 -20.667 -57 -31 -93 -31c-38 0 -69 11.833 -93 35.5s-36 53.834 -36 90.501c0 37.333 13 67.833 39 91.5s59.667 35.5 101 35.5zM168.999 481.999c20.667 0 37.834 6.66797 51.5 20.001c13.667 13.333 20.5 29.666 20.5 48.999
s-7 35.5 -21 48.5s-31 19.5 -51 19.5c-20.667 0 -37.667 -6.66699 -51 -20c-13.333 -13.3359 -20 -29.6689 -20 -49c0 -18.667 6.83301 -34.667 20.5 -48s30.5 -20 50.5 -20z" />
    <glyph glyph-name="backslash.case" horiz-adv-x="393" 
d="M367 0h-103l-237 670h102z" />
    <glyph glyph-name="periodcentered.case" horiz-adv-x="221" 
d="M111 389c18.667 0 34.167 -6.16797 46.5 -18.501s18.5 -27.166 18.5 -44.499c0 -18 -6.16699 -33 -18.5 -45s-27.833 -18 -46.5 -18s-34.334 6 -47.001 18s-19 27 -19 45c0 17.334 6.33301 32.167 19 44.5s28.334 18.5 47.001 18.5z" />
    <glyph glyph-name="bullet.case" horiz-adv-x="410" 
d="M205 484c45.333 0 83.333 -15.333 114 -46s46 -67 46 -109c0 -44 -15.167 -80.667 -45.5 -110s-68.5 -44 -114.5 -44s-84.167 14.667 -114.5 44s-45.5 66 -45.5 110c0 42 15.333 78.333 46 109s68.667 46 114 46z" />
    <glyph glyph-name="colon.case" horiz-adv-x="221" 
d="M111 548c18.667 0 34.167 -6.16699 46.5 -18.5s18.5 -27.166 18.5 -44.499c0 -18 -6.16699 -33 -18.5 -45s-27.833 -18 -46.5 -18s-34.334 6 -47.001 18s-19 27 -19 45c0 17.333 6.33301 32.166 19 44.499s28.334 18.5 47.001 18.5zM111 221
c18.667 0 34.167 -6.33301 46.5 -19s18.5 -27.667 18.5 -45c0 -18 -6.16699 -33 -18.5 -45s-27.833 -18 -46.5 -18s-34.334 6 -47.001 18s-19 27 -19 45c0 17.333 6.33301 32.333 19 45s28.334 19 47.001 19z" />
    <glyph glyph-name="exclamdown.case" horiz-adv-x="279" 
d="M139 547c-18.667 0 -34.167 6.33203 -46.5 18.999s-18.5 27.667 -18.5 45c0 18 6.16699 33 18.5 45s27.833 18 46.5 18s34.334 -6.16699 47.001 -18.5c12.667 -12.3379 19 -27.1709 19 -44.499c0 -17.333 -6.33301 -32.333 -19 -45s-28.334 -19 -47.001 -19zM83 30.999
l4 430h106l4 -430v-31h-114v31z" />
    <glyph glyph-name="questiondown.case" horiz-adv-x="528" 
d="M271 550c-18.667 0 -34.168 6.16797 -46.501 18.501s-18.5 27.166 -18.5 44.499c0 18 6.16699 33 18.5 45s27.833 18 46.5 18s34.334 -6 47.001 -18s19 -27 19 -45c0 -17.3379 -6.33301 -32.1709 -19 -44.5c-12.667 -12.333 -28.334 -18.5 -47 -18.5zM395.999 218.001
l99.999 -18.998c-3.33301 -58.667 -27.333 -108.334 -72 -149.001s-100.667 -61 -168 -61c-68 0 -122.833 19.667 -164.5 59s-62.5 90.666 -62.5 153.999c0 52 17.5 95.167 52.5 129.5s81.833 54.833 140.5 61.5v66h96v-146h-59c-37.333 0 -68.166 -10.333 -92.499 -31
s-36.5 -47.334 -36.5 -80.001c0 -35.333 11.667 -64.166 35 -86.499s53.666 -33.5 90.999 -33.5c39.333 0 71.333 12.333 96 37s39.334 57.667 44.001 99z" />
    <glyph glyph-name="semicolon.case" horiz-adv-x="251" 
d="M140 548c18.667 0 34.334 -6.16699 47.001 -18.5s19 -27.166 19 -44.499c0 -18 -6.33301 -33 -19 -45s-28.334 -18 -47.001 -18s-34.167 6 -46.5 18s-18.5 27 -18.5 45c0 17.333 6.16699 32.166 18.5 44.499s27.833 18.5 46.5 18.5zM92 -132h-79l63 266h121v-3z" />
    <glyph glyph-name="slash.case" horiz-adv-x="443" 
d="M141 0h-94l254 670h94z" />
    <glyph glyph-name="braceleft.case" horiz-adv-x="427" 
d="M238 532l0.000976562 -89c0 -26 -5.83301 -48.5 -17.5 -67.5s-27.834 -32.833 -48.501 -41.5c44 -19.333 66 -56 66 -110v-86c0 -14.667 4.33301 -26.667 13 -36s20 -14 34 -14h94v-88h-106c-40.667 0 -73.5 11.667 -98.5 35s-37.5 54.333 -37.5 93v84
c0 38.667 -26 63.667 -78 75l-26 8v78l26 8c52 10 78 34.667 78 74v87c0 38.667 12.5 69.667 37.5 93s57.833 35 98.5 35h106v-88h-94c-14 0 -25.333 -4.66699 -34 -14s-13 -21.333 -13 -36z" />
    <glyph glyph-name="braceright.case" horiz-adv-x="427" 
d="M394 373v-78l-26 -8c-52 -11.333 -78 -36.333 -78 -75v-84c0 -38.667 -12.5 -69.667 -37.5 -93s-57.833 -35 -98.5 -35h-106v88h94c14 0 25.333 4.66699 34 14s13 21.333 13 36v86c0 26 5.83301 48.5 17.5 67.5s27.834 32.833 48.5 41.5c-44 19.333 -66 56 -66 110v89
c0 14.667 -4.33301 26.667 -13 36s-20 14 -34 14h-94v88h106c40.667 0 73.5 -11.667 98.5 -35s37.5 -54.333 37.5 -93v-87c0 -39.333 26 -64 78 -74z" />
    <glyph glyph-name="bracketleft.case" horiz-adv-x="398" 
d="M180 580v-490h171v-90h-272v670h272v-90h-171z" />
    <glyph glyph-name="bracketright.case" horiz-adv-x="398" 
d="M319 670v-670h-271v90h171v490h-171v90h271z" />
    <glyph glyph-name="parenleft.case" horiz-adv-x="331" 
d="M219 684l65 -62.999c-82.667 -87.334 -124 -183.001 -124 -287.001c0 -53.333 9.83301 -102.833 29.5 -148.5s51.167 -91.5 94.5 -137.5l-65 -63c-114 98 -171 214.333 -171 349c0 136 57 252.667 171 350z" />
    <glyph glyph-name="parenright.case" horiz-adv-x="331" 
d="M48 621l65 63.001c114 -98 171 -214.667 171 -350c0 -134 -57 -250.333 -171 -349l-65 63c82.667 89.333 124 184.666 124 285.999c0 54 -10 103.833 -30 149.5s-51.333 91.5 -94 137.5z" />
    <glyph glyph-name="emdash.case" horiz-adv-x="1040" 
d="M980 291h-920v80h920v-80z" />
    <glyph glyph-name="endash.case" horiz-adv-x="620" 
d="M560 291h-500v80h500v-80z" />
    <glyph glyph-name="hyphen.case" horiz-adv-x="446" 
d="M386 286h-326v91h326v-91z" />
    <glyph glyph-name="guillemotleft.case" horiz-adv-x="443" 
d="M25 322l117 178h104l-117 -178l117 -178h-104zM198 322l117 178h104l-117 -178l117 -178h-104z" />
    <glyph glyph-name="guillemotright.case" horiz-adv-x="443" 
d="M25 144l117 178l-117 178h104l117 -178l-117 -178h-104zM197 144l117 178l-117 178h104l117 -178l-117 -178h-104z" />
    <glyph glyph-name="guilsinglleft.case" horiz-adv-x="271" 
d="M25 322l117 178h104l-117 -178l117 -178h-104z" />
    <glyph glyph-name="guilsinglright.case" horiz-adv-x="271" 
d="M25 144l117 178l-117 178h104l117 -178l-117 -178h-104z" />
    <glyph glyph-name="cent.tf" 
d="M332 411v-325.999c55.334 10.667 92.667 44.334 112 101.001l96 -25c-12 -46.667 -36.5 -85.334 -73.5 -116.001s-80.5 -49.334 -130.5 -56.001v-119h-88v120c-61.333 11.333 -112 40.333 -152 87s-60 103.667 -60 171c0 66.667 20.167 123.5 60.5 170.5
s90.833 75.833 151.5 86.5v125h88v-123c48.667 -6.66699 91.5 -25.167 128.5 -55.5s62.167 -68.833 75.5 -115.5l-100 -29c-15.333 58 -51.333 92.667 -108 104zM138 248.001c0 -40.667 10.333 -75 31 -103s48 -47 82 -57v320c-34 -9.33301 -61.333 -28.5 -82 -57.5
s-31 -63.167 -31 -102.5z" />
    <glyph glyph-name="dollar.tf" 
d="M553 202c0 -53.333 -18.168 -97.1699 -54.501 -131.503s-84.166 -54.166 -143.499 -59.499v-111h-89v115c-56.667 8.66699 -104.5 30.334 -143.5 65.001s-60.5 78.334 -64.5 131.001l106 21c4.66699 -66.667 40 -108.667 106 -126v193l-36 8
c-46 8.66699 -84.167 26.334 -114.5 53.001s-45.5 64.334 -45.5 113.001c0 51.333 17.5 93.5 52.5 126.5s81.5 52.5 139.5 58.5v112h89v-114c54.667 -8.66699 99 -29.834 133 -63.501s53 -75.834 57 -126.501l-104 -19c-0.667969 30.667 -9.33496 56.167 -26 76.5
c-16.667 20.333 -37.667 34.5 -63 42.5v-185l40 -8c107.333 -24 161 -81 161 -171zM269.999 398.996v170.999c-27.333 -5.33398 -48.833 -16.167 -64.5 -32.499c-15.667 -16.334 -23.5 -35.834 -23.5 -58.5c0 -40 25.667 -66 77 -78zM351.999 280.995v-179
c30.667 4.66699 55 15.667 73 33s27 38.333 27 63c0 42 -28.667 68.667 -86 80z" />
    <glyph glyph-name="Euro.tf" 
d="M328 87c68 0 116.668 49 146.001 147l108 -20c-16 -69.333 -46.667 -124.666 -92 -165.999s-99.333 -62 -162 -62c-66 0 -121.5 20.667 -166.5 62s-75.167 99.666 -90.5 174.999h-53v77h44c-0.666992 7.33301 -1 19 -1 35l1 32h-44v76h53
c14.667 76.667 44.5 136 89.5 178s100.833 63 167.5 63c63.333 0 117.5 -21 162.5 -63s75.5 -98.667 91.5 -170l-107 -18c-12 48.667 -31 86 -57 112s-56 39 -90 39c-36 0 -66.667 -12 -92 -36c-25.334 -24 -43.667 -59 -55 -105h212l-19 -76h-203l-1 -32
c0 -16 0.333008 -27.667 1 -35h189l-18 -77h-160c11.333 -44 29.666 -77.667 54.999 -101c25.334 -23.333 55.667 -35 91 -35z" />
    <glyph glyph-name="florin.tf" 
d="M477 590c-27.333 0 -50.333 -8.16797 -69 -24.501s-31 -39.833 -37 -70.5l-22 -121h172v-86h-187l-54 -298c-8.66699 -47.333 -29 -85 -61 -113s-71 -42 -117 -42c-32 0 -62.333 8.66699 -91 26l34 84c19.333 -8 38.666 -12 57.999 -12
c18.667 0 34.834 5.33301 48.501 16s22.167 24.334 25.5 41.001l54 298h-113v86h128l22 121c10.667 58 35 103.833 73 137.5s85.333 50.5 142 50.5c44 0 82.333 -12 115 -36l-36 -85c-24.667 18.667 -53 28 -85 28z" />
    <glyph glyph-name="sterling.tf" 
d="M569 97v-97h-535v66l83 20v169h-83v97h83v110c0 66 20.667 119.5 62 160.5s96 61.5 164 61.5c67.333 0 120.833 -19.667 160.5 -59s61.167 -93.333 64.5 -162l-97 -16c-10.667 89.333 -53.334 134 -128 134c-35.333 0 -64 -11 -86 -33s-33 -50.667 -33 -86v-110h192v-97
h-192v-158h345z" />
    <glyph glyph-name="yen.tf" 
d="M396 326h129v-80h-168v-63h168v-80h-168v-103h-108v103h-164v80h164v63h-164v80h125l-197 344h119l171 -316l170 316h123z" />
    <glyph glyph-name="approxequal.tf" 
d="M530 444l0.000976562 -88c-25.333 -13.333 -58.666 -20 -99.999 -20c-34.667 0 -74.334 8.16699 -119 24.5c-44.667 16.333 -83.334 24.5 -116.001 24.5c-52.667 0 -91 -10.333 -115 -31v87c25.333 20.667 63.666 31 114.999 31c34 0 74 -8.16699 120 -24.5
s84.667 -24.5 116 -24.5c43.333 0 76.333 7 99 21zM530.001 292l0.00195312 -88c-26.667 -14 -60 -21 -100 -21c-34.667 0 -74.334 8.33301 -119 25c-44.667 16.667 -83.334 25 -116.001 25c-52.667 0 -91 -10.333 -115 -31v87c25.333 20.667 63.666 31 114.999 31
c34 0 74 -8.16699 120 -24.5s84.667 -24.5 116 -24.5c43.333 0 76.333 7 99 21z" />
    <glyph glyph-name="divide.tf" 
d="M301 539c18.667 0 34.333 -6.33301 47 -19s19 -27.667 19 -45c0 -18 -6.33301 -33 -19 -45s-28.334 -18 -47 -18c-18.667 0 -34.167 6 -46.5 18s-18.5 27 -18.5 45c0 17.333 6.16699 32.333 18.5 45s27.833 19 46.5 19zM529.999 259h-450v92h450v-92zM300.999 184
c18.667 0 34.333 -6.33398 47 -19.001s19 -27.667 19 -45s-6.33301 -32.166 -19 -44.499s-28.334 -18.5 -47 -18.5c-18.667 0 -34.167 6 -46.5 18s-18.5 27 -18.5 45c0 17.333 6.16699 32.333 18.5 45s27.833 19 46.5 19z" />
    <glyph glyph-name="equal.tf" 
d="M530 371h-450v91h450v-91zM530 178h-450v91h450v-91z" />
    <glyph glyph-name="greater.tf" 
d="M382 323l-250 94v111l373 -152v-108l-373 -150v109z" />
    <glyph glyph-name="greaterequal.tf" 
d="M374 378l-241 71v107l355 -128v-99l-355 -128v104zM487 86h-354v91h354v-91z" />
    <glyph glyph-name="less.tf" 
d="M478 118l-372 150v108l372 152v-111l-250 -94l250 -96v-109z" />
    <glyph glyph-name="lessequal.tf" 
d="M479 201l-355 128v99l355 128v-107l-241 -71l241 -73v-104zM479 177v-91h-354v91h354z" />
    <glyph glyph-name="minus.tf" 
d="M530 259h-450v92h450v-92z" />
    <glyph glyph-name="multiply.tf" 
d="M371 305l138 -137l-66 -67l-138 138l-139 -138l-66 67l138 137l-138 138l66 66l139 -138l138 138l66 -66z" />
    <glyph glyph-name="notequal.tf" 
d="M381 371l-58 -102h207v-91h-259l-46 -80h-95l46 80h-96v91h148l59 102h-207v91h259l48 83h94l-48 -83h97v-91h-149z" />
    <glyph glyph-name="plus.tf" 
d="M530 259h-179v-182h-92v182h-179v92h179v182h92v-182h179v-92z" />
    <glyph glyph-name="plusminus.tf" 
d="M530 420v-91h-179v-157h-92v157h-179v91h179v172h92v-172h179zM80 91h450v-91h-450v91z" />
    <glyph glyph-name="bar.case" horiz-adv-x="258" 
d="M180 -41h-101v752h101v-752z" />
    <glyph glyph-name="at.case" horiz-adv-x="951" 
d="M663 513l0.00195312 -288.998c0 -18 6.16699 -32.333 18.5 -43s27.833 -16 46.5 -16c32 0 56.167 17.667 72.5 53s24.5 76 24.5 122c0 94 -33.167 171.167 -99.5 231.5c-66.334 60.333 -148.167 90.5 -245.5 90.5c-101.333 0 -185.666 -32.833 -252.999 -98.5
s-101 -148.167 -101 -247.5c0 -98.667 33.333 -180.834 100 -246.501s147.667 -98.5 243 -98.5c91.333 0 172 25.333 242 76l35 -55c-34.667 -26.667 -76.834 -47.5 -126.501 -62.5s-99.167 -22.5 -148.5 -22.5c-115.333 0 -213 38.667 -293 116s-120 174.666 -120 291.999
c0 117.334 40.167 214.834 120.5 292.5c80.333 77.667 180.833 116.5 301.5 116.5c115.333 0 213.166 -36 293.499 -108s120.5 -162.333 120.5 -271c0 -40 -5.33301 -77.5 -16 -112.5s-29.834 -65.333 -57.501 -91s-61.834 -38.5 -102.501 -38.5
c-60.667 0 -99.667 23 -117 69c-33.333 -44 -82 -66 -146 -66c-57.333 0 -105.166 19 -143.499 57s-57.5 87.667 -57.5 149c0 62.667 19.333 113.167 58 151.5s86.334 57.5 143.001 57.5c57.333 0 103.666 -20.333 138.999 -61v53h69zM465.002 176.002
c35.333 0 65.666 12.5 90.999 37.5s38 58.167 38 99.5c0 40.667 -12.667 73.5 -38 98.5s-55.666 37.5 -90.999 37.5c-36 0 -66.667 -12.333 -92 -37s-38 -57.667 -38 -99s12.833 -74.5 38.5 -99.5s56.167 -37.5 91.5 -37.5z" />
    <glyph glyph-name="caron.alt" horiz-adv-x="600" 
d="M342 464h-82v186h105z" />
    </font>
</defs>
</svg>
