<?xml version="1.0" encoding="iso-8859-1"?>
<!-- Generator: Adobe Illustrator 17.1.0, SVG Export Plug-In . SVG Version: 6.00 Build 0)  -->
<!DOCTYPE svg PUBLIC "-//W3C//DTD SVG 1.1//EN" "http://www.w3.org/Graphics/SVG/1.1/DTD/svg11.dtd">
<svg version="1.1" id="Capa_1" xmlns="http://www.w3.org/2000/svg" xmlns:xlink="http://www.w3.org/1999/xlink" x="0px" y="0px"
	 viewBox="0 0 427.015 427.015" style="enable-background:new 0 0 427.015 427.015;" xml:space="preserve">
<g>
	<path d="M421.392,89.25l-55.725-14.422c-1.926-0.498-3.97-0.212-5.685,0.798c-1.714,1.009-2.957,2.658-3.455,4.583l-2.385,9.214
		c-52.535-21.477-105.346-22.145-140.705-18.826c-30.795,2.89-53.586,9.064-62.403,11.737l-2.152-10.194
		c-0.855-4.053-4.836-6.642-8.888-5.789L5.95,94.654c-1.946,0.411-3.649,1.579-4.734,3.245c-1.086,1.667-1.465,3.697-1.054,5.643
		l53.07,251.333c0.745,3.531,3.86,5.952,7.33,5.952c0.514,0,1.035-0.053,1.558-0.163l134.044-28.304
		c1.946-0.411,3.649-1.579,4.734-3.245c1.086-1.667,1.465-3.697,1.054-5.643l-1.631-7.724c15.618-4.343,55.803-10.202,94.063,4.57
		l-2.149,8.306c-1.038,4.01,1.371,8.103,5.382,9.14l55.725,14.422c0.619,0.16,1.25,0.239,1.879,0.239
		c1.327,0,2.643-0.352,3.806-1.037c1.714-1.009,2.957-2.658,3.455-4.583L426.774,98.39C427.812,94.38,425.403,90.287,421.392,89.25z
		 M251.098,296.117l5.724-211.761c13.787,0.49,28.319,1.934,43.203,4.743l-33.792,208.547
		C261.079,296.899,256.014,296.398,251.098,296.117z M241.822,84.176L236.1,295.87c-4.332,0.103-8.47,0.354-12.39,0.705
		L201.409,87.137C213.384,85.538,227.037,84.355,241.822,84.176z M50.793,270.717l29.586-6.247l1.18,5.586
		c0.41,1.946,1.578,3.649,3.244,4.735c1.228,0.799,2.651,1.215,4.094,1.215c0.517,0,1.036-0.053,1.55-0.162l53.186-11.23
		l2.36,11.178L92.65,287.057c-1.946,0.411-3.65,1.579-4.734,3.245c-1.086,1.667-1.465,3.697-1.054,5.643l0.918,4.347l-29.431,6.215
		L50.793,270.717z M24.243,144.983l29.136-6.152l1.18,5.586c0.41,1.946,1.578,3.649,3.244,4.735
		c1.228,0.799,2.651,1.215,4.094,1.215c0.517,0,1.036-0.053,1.55-0.162l53.637-11.325l2.36,11.178L65.65,161.417
		c-1.946,0.411-3.65,1.579-4.734,3.245c-1.086,1.667-1.465,3.697-1.054,5.643l0.918,4.347l-28.98,6.119L24.243,144.983z
		 M140.534,249.938l-45.849,9.682l-2.203-10.436l45.848-9.68L140.534,249.938z M129.605,198.183l-90.111,19.028l-4.595-21.763
		l28.98-6.119l1.285,6.088c0.745,3.53,3.86,5.952,7.33,5.952c0.514,0,1.035-0.053,1.558-0.163l53.792-11.358L129.605,198.183z
		 M124.746,175.171l-46.454,9.809l-2.204-10.436l46.454-9.809L124.746,175.171z M113.984,124.204l-46.299,9.776l-2.203-10.436
		l46.298-9.776L113.984,124.204z M42.594,231.888l90.11-19.027l2.527,11.966l-53.186,11.23c-4.053,0.856-6.645,4.835-5.788,8.888
		l1.023,4.849l-29.587,6.248L42.594,231.888z M103.088,300.184l46.005-9.713l2.203,10.435l-46.004,9.714L103.088,300.184z
		 M106.499,88.755l2.183,10.337l-53.637,11.326c-4.053,0.856-6.644,4.835-5.788,8.888l1.023,4.849l-29.137,6.152l-4.756-22.524
		L106.499,88.755z M61.449,321.183l29.431-6.214l1.285,6.088c0.745,3.531,3.86,5.952,7.33,5.952c0.514,0,1.035-0.053,1.558-0.163
		l53.342-11.264l2.075,9.829l-90.11,19.027L61.449,321.183z M171.145,322.312L121.175,85.655l14.58-3.079l49.972,236.657
		L171.145,322.312z M154.147,97.079c4.571-1.411,16.104-4.713,32.424-7.629l22.262,209.073c-4.489,0.787-8.409,1.665-11.616,2.523
		L154.147,97.079z M280.971,300.466l33.732-208.169c11.81,2.936,23.755,6.803,35.646,11.786l-52.183,201.628
		C292.429,303.573,286.676,301.841,280.971,300.466z M349.84,335.787l-41.204-10.664L369.17,91.228l41.204,10.664L349.84,335.787z"
		/>
	<path d="M367.599,146.951c1.694,2.877,4.408,4.922,7.64,5.759c1.025,0.266,2.081,0.4,3.136,0.4c5.696,0,10.671-3.853,12.098-9.368
		c0.837-3.233,0.365-6.598-1.329-9.476c-1.694-2.877-4.408-4.922-7.64-5.759c-1.025-0.266-2.081-0.4-3.136-0.4
		c-5.696,0-10.671,3.853-12.098,9.368C365.434,140.708,365.905,144.073,367.599,146.951z"/>
	<path d="M369.31,175.622c-1.025-0.265-2.081-0.4-3.136-0.4c-5.696,0-10.671,3.854-12.098,9.368
		c-0.837,3.232-0.365,6.598,1.329,9.475c1.694,2.878,4.407,4.923,7.639,5.759c1.025,0.266,2.081,0.4,3.137,0.4
		c5.696,0,10.671-3.853,12.098-9.37C380.005,184.181,375.981,177.348,369.31,175.622z"/>
	<path d="M357.116,222.736c-1.025-0.266-2.08-0.4-3.135-0.4c-5.695,0-10.67,3.852-12.099,9.371
		c-1.726,6.672,2.298,13.505,8.97,15.232c1.025,0.266,2.08,0.4,3.135,0.4c5.695,0,10.67-3.852,12.099-9.371
		C367.811,231.296,363.788,224.463,357.116,222.736z"/>
	<path d="M344.923,269.85c-1.025-0.266-2.08-0.4-3.135-0.4c-5.695,0-10.67,3.852-12.099,9.371
		c-1.726,6.672,2.298,13.505,8.97,15.232c1.025,0.266,2.08,0.4,3.135,0.4c5.695,0,10.67-3.852,12.099-9.371
		C355.618,278.41,351.595,271.577,344.923,269.85z"/>
</g>
<g>
</g>
<g>
</g>
<g>
</g>
<g>
</g>
<g>
</g>
<g>
</g>
<g>
</g>
<g>
</g>
<g>
</g>
<g>
</g>
<g>
</g>
<g>
</g>
<g>
</g>
<g>
</g>
<g>
</g>
</svg>
