<?xml version="1.0" encoding="iso-8859-1"?>
<!-- Generator: Adobe Illustrator 17.1.0, SVG Export Plug-In . SVG Version: 6.00 Build 0)  -->
<!DOCTYPE svg PUBLIC "-//W3C//DTD SVG 1.1//EN" "http://www.w3.org/Graphics/SVG/1.1/DTD/svg11.dtd">
<svg version="1.1" id="Capa_1" xmlns="http://www.w3.org/2000/svg" xmlns:xlink="http://www.w3.org/1999/xlink" x="0px" y="0px"
	 viewBox="0 0 193 193" style="enable-background:new 0 0 193 193;" xml:space="preserve">
<path d="M188,26.404h-28.108h-18.689h-35.358H87.155H51.797H33.108H5c-2.761,0-5,2.239-5,5v130.192c0,2.761,2.239,5,5,5h183
	c2.761,0,5-2.239,5-5V31.404C193,28.643,190.761,26.404,188,26.404z M51.797,101.5c2.761,0,5-2.239,5-5V36.404h25.358V96.5
	c0,2.761,2.239,5,5,5H91.5v55.096H47.453V101.5H51.797z M101.5,101.5h4.344c2.761,0,5-2.239,5-5V36.404h25.358V96.5
	c0,2.761,2.239,5,5,5h4.345v55.096H101.5V101.5z M10,36.404h18.108V96.5c0,2.761,2.239,5,5,5h4.345v55.096H10V36.404z M183,156.596
	h-27.453V101.5h4.344c2.761,0,5-2.239,5-5V36.404H183V156.596z"/>
<g>
</g>
<g>
</g>
<g>
</g>
<g>
</g>
<g>
</g>
<g>
</g>
<g>
</g>
<g>
</g>
<g>
</g>
<g>
</g>
<g>
</g>
<g>
</g>
<g>
</g>
<g>
</g>
<g>
</g>
</svg>
