<?xml version="1.0" encoding="iso-8859-1"?>
<!-- Generator: Adobe Illustrator 16.0.0, SVG Export Plug-In . SVG Version: 6.00 Build 0)  -->
<!DOCTYPE svg PUBLIC "-//W3C//DTD SVG 1.1//EN" "http://www.w3.org/Graphics/SVG/1.1/DTD/svg11.dtd">
<svg version="1.1" id="Capa_1" xmlns="http://www.w3.org/2000/svg" xmlns:xlink="http://www.w3.org/1999/xlink" x="0px" y="0px"
	 width="56.091px" height="56.091px" viewBox="0 0 56.091 56.091" style="enable-background:new 0 0 56.091 56.091;"
	 xml:space="preserve">
<g>
	<g>
		<path d="M3.803,45.01L1.348,56.091h45.5L44.394,45.01H3.803z M6.95,52.347c-0.992,0-1.796-0.805-1.796-1.796
			s0.804-1.796,1.796-1.796c0.992,0,1.796,0.805,1.796,1.796S7.942,52.347,6.95,52.347z M41.383,52.347
			c-0.99,0-1.795-0.805-1.795-1.796s0.805-1.796,1.795-1.796c0.993,0,1.797,0.805,1.797,1.796S42.376,52.347,41.383,52.347z"/>
		<path d="M4.483,41.938h39.229l-2.454-11.08H6.938L4.483,41.938z M38.074,34.416c0.992,0,1.795,0.804,1.795,1.796
			s-0.803,1.797-1.795,1.797s-1.796-0.805-1.796-1.797S37.082,34.416,38.074,34.416z M10.259,34.416
			c0.991,0,1.795,0.804,1.795,1.796s-0.804,1.797-1.795,1.797c-0.992,0-1.796-0.805-1.796-1.797S9.267,34.416,10.259,34.416z"/>
		<path d="M10.072,16.706L7.618,27.788h32.961l-2.455-11.082H10.072z M13.292,24.042c-0.991,0-1.795-0.804-1.795-1.796
			c0-0.991,0.804-1.795,1.795-1.795c0.992,0,1.796,0.804,1.796,1.795C15.088,23.238,14.285,24.042,13.292,24.042z M34.949,24.042
			c-0.992,0-1.796-0.804-1.796-1.796c0-0.991,0.804-1.795,1.796-1.795s1.795,0.804,1.795,1.795
			C36.744,23.238,35.941,24.042,34.949,24.042z"/>
		<path d="M13.207,2.554l-2.454,11.081h26.69L34.989,2.554H13.207z M16.119,9.891c-0.992,0-1.796-0.804-1.796-1.796
			s0.804-1.796,1.796-1.796s1.795,0.804,1.795,1.796S17.111,9.891,16.119,9.891z M32.164,9.891c-0.992,0-1.796-0.804-1.796-1.796
			s0.804-1.796,1.796-1.796s1.795,0.804,1.795,1.796S33.156,9.891,32.164,9.891z"/>
		<path d="M51.379,32.624l-0.677-1.766l-1.178-3.071l-0.363-0.947l0.355-10.134l0.106-3.071L49.91,5.44
			c0.657-0.308,1.198-0.864,1.467-1.599c0-0.001,0-0.002,0.002-0.003c0.32-0.874,0.178-1.799-0.291-2.526
			c-0.323-0.503-0.8-0.915-1.406-1.137c-1.278-0.471-2.675,0.036-3.383,1.137c-0.112,0.173-0.209,0.357-0.283,0.559
			c-0.083,0.225-0.126,0.454-0.15,0.683c-0.12,1.126,0.44,2.227,1.442,2.786l-0.291,8.295l-0.107,3.071l-0.137,3.908l-1.497-3.908
			l-1.178-3.071l-1.88-4.902c0.483-0.541,0.765-1.264,0.726-2.045c-0.077-1.575-1.416-2.79-2.99-2.713
			c-1.576,0.077-2.79,1.417-2.713,2.992c0.07,1.422,1.171,2.541,2.542,2.69l1.525,3.978l1.18,3.071l4.054,10.572l-0.018,0.51
			l-0.106,3.071l-0.323,9.207c-0.025,0.719,0.536,1.321,1.256,1.347c0.016,0.001,0.031,0.001,0.047,0.001
			c0.697,0,1.276-0.554,1.3-1.256l0.233-6.653l2.451,6.392l0.845,2.203c0.198,0.519,0.692,0.836,1.215,0.836
			c0.155,0,0.312-0.027,0.466-0.086c0.673-0.258,1.008-1.011,0.749-1.682L51.379,32.624z"/>
	</g>
</g>
<g>
</g>
<g>
</g>
<g>
</g>
<g>
</g>
<g>
</g>
<g>
</g>
<g>
</g>
<g>
</g>
<g>
</g>
<g>
</g>
<g>
</g>
<g>
</g>
<g>
</g>
<g>
</g>
<g>
</g>
</svg>
