<?xml version="1.0" encoding="iso-8859-1"?>
<!-- Generator: Adobe Illustrator 18.0.0, SVG Export Plug-In . SVG Version: 6.00 Build 0)  -->
<!DOCTYPE svg PUBLIC "-//W3C//DTD SVG 1.1//EN" "http://www.w3.org/Graphics/SVG/1.1/DTD/svg11.dtd">
<svg version="1.1" id="Capa_1" xmlns="http://www.w3.org/2000/svg" xmlns:xlink="http://www.w3.org/1999/xlink" x="0px" y="0px"
	 viewBox="0 0 489.336 489.336" style="enable-background:new 0 0 489.336 489.336;" xml:space="preserve">
<g>
	<path d="M481.836,227.345h-8.121v-64.333h8.121c4.142,0,7.5-3.358,7.5-7.5c0-4.142-3.358-7.5-7.5-7.5h-8.121v-15.675
		c0-10.477-8.523-19-19-19h-25.092c-10.477,0-19,8.523-19,19v15.675h-16.109v-24.675c0-10.477-8.522-18.999-18.998-18.999h-25.094
		c-10.476,0-18.998,8.523-18.998,18.999v24.675h-16.109v-33.675c0-10.477-8.523-18.999-18.998-18.999h-25.094
		c-10.476,0-18.998,8.523-18.998,18.999v18.517c-5.943,0.702-11.465,2.952-16.11,6.373v-33.889c0-10.477-8.522-18.999-18.998-18.999
		h-25.094c-10.476,0-18.998,8.523-18.998,18.999v42.675h-16.11V96.337c0-10.476-8.523-18.999-18.998-18.999h-25.094
		c-10.476,0-18.998,8.523-18.998,18.999v51.675H77.715V87.337c0-10.476-8.523-18.999-18.999-18.999H33.623
		c-10.476,0-18.999,8.523-18.999,18.999v60.675H7.5c-4.142,0-7.5,3.358-7.5,7.5c0,4.142,3.358,7.5,7.5,7.5h7.124v64.333H7.5
		c-4.142,0-7.5,3.358-7.5,7.5c0,4.142,3.358,7.5,7.5,7.5h7.124v60.674c0,10.477,8.523,19,18.999,19h25.093
		c10.476,0,18.999-8.523,18.999-19v-60.674h16.109v51.674c0,10.477,8.522,19,18.998,19h25.094c10.476,0,18.998-8.523,18.998-19
		v-51.674h16.11v42.674c0,10.477,8.522,19,18.998,19h25.094c1.998,0,3.923-0.314,5.733-0.889l-12.05,63.861
		c-0.768,4.07,1.909,7.993,5.98,8.761c0.471,0.088,0.938,0.131,1.399,0.131c3.534,0,6.682-2.511,7.361-6.111l24.044-127.428h2.641
		v33.674c0,10.476,8.522,19,18.998,19h25.094c10.476,0,18.998-8.523,18.998-19v-27.494c4.808,2.779,10.315,4.389,16.109,4.537
		v13.957c0,9.323,6.754,17.082,15.622,18.682l44.317,130.212c1.061,3.121,3.977,5.085,7.099,5.085c0.802,0,1.616-0.129,2.417-0.402
		c3.922-1.335,6.019-5.595,4.684-9.517l-42.563-125.061h12.517c10.476,0,18.998-8.523,18.998-19v-24.674h16.109v15.674
		c0,10.476,8.523,19,19,19h25.092c10.477,0,19-8.524,19-19v-15.674h8.121c4.142,0,7.5-3.358,7.5-7.5
		C489.336,230.703,485.978,227.345,481.836,227.345z M394.514,163.012h16.109v64.333h-16.109V163.012z M315.315,163.012h16.109
		v22.121c-3.421,0.089-6.806,0.689-10.072,1.802c-2.137,0.727-4.151,1.652-6.037,2.739V163.012z M237.589,163.081
		c1.691-8.963,9.524-15.469,18.624-15.469c1.182,0,2.376,0.112,3.551,0.335c4.983,0.94,9.302,3.765,12.161,7.953
		c2.858,4.188,3.915,9.239,2.975,14.221c-1.691,8.964-9.525,15.47-18.627,15.47c-1.18,0-2.373-0.112-3.546-0.333
		c-0.002-0.001-0.003-0.001-0.004-0.001c-0.001,0-0.002,0-0.002-0.001C242.436,183.313,235.648,173.366,237.589,163.081z
		 M242.728,197.775l-5.579,29.569h-1.034v-33.366C238.144,195.476,240.36,196.75,242.728,197.775z M156.914,163.012h16.11v64.333
		h-16.11V163.012z M77.715,163.012h16.109v64.333H77.715V163.012z M62.715,303.019c0,2.206-1.794,4-3.999,4H33.623
		c-2.205,0-3.999-1.794-3.999-4V87.337c0-2.205,1.794-3.999,3.999-3.999h25.093c2.205,0,3.999,1.794,3.999,3.999V303.019z
		 M141.914,294.019c0,2.206-1.794,4-3.998,4h-25.094c-2.204,0-3.998-1.794-3.998-4V96.337c0-2.205,1.794-3.999,3.998-3.999h25.094
		c2.204,0,3.998,1.794,3.998,3.999V294.019z M221.114,285.019c0,2.206-1.794,4-3.998,4h-25.094c-2.204,0-3.998-1.794-3.998-4
		V105.337c0-2.205,1.794-3.999,3.998-3.999h25.094c2.204,0,3.998,1.794,3.998,3.999V285.019z M296.316,280.019h-25.094
		c-2.204,0-3.998-1.794-3.998-4v-77.254c11.313-3.869,20.095-13.571,22.415-25.863c1.684-8.921-0.208-17.962-5.326-25.46
		c-4.198-6.151-10.158-10.655-17.089-13.005v-20.101c0-2.205,1.794-3.999,3.998-3.999h25.094c2.204,0,3.998,1.794,3.998,3.999
		v93.361c-2.497,6.979-2.752,14.812-0.184,22.358c0.056,0.162,0.126,0.316,0.184,0.477v45.486
		C300.315,278.225,298.521,280.019,296.316,280.019z M314.33,225.223c-3.372-9.91,1.945-20.717,11.854-24.089
		c1.988-0.677,4.047-1.02,6.119-1.02c8.128,0,15.349,5.174,17.97,12.874c1.634,4.801,1.3,9.95-0.939,14.5
		c-2.239,4.55-6.115,7.955-10.915,9.588c-1.989,0.677-4.049,1.02-6.122,1.02C324.172,238.097,316.951,232.923,314.33,225.223z
		 M379.514,267.019c0,2.205-1.794,4-3.998,4h-17.622l-7.811-22.949c5.432-3.32,9.83-8.106,12.71-13.958
		c4.009-8.145,4.604-17.363,1.68-25.956c-3.081-9.055-9.73-16.136-18.049-19.943v-64.876c0-2.205,1.794-3.999,3.998-3.999h25.094
		c2.204,0,3.998,1.794,3.998,3.999V267.019z M458.715,258.019c0,2.205-1.794,4-4,4h-25.092c-2.206,0-4-1.795-4-4V132.337
		c0-2.206,1.794-4,4-4h25.092c2.206,0,4,1.794,4,4V258.019z"/>
</g>
<g>
</g>
<g>
</g>
<g>
</g>
<g>
</g>
<g>
</g>
<g>
</g>
<g>
</g>
<g>
</g>
<g>
</g>
<g>
</g>
<g>
</g>
<g>
</g>
<g>
</g>
<g>
</g>
<g>
</g>
</svg>
